%TF.GenerationSoftware,KiCad,Pcbnew,8.0.9*%
%TF.CreationDate,2025-04-23T17:18:56+02:00*%
%TF.ProjectId,Dijous_D_Combustible,44696a6f-7573-45f4-945f-436f6d627573,rev?*%
%TF.SameCoordinates,Original*%
%TF.FileFunction,Soldermask,Bot*%
%TF.FilePolarity,Negative*%
%FSLAX46Y46*%
G04 Gerber Fmt 4.6, Leading zero omitted, Abs format (unit mm)*
G04 Created by KiCad (PCBNEW 8.0.9) date 2025-04-23 17:18:56*
%MOMM*%
%LPD*%
G01*
G04 APERTURE LIST*
G04 Aperture macros list*
%AMRoundRect*
0 Rectangle with rounded corners*
0 $1 Rounding radius*
0 $2 $3 $4 $5 $6 $7 $8 $9 X,Y pos of 4 corners*
0 Add a 4 corners polygon primitive as box body*
4,1,4,$2,$3,$4,$5,$6,$7,$8,$9,$2,$3,0*
0 Add four circle primitives for the rounded corners*
1,1,$1+$1,$2,$3*
1,1,$1+$1,$4,$5*
1,1,$1+$1,$6,$7*
1,1,$1+$1,$8,$9*
0 Add four rect primitives between the rounded corners*
20,1,$1+$1,$2,$3,$4,$5,0*
20,1,$1+$1,$4,$5,$6,$7,0*
20,1,$1+$1,$6,$7,$8,$9,0*
20,1,$1+$1,$8,$9,$2,$3,0*%
G04 Aperture macros list end*
%ADD10R,3.200000X3.200000*%
%ADD11O,3.200000X3.200000*%
%ADD12C,3.200000*%
%ADD13R,1.700000X1.700000*%
%ADD14O,1.700000X1.700000*%
%ADD15R,2.030000X1.730000*%
%ADD16O,2.030000X1.730000*%
%ADD17C,2.400000*%
%ADD18R,2.000000X2.000000*%
%ADD19C,2.000000*%
%ADD20R,1.600000X1.600000*%
%ADD21C,1.600000*%
%ADD22R,3.960000X1.980000*%
%ADD23O,3.960000X1.980000*%
%ADD24RoundRect,0.250000X0.312500X0.625000X-0.312500X0.625000X-0.312500X-0.625000X0.312500X-0.625000X0*%
%ADD25RoundRect,0.250000X0.625000X-0.312500X0.625000X0.312500X-0.625000X0.312500X-0.625000X-0.312500X0*%
%ADD26RoundRect,0.250000X-0.325000X-0.650000X0.325000X-0.650000X0.325000X0.650000X-0.325000X0.650000X0*%
%ADD27RoundRect,0.250000X-0.650000X0.325000X-0.650000X-0.325000X0.650000X-0.325000X0.650000X0.325000X0*%
%ADD28RoundRect,0.250000X0.325000X0.650000X-0.325000X0.650000X-0.325000X-0.650000X0.325000X-0.650000X0*%
%ADD29RoundRect,0.250000X-0.625000X0.312500X-0.625000X-0.312500X0.625000X-0.312500X0.625000X0.312500X0*%
G04 APERTURE END LIST*
D10*
%TO.C,D2*%
X165608000Y-119888000D03*
D11*
X165608000Y-135128000D03*
%TD*%
D12*
%TO.C,REF\u002A\u002A*%
X132080000Y-75057000D03*
%TD*%
D13*
%TO.C,J6*%
X202946000Y-83820000D03*
D14*
X202946000Y-81280000D03*
%TD*%
D12*
%TO.C,REF\u002A\u002A*%
X134000000Y-134000000D03*
%TD*%
%TO.C,REF\u002A\u002A*%
X204000000Y-134000000D03*
%TD*%
D13*
%TO.C,J8*%
X144018000Y-80518000D03*
D14*
X141478000Y-80518000D03*
X138938000Y-80518000D03*
X136398000Y-80518000D03*
X133858000Y-80518000D03*
X131318000Y-80518000D03*
%TD*%
D15*
%TO.C,JP1*%
X180705000Y-90805000D03*
D16*
X180705000Y-88265000D03*
X180705000Y-85725000D03*
%TD*%
D17*
%TO.C,K2*%
X194818000Y-81026000D03*
X194818000Y-75986000D03*
D18*
X194818000Y-101186000D03*
D19*
X194818000Y-97406000D03*
%TD*%
D13*
%TO.C,J7*%
X186685000Y-77470000D03*
D14*
X189225000Y-77470000D03*
%TD*%
D13*
%TO.C,J2*%
X147000000Y-74000000D03*
D14*
X144460000Y-74000000D03*
%TD*%
D13*
%TO.C,J5*%
X203200000Y-122192000D03*
D14*
X203200000Y-124732000D03*
%TD*%
D13*
%TO.C,J3*%
X177546000Y-98552000D03*
D14*
X177546000Y-101092000D03*
X175006000Y-98552000D03*
X175006000Y-101092000D03*
X172466000Y-98552000D03*
X172466000Y-101092000D03*
%TD*%
D12*
%TO.C,REF\u002A\u002A*%
X204000000Y-75000000D03*
%TD*%
D17*
%TO.C,K1*%
X196596000Y-125854000D03*
X196596000Y-130894000D03*
D18*
X196596000Y-105694000D03*
D19*
X196596000Y-109474000D03*
%TD*%
D20*
%TO.C,J4*%
X139000000Y-93230000D03*
D21*
X139000000Y-96000000D03*
X139000000Y-98770000D03*
X139000000Y-101540000D03*
X139000000Y-104310000D03*
X136160000Y-94615000D03*
X136160000Y-97385000D03*
X136160000Y-100155000D03*
X136160000Y-102925000D03*
%TD*%
D22*
%TO.C,J1*%
X141224000Y-126971000D03*
D23*
X141224000Y-121971000D03*
%TD*%
D24*
%TO.C,R8*%
X143111500Y-76911000D03*
X140186500Y-76911000D03*
%TD*%
D25*
%TO.C,R1*%
X148590000Y-101157500D03*
X148590000Y-98232500D03*
%TD*%
D24*
%TO.C,R4*%
X189422500Y-110490000D03*
X186497500Y-110490000D03*
%TD*%
D26*
%TO.C,C4*%
X146025000Y-90250000D03*
X148975000Y-90250000D03*
%TD*%
D27*
%TO.C,C1*%
X151765000Y-98220000D03*
X151765000Y-101170000D03*
%TD*%
D24*
%TO.C,R5*%
X162462500Y-117500000D03*
X159537500Y-117500000D03*
%TD*%
D28*
%TO.C,C9*%
X165940000Y-89154000D03*
X162990000Y-89154000D03*
%TD*%
D29*
%TO.C,R2*%
X144780000Y-100137500D03*
X144780000Y-103062500D03*
%TD*%
%TO.C,R3*%
X144653000Y-94422500D03*
X144653000Y-97347500D03*
%TD*%
M02*
