M48
; DRILL file {KiCad 8.0.9} date 2025-04-23T17:19:03+0200
; FORMAT={-:-/ absolute / inch / decimal}
; #@! TF.CreationDate,2025-04-23T17:19:03+02:00
; #@! TF.GenerationSoftware,Kicad,Pcbnew,8.0.9
; #@! TF.FileFunction,Plated,1,2,PTH
FMAT,2
INCH
; #@! TA.AperFunction,Plated,PTH,ViaDrill
T1C0.0118
; #@! TA.AperFunction,Plated,PTH,ViaDrill
T2C0.0236
; #@! TA.AperFunction,Plated,PTH,ComponentDrill
T3C0.0394
; #@! TA.AperFunction,Plated,PTH,ComponentDrill
T4C0.0402
; #@! TA.AperFunction,Plated,PTH,ComponentDrill
T5C0.0512
; #@! TA.AperFunction,Plated,PTH,ComponentDrill
T6C0.0520
; #@! TA.AperFunction,Plated,PTH,ComponentDrill
T7C0.0630
%
G90
G05
T1
X5.7087Y-4.1339
X5.7087Y-4.1831
X5.7087Y-4.2618
X5.7087Y-4.3406
X5.7087Y-4.4094
X5.7087Y-4.4685
X5.7087Y-4.5177
X5.775Y-3.85
X5.775Y-3.95
X5.7874Y-3.02
X5.85Y-4.05
X5.925Y-3.025
X5.925Y-3.075
X5.925Y-3.125
X5.925Y-3.175
X5.925Y-3.225
X5.95Y-2.99
X6.0Y-2.99
X6.05Y-2.99
X6.1Y-2.99
X6.1Y-3.43
X6.15Y-3.9
X6.15Y-3.95
X6.16Y-2.99
X6.18Y-3.77
X6.22Y-2.99
X6.275Y-2.99
X6.2795Y-4.1437
X6.325Y-2.99
X6.34Y-3.5
X6.365Y-3.64
X6.375Y-2.99
X6.4Y-3.77
X6.4016Y-4.3228
X6.425Y-2.99
X6.427Y-3.63
X6.44Y-3.94
X6.44Y-4.06
X6.475Y-2.99
X6.475Y-3.27
X6.4764Y-4.3701
X6.4991Y-4.0009
X6.5Y-3.4256
X6.525Y-2.99
X6.575Y-2.99
X6.6142Y-4.0945
X6.62Y-2.875
X6.625Y-2.99
X6.7Y-2.99
X6.75Y-2.99
X6.81Y-2.99
X6.85Y-3.025
X6.85Y-3.075
X6.85Y-3.125
X6.85Y-3.175
X6.85Y-3.225
X6.99Y-3.15
X7.0Y-4.45
X7.14Y-3.0694
X7.1731Y-3.01
X7.1781Y-2.875
X7.19Y-3.11
X7.19Y-3.15
X7.19Y-3.19
X7.22Y-2.94
X7.3Y-3.725
X7.325Y-3.925
X7.4213Y-3.5138
X7.4213Y-3.6319
X7.45Y-3.875
X7.45Y-4.2
X7.4705Y-3.5728
X7.4902Y-3.2874
X7.4902Y-3.4547
T2
X6.1142Y-5.3583
X6.8051Y-5.2387
X6.9Y-5.04
X7.9Y-3.675
X7.9Y-4.475
X8.075Y-3.675
X8.1Y-4.475
T3
X5.17Y-3.17
X5.27Y-3.17
X5.3606Y-3.725
X5.3606Y-3.8341
X5.3606Y-3.9431
X5.3606Y-4.0522
X5.37Y-3.17
X5.47Y-3.17
X5.4724Y-3.6705
X5.4724Y-3.7795
X5.4724Y-3.8886
X5.4724Y-3.9976
X5.4724Y-4.1067
X5.57Y-3.17
X5.67Y-3.17
X5.6874Y-2.9134
X5.7874Y-2.9134
X6.79Y-3.88
X6.79Y-3.98
X6.89Y-3.88
X6.89Y-3.98
X6.99Y-3.88
X6.99Y-3.98
X7.3498Y-3.05
X7.4498Y-3.05
X7.67Y-3.8349
X7.67Y-3.9837
X7.74Y-4.1612
X7.74Y-4.31
X7.99Y-3.2
X7.99Y-3.3
X8.0Y-4.8107
X8.0Y-4.9107
T4
X7.1144Y-3.375
X7.1144Y-3.475
X7.1144Y-3.575
T5
X7.67Y-2.9916
X7.67Y-3.19
X7.74Y-4.9549
X7.74Y-5.1533
T6
X5.56Y-4.802
X5.56Y-4.9989
T7
X6.52Y-4.72
X6.52Y-5.32
M30
