%TF.GenerationSoftware,KiCad,Pcbnew,8.0.9*%
%TF.CreationDate,2025-04-23T17:18:56+02:00*%
%TF.ProjectId,Dijous_D_Combustible,44696a6f-7573-45f4-945f-436f6d627573,rev?*%
%TF.SameCoordinates,Original*%
%TF.FileFunction,Paste,Top*%
%TF.FilePolarity,Positive*%
%FSLAX46Y46*%
G04 Gerber Fmt 4.6, Leading zero omitted, Abs format (unit mm)*
G04 Created by KiCad (PCBNEW 8.0.9) date 2025-04-23 17:18:56*
%MOMM*%
%LPD*%
G01*
G04 APERTURE LIST*
G04 Aperture macros list*
%AMRoundRect*
0 Rectangle with rounded corners*
0 $1 Rounding radius*
0 $2 $3 $4 $5 $6 $7 $8 $9 X,Y pos of 4 corners*
0 Add a 4 corners polygon primitive as box body*
4,1,4,$2,$3,$4,$5,$6,$7,$8,$9,$2,$3,0*
0 Add four circle primitives for the rounded corners*
1,1,$1+$1,$2,$3*
1,1,$1+$1,$4,$5*
1,1,$1+$1,$6,$7*
1,1,$1+$1,$8,$9*
0 Add four rect primitives between the rounded corners*
20,1,$1+$1,$2,$3,$4,$5,0*
20,1,$1+$1,$4,$5,$6,$7,0*
20,1,$1+$1,$6,$7,$8,$9,0*
20,1,$1+$1,$8,$9,$2,$3,0*%
G04 Aperture macros list end*
%ADD10RoundRect,0.250000X-0.850000X-0.350000X0.850000X-0.350000X0.850000X0.350000X-0.850000X0.350000X0*%
%ADD11RoundRect,0.250000X0.800000X-0.450000X0.800000X0.450000X-0.800000X0.450000X-0.800000X-0.450000X0*%
%ADD12RoundRect,0.250000X-0.325000X-0.650000X0.325000X-0.650000X0.325000X0.650000X-0.325000X0.650000X0*%
%ADD13R,0.558000X1.969999*%
%ADD14RoundRect,0.243750X-0.243750X-0.456250X0.243750X-0.456250X0.243750X0.456250X-0.243750X0.456250X0*%
%ADD15RoundRect,0.250000X-0.412500X-0.925000X0.412500X-0.925000X0.412500X0.925000X-0.412500X0.925000X0*%
%ADD16RoundRect,0.250000X-0.800000X0.450000X-0.800000X-0.450000X0.800000X-0.450000X0.800000X0.450000X0*%
%ADD17RoundRect,0.112500X-0.237500X0.112500X-0.237500X-0.112500X0.237500X-0.112500X0.237500X0.112500X0*%
%ADD18RoundRect,0.250000X-0.312500X-0.625000X0.312500X-0.625000X0.312500X0.625000X-0.312500X0.625000X0*%
%ADD19RoundRect,0.225000X-0.225000X-0.250000X0.225000X-0.250000X0.225000X0.250000X-0.225000X0.250000X0*%
%ADD20RoundRect,0.250000X-0.250000X-0.475000X0.250000X-0.475000X0.250000X0.475000X-0.250000X0.475000X0*%
%ADD21RoundRect,0.243750X-0.456250X0.243750X-0.456250X-0.243750X0.456250X-0.243750X0.456250X0.243750X0*%
%ADD22RoundRect,0.250000X0.312500X0.625000X-0.312500X0.625000X-0.312500X-0.625000X0.312500X-0.625000X0*%
%ADD23RoundRect,0.250000X0.625000X-0.312500X0.625000X0.312500X-0.625000X0.312500X-0.625000X-0.312500X0*%
%ADD24RoundRect,0.150000X0.825000X0.150000X-0.825000X0.150000X-0.825000X-0.150000X0.825000X-0.150000X0*%
%ADD25RoundRect,0.250000X2.050000X0.300000X-2.050000X0.300000X-2.050000X-0.300000X2.050000X-0.300000X0*%
%ADD26RoundRect,0.200000X-0.200000X-0.800000X0.200000X-0.800000X0.200000X0.800000X-0.200000X0.800000X0*%
%ADD27RoundRect,0.250000X0.262500X0.450000X-0.262500X0.450000X-0.262500X-0.450000X0.262500X-0.450000X0*%
%ADD28R,4.500000X2.000000*%
%ADD29RoundRect,0.250000X-1.000000X1.750000X-1.000000X-1.750000X1.000000X-1.750000X1.000000X1.750000X0*%
%ADD30RoundRect,0.250000X0.275000X0.700000X-0.275000X0.700000X-0.275000X-0.700000X0.275000X-0.700000X0*%
%ADD31RoundRect,0.150000X-0.512500X-0.150000X0.512500X-0.150000X0.512500X0.150000X-0.512500X0.150000X0*%
%ADD32RoundRect,0.425000X0.525000X0.425000X-0.525000X0.425000X-0.525000X-0.425000X0.525000X-0.425000X0*%
%ADD33RoundRect,0.150000X0.150000X1.050000X-0.150000X1.050000X-0.150000X-1.050000X0.150000X-1.050000X0*%
%ADD34RoundRect,0.360000X0.360000X0.440000X-0.360000X0.440000X-0.360000X-0.440000X0.360000X-0.440000X0*%
%ADD35RoundRect,0.250000X-0.450000X-0.425000X0.450000X-0.425000X0.450000X0.425000X-0.450000X0.425000X0*%
G04 APERTURE END LIST*
D10*
%TO.C,U4*%
X170220000Y-104720000D03*
X170220000Y-107000000D03*
X170220000Y-109280000D03*
%TD*%
D11*
%TO.C,D10*%
X203200000Y-118192000D03*
X203200000Y-113792000D03*
%TD*%
D12*
%TO.C,C11*%
X179324000Y-74422000D03*
X182274000Y-74422000D03*
%TD*%
D13*
%TO.C,U3*%
X173405000Y-84948800D03*
X172135000Y-84948800D03*
X170865000Y-84948800D03*
X169595000Y-84948800D03*
X168325000Y-84948800D03*
X167055000Y-84948800D03*
X165785000Y-84948800D03*
X164515000Y-84948800D03*
X163245000Y-84948800D03*
X161975000Y-84948800D03*
X160705000Y-84948800D03*
X159435000Y-84948800D03*
X158165000Y-84948800D03*
X156895000Y-84948800D03*
X156895000Y-93991200D03*
X158165000Y-93991200D03*
X159435000Y-93991200D03*
X160705000Y-93991200D03*
X161975000Y-93991200D03*
X163245000Y-93991200D03*
X164515000Y-93991200D03*
X165785000Y-93991200D03*
X167055000Y-93991200D03*
X168325000Y-93991200D03*
X169595000Y-93991200D03*
X170865000Y-93991200D03*
X172135000Y-93991200D03*
X173405000Y-93991200D03*
%TD*%
D14*
%TO.C,D4*%
X174576500Y-73660000D03*
X176451500Y-73660000D03*
%TD*%
D15*
%TO.C,C8*%
X173462500Y-113000000D03*
X176537500Y-113000000D03*
%TD*%
D16*
%TO.C,D9*%
X202946000Y-88646000D03*
X202946000Y-93046000D03*
%TD*%
D17*
%TO.C,Q1*%
X189500000Y-104506000D03*
X189500000Y-105806000D03*
X191500000Y-105156000D03*
%TD*%
D18*
%TO.C,R9*%
X151699500Y-92075000D03*
X154624500Y-92075000D03*
%TD*%
D14*
%TO.C,D3*%
X173975000Y-133062500D03*
X175850000Y-133062500D03*
%TD*%
D16*
%TO.C,D8*%
X202692000Y-96606000D03*
X202692000Y-101006000D03*
%TD*%
D19*
%TO.C,C6*%
X164725000Y-109650000D03*
X166275000Y-109650000D03*
%TD*%
D18*
%TO.C,R10*%
X151699500Y-85471000D03*
X154624500Y-85471000D03*
%TD*%
%TO.C,R14*%
X183449500Y-101600000D03*
X186374500Y-101600000D03*
%TD*%
D20*
%TO.C,C5*%
X152100000Y-79756000D03*
X154000000Y-79756000D03*
%TD*%
D21*
%TO.C,D7*%
X202692000Y-103202500D03*
X202692000Y-105077500D03*
%TD*%
D18*
%TO.C,R7*%
X185537500Y-90750000D03*
X188462500Y-90750000D03*
%TD*%
D22*
%TO.C,R11*%
X181062500Y-133062500D03*
X178137500Y-133062500D03*
%TD*%
D17*
%TO.C,Q2*%
X190262000Y-96886000D03*
X190262000Y-98186000D03*
X192262000Y-97536000D03*
%TD*%
D23*
%TO.C,R16*%
X202946000Y-110428500D03*
X202946000Y-107503500D03*
%TD*%
D18*
%TO.C,R6*%
X164075000Y-106500000D03*
X167000000Y-106500000D03*
%TD*%
D11*
%TO.C,D6*%
X183896000Y-120310000D03*
X183896000Y-115910000D03*
%TD*%
D24*
%TO.C,U1*%
X154240000Y-101600000D03*
X154240000Y-100330000D03*
X154240000Y-99060000D03*
X154240000Y-97790000D03*
X149290000Y-97790000D03*
X149290000Y-99060000D03*
X149290000Y-100330000D03*
X149290000Y-101600000D03*
%TD*%
D25*
%TO.C,U2*%
X159645000Y-113255000D03*
X159645000Y-111555000D03*
X159645000Y-109855000D03*
X159645000Y-108155000D03*
X159645000Y-106455000D03*
%TD*%
D18*
%TO.C,R17*%
X181356000Y-94488000D03*
X184281000Y-94488000D03*
%TD*%
D22*
%TO.C,R12*%
X172416000Y-73660000D03*
X169491000Y-73660000D03*
%TD*%
D26*
%TO.C,SW1*%
X185905000Y-85670000D03*
X190105000Y-85670000D03*
%TD*%
D27*
%TO.C,R19*%
X187856500Y-82042000D03*
X186031500Y-82042000D03*
%TD*%
D21*
%TO.C,D5*%
X188722000Y-116332000D03*
X188722000Y-118207000D03*
%TD*%
D28*
%TO.C,Y1*%
X166556000Y-79248000D03*
X158056000Y-79248000D03*
%TD*%
D29*
%TO.C,C2*%
X155305000Y-125540000D03*
X155305000Y-133540000D03*
%TD*%
D30*
%TO.C,L1*%
X167675000Y-116205000D03*
X164525000Y-116205000D03*
%TD*%
D18*
%TO.C,R15*%
X183449500Y-104140000D03*
X186374500Y-104140000D03*
%TD*%
D29*
%TO.C,C7*%
X175260000Y-117285000D03*
X175260000Y-125285000D03*
%TD*%
D18*
%TO.C,R18*%
X183449500Y-97790000D03*
X186374500Y-97790000D03*
%TD*%
D20*
%TO.C,C3*%
X170005000Y-80300000D03*
X171905000Y-80300000D03*
%TD*%
D31*
%TO.C,U5*%
X178948500Y-79141000D03*
X178948500Y-80091000D03*
X178948500Y-81041000D03*
X181223500Y-81041000D03*
X181223500Y-80091000D03*
X181223500Y-79141000D03*
%TD*%
D32*
%TO.C,D1*%
X155380000Y-118430000D03*
X155380000Y-120330000D03*
X157480000Y-118430000D03*
X157480000Y-120330000D03*
D33*
X158930000Y-119380000D03*
D34*
X153000000Y-118315000D03*
X153000000Y-120445000D03*
%TD*%
D23*
%TO.C,R13*%
X188722000Y-124574000D03*
X188722000Y-121649000D03*
%TD*%
D35*
%TO.C,C10*%
X160726000Y-101624000D03*
X163426000Y-101624000D03*
%TD*%
M02*
