%TF.GenerationSoftware,KiCad,Pcbnew,8.0.9*%
%TF.CreationDate,2025-04-23T17:18:56+02:00*%
%TF.ProjectId,Dijous_D_Combustible,44696a6f-7573-45f4-945f-436f6d627573,rev?*%
%TF.SameCoordinates,Original*%
%TF.FileFunction,Legend,Top*%
%TF.FilePolarity,Positive*%
%FSLAX46Y46*%
G04 Gerber Fmt 4.6, Leading zero omitted, Abs format (unit mm)*
G04 Created by KiCad (PCBNEW 8.0.9) date 2025-04-23 17:18:56*
%MOMM*%
%LPD*%
G01*
G04 APERTURE LIST*
%ADD10C,0.150000*%
%ADD11C,0.050000*%
%ADD12C,0.100000*%
%ADD13C,0.120000*%
%ADD14C,0.152400*%
%ADD15C,0.000000*%
G04 APERTURE END LIST*
D10*
X166571429Y-142883390D02*
X166476191Y-142835771D01*
X166476191Y-142835771D02*
X166428572Y-142788152D01*
X166428572Y-142788152D02*
X166380953Y-142692914D01*
X166380953Y-142692914D02*
X166380953Y-142645295D01*
X166380953Y-142645295D02*
X166428572Y-142550057D01*
X166428572Y-142550057D02*
X166476191Y-142502438D01*
X166476191Y-142502438D02*
X166571429Y-142454819D01*
X166571429Y-142454819D02*
X166761905Y-142454819D01*
X166761905Y-142454819D02*
X166857143Y-142502438D01*
X166857143Y-142502438D02*
X166904762Y-142550057D01*
X166904762Y-142550057D02*
X166952381Y-142645295D01*
X166952381Y-142645295D02*
X166952381Y-142692914D01*
X166952381Y-142692914D02*
X166904762Y-142788152D01*
X166904762Y-142788152D02*
X166857143Y-142835771D01*
X166857143Y-142835771D02*
X166761905Y-142883390D01*
X166761905Y-142883390D02*
X166571429Y-142883390D01*
X166571429Y-142883390D02*
X166476191Y-142931009D01*
X166476191Y-142931009D02*
X166428572Y-142978628D01*
X166428572Y-142978628D02*
X166380953Y-143073866D01*
X166380953Y-143073866D02*
X166380953Y-143264342D01*
X166380953Y-143264342D02*
X166428572Y-143359580D01*
X166428572Y-143359580D02*
X166476191Y-143407200D01*
X166476191Y-143407200D02*
X166571429Y-143454819D01*
X166571429Y-143454819D02*
X166761905Y-143454819D01*
X166761905Y-143454819D02*
X166857143Y-143407200D01*
X166857143Y-143407200D02*
X166904762Y-143359580D01*
X166904762Y-143359580D02*
X166952381Y-143264342D01*
X166952381Y-143264342D02*
X166952381Y-143073866D01*
X166952381Y-143073866D02*
X166904762Y-142978628D01*
X166904762Y-142978628D02*
X166857143Y-142931009D01*
X166857143Y-142931009D02*
X166761905Y-142883390D01*
X167571429Y-142454819D02*
X167666667Y-142454819D01*
X167666667Y-142454819D02*
X167761905Y-142502438D01*
X167761905Y-142502438D02*
X167809524Y-142550057D01*
X167809524Y-142550057D02*
X167857143Y-142645295D01*
X167857143Y-142645295D02*
X167904762Y-142835771D01*
X167904762Y-142835771D02*
X167904762Y-143073866D01*
X167904762Y-143073866D02*
X167857143Y-143264342D01*
X167857143Y-143264342D02*
X167809524Y-143359580D01*
X167809524Y-143359580D02*
X167761905Y-143407200D01*
X167761905Y-143407200D02*
X167666667Y-143454819D01*
X167666667Y-143454819D02*
X167571429Y-143454819D01*
X167571429Y-143454819D02*
X167476191Y-143407200D01*
X167476191Y-143407200D02*
X167428572Y-143359580D01*
X167428572Y-143359580D02*
X167380953Y-143264342D01*
X167380953Y-143264342D02*
X167333334Y-143073866D01*
X167333334Y-143073866D02*
X167333334Y-142835771D01*
X167333334Y-142835771D02*
X167380953Y-142645295D01*
X167380953Y-142645295D02*
X167428572Y-142550057D01*
X167428572Y-142550057D02*
X167476191Y-142502438D01*
X167476191Y-142502438D02*
X167571429Y-142454819D01*
X168380953Y-143407200D02*
X168380953Y-143454819D01*
X168380953Y-143454819D02*
X168333334Y-143550057D01*
X168333334Y-143550057D02*
X168285715Y-143597676D01*
X169238095Y-142454819D02*
X169047619Y-142454819D01*
X169047619Y-142454819D02*
X168952381Y-142502438D01*
X168952381Y-142502438D02*
X168904762Y-142550057D01*
X168904762Y-142550057D02*
X168809524Y-142692914D01*
X168809524Y-142692914D02*
X168761905Y-142883390D01*
X168761905Y-142883390D02*
X168761905Y-143264342D01*
X168761905Y-143264342D02*
X168809524Y-143359580D01*
X168809524Y-143359580D02*
X168857143Y-143407200D01*
X168857143Y-143407200D02*
X168952381Y-143454819D01*
X168952381Y-143454819D02*
X169142857Y-143454819D01*
X169142857Y-143454819D02*
X169238095Y-143407200D01*
X169238095Y-143407200D02*
X169285714Y-143359580D01*
X169285714Y-143359580D02*
X169333333Y-143264342D01*
X169333333Y-143264342D02*
X169333333Y-143026247D01*
X169333333Y-143026247D02*
X169285714Y-142931009D01*
X169285714Y-142931009D02*
X169238095Y-142883390D01*
X169238095Y-142883390D02*
X169142857Y-142835771D01*
X169142857Y-142835771D02*
X168952381Y-142835771D01*
X168952381Y-142835771D02*
X168857143Y-142883390D01*
X168857143Y-142883390D02*
X168809524Y-142931009D01*
X168809524Y-142931009D02*
X168761905Y-143026247D01*
X169666667Y-142454819D02*
X170285714Y-142454819D01*
X170285714Y-142454819D02*
X169952381Y-142835771D01*
X169952381Y-142835771D02*
X170095238Y-142835771D01*
X170095238Y-142835771D02*
X170190476Y-142883390D01*
X170190476Y-142883390D02*
X170238095Y-142931009D01*
X170238095Y-142931009D02*
X170285714Y-143026247D01*
X170285714Y-143026247D02*
X170285714Y-143264342D01*
X170285714Y-143264342D02*
X170238095Y-143359580D01*
X170238095Y-143359580D02*
X170190476Y-143407200D01*
X170190476Y-143407200D02*
X170095238Y-143454819D01*
X170095238Y-143454819D02*
X169809524Y-143454819D01*
X169809524Y-143454819D02*
X169714286Y-143407200D01*
X169714286Y-143407200D02*
X169666667Y-143359580D01*
X170904762Y-142454819D02*
X171000000Y-142454819D01*
X171000000Y-142454819D02*
X171095238Y-142502438D01*
X171095238Y-142502438D02*
X171142857Y-142550057D01*
X171142857Y-142550057D02*
X171190476Y-142645295D01*
X171190476Y-142645295D02*
X171238095Y-142835771D01*
X171238095Y-142835771D02*
X171238095Y-143073866D01*
X171238095Y-143073866D02*
X171190476Y-143264342D01*
X171190476Y-143264342D02*
X171142857Y-143359580D01*
X171142857Y-143359580D02*
X171095238Y-143407200D01*
X171095238Y-143407200D02*
X171000000Y-143454819D01*
X171000000Y-143454819D02*
X170904762Y-143454819D01*
X170904762Y-143454819D02*
X170809524Y-143407200D01*
X170809524Y-143407200D02*
X170761905Y-143359580D01*
X170761905Y-143359580D02*
X170714286Y-143264342D01*
X170714286Y-143264342D02*
X170666667Y-143073866D01*
X170666667Y-143073866D02*
X170666667Y-142835771D01*
X170666667Y-142835771D02*
X170714286Y-142645295D01*
X170714286Y-142645295D02*
X170761905Y-142550057D01*
X170761905Y-142550057D02*
X170809524Y-142502438D01*
X170809524Y-142502438D02*
X170904762Y-142454819D01*
X171857143Y-142454819D02*
X171952381Y-142454819D01*
X171952381Y-142454819D02*
X172047619Y-142502438D01*
X172047619Y-142502438D02*
X172095238Y-142550057D01*
X172095238Y-142550057D02*
X172142857Y-142645295D01*
X172142857Y-142645295D02*
X172190476Y-142835771D01*
X172190476Y-142835771D02*
X172190476Y-143073866D01*
X172190476Y-143073866D02*
X172142857Y-143264342D01*
X172142857Y-143264342D02*
X172095238Y-143359580D01*
X172095238Y-143359580D02*
X172047619Y-143407200D01*
X172047619Y-143407200D02*
X171952381Y-143454819D01*
X171952381Y-143454819D02*
X171857143Y-143454819D01*
X171857143Y-143454819D02*
X171761905Y-143407200D01*
X171761905Y-143407200D02*
X171714286Y-143359580D01*
X171714286Y-143359580D02*
X171666667Y-143264342D01*
X171666667Y-143264342D02*
X171619048Y-143073866D01*
X171619048Y-143073866D02*
X171619048Y-142835771D01*
X171619048Y-142835771D02*
X171666667Y-142645295D01*
X171666667Y-142645295D02*
X171714286Y-142550057D01*
X171714286Y-142550057D02*
X171761905Y-142502438D01*
X171761905Y-142502438D02*
X171857143Y-142454819D01*
X173380953Y-143454819D02*
X173380953Y-142788152D01*
X173380953Y-142883390D02*
X173428572Y-142835771D01*
X173428572Y-142835771D02*
X173523810Y-142788152D01*
X173523810Y-142788152D02*
X173666667Y-142788152D01*
X173666667Y-142788152D02*
X173761905Y-142835771D01*
X173761905Y-142835771D02*
X173809524Y-142931009D01*
X173809524Y-142931009D02*
X173809524Y-143454819D01*
X173809524Y-142931009D02*
X173857143Y-142835771D01*
X173857143Y-142835771D02*
X173952381Y-142788152D01*
X173952381Y-142788152D02*
X174095238Y-142788152D01*
X174095238Y-142788152D02*
X174190477Y-142835771D01*
X174190477Y-142835771D02*
X174238096Y-142931009D01*
X174238096Y-142931009D02*
X174238096Y-143454819D01*
X174714286Y-143454819D02*
X174714286Y-142788152D01*
X174714286Y-142883390D02*
X174761905Y-142835771D01*
X174761905Y-142835771D02*
X174857143Y-142788152D01*
X174857143Y-142788152D02*
X175000000Y-142788152D01*
X175000000Y-142788152D02*
X175095238Y-142835771D01*
X175095238Y-142835771D02*
X175142857Y-142931009D01*
X175142857Y-142931009D02*
X175142857Y-143454819D01*
X175142857Y-142931009D02*
X175190476Y-142835771D01*
X175190476Y-142835771D02*
X175285714Y-142788152D01*
X175285714Y-142788152D02*
X175428571Y-142788152D01*
X175428571Y-142788152D02*
X175523810Y-142835771D01*
X175523810Y-142835771D02*
X175571429Y-142931009D01*
X175571429Y-142931009D02*
X175571429Y-143454819D01*
D11*
X208900000Y-139010000D02*
X208900000Y-142586420D01*
X128270000Y-139010000D02*
X128270000Y-142586420D01*
X208900000Y-142000000D02*
X128270000Y-142000000D01*
X208900000Y-142000000D02*
X128270000Y-142000000D01*
X208900000Y-142000000D02*
X207773496Y-142586421D01*
X208900000Y-142000000D02*
X207773496Y-141413579D01*
X128270000Y-142000000D02*
X129396504Y-141413579D01*
X128270000Y-142000000D02*
X129396504Y-142586421D01*
D12*
X211817456Y-108958504D02*
X211817414Y-109148980D01*
X211817414Y-109148980D02*
X211865012Y-109244229D01*
X211865012Y-109244229D02*
X211912620Y-109291858D01*
X211912620Y-109291858D02*
X212055456Y-109387128D01*
X212055456Y-109387128D02*
X212245922Y-109434790D01*
X212245922Y-109434790D02*
X212626874Y-109434875D01*
X212626874Y-109434875D02*
X212722123Y-109387277D01*
X212722123Y-109387277D02*
X212769753Y-109339668D01*
X212769753Y-109339668D02*
X212817393Y-109244441D01*
X212817393Y-109244441D02*
X212817435Y-109053965D01*
X212817435Y-109053965D02*
X212769837Y-108958716D01*
X212769837Y-108958716D02*
X212722229Y-108911086D01*
X212722229Y-108911086D02*
X212627001Y-108863446D01*
X212627001Y-108863446D02*
X212388906Y-108863393D01*
X212388906Y-108863393D02*
X212293657Y-108910991D01*
X212293657Y-108910991D02*
X212246028Y-108958599D01*
X212246028Y-108958599D02*
X212198388Y-109053827D01*
X212198388Y-109053827D02*
X212198345Y-109244303D01*
X212198345Y-109244303D02*
X212245943Y-109339552D01*
X212245943Y-109339552D02*
X212293551Y-109387181D01*
X212293551Y-109387181D02*
X212388779Y-109434822D01*
X211817552Y-108529932D02*
X211817700Y-107863266D01*
X211817700Y-107863266D02*
X212817605Y-108292060D01*
X212770177Y-107434906D02*
X212817796Y-107434917D01*
X212817796Y-107434917D02*
X212913023Y-107482557D01*
X212913023Y-107482557D02*
X212960632Y-107530187D01*
X211817870Y-107101362D02*
X211818008Y-106482314D01*
X211818008Y-106482314D02*
X212198886Y-106815732D01*
X212198886Y-106815732D02*
X212198918Y-106672875D01*
X212198918Y-106672875D02*
X212246558Y-106577647D01*
X212246558Y-106577647D02*
X212294187Y-106530039D01*
X212294187Y-106530039D02*
X212389436Y-106482441D01*
X212389436Y-106482441D02*
X212627531Y-106482494D01*
X212627531Y-106482494D02*
X212722759Y-106530134D01*
X212722759Y-106530134D02*
X212770367Y-106577764D01*
X212770367Y-106577764D02*
X212817965Y-106673013D01*
X212817965Y-106673013D02*
X212817902Y-106958727D01*
X212817902Y-106958727D02*
X212770261Y-107053954D01*
X212770261Y-107053954D02*
X212722632Y-107101563D01*
X212818114Y-106006346D02*
X212818156Y-105815870D01*
X212818156Y-105815870D02*
X212770558Y-105720621D01*
X212770558Y-105720621D02*
X212722950Y-105672991D01*
X212722950Y-105672991D02*
X212580114Y-105577722D01*
X212580114Y-105577722D02*
X212389648Y-105530060D01*
X212389648Y-105530060D02*
X212008696Y-105529975D01*
X212008696Y-105529975D02*
X211913447Y-105577573D01*
X211913447Y-105577573D02*
X211865817Y-105625182D01*
X211865817Y-105625182D02*
X211818177Y-105720409D01*
X211818177Y-105720409D02*
X211818135Y-105910885D01*
X211818135Y-105910885D02*
X211865733Y-106006134D01*
X211865733Y-106006134D02*
X211913341Y-106053764D01*
X211913341Y-106053764D02*
X212008569Y-106101404D01*
X212008569Y-106101404D02*
X212246664Y-106101457D01*
X212246664Y-106101457D02*
X212341912Y-106053859D01*
X212341912Y-106053859D02*
X212389542Y-106006251D01*
X212389542Y-106006251D02*
X212437182Y-105911023D01*
X212437182Y-105911023D02*
X212437225Y-105720547D01*
X212437225Y-105720547D02*
X212389627Y-105625298D01*
X212389627Y-105625298D02*
X212342018Y-105577669D01*
X212342018Y-105577669D02*
X212246791Y-105530028D01*
X211818357Y-104910885D02*
X211818379Y-104815647D01*
X211818379Y-104815647D02*
X211866019Y-104720420D01*
X211866019Y-104720420D02*
X211913648Y-104672811D01*
X211913648Y-104672811D02*
X212008897Y-104625213D01*
X212008897Y-104625213D02*
X212199384Y-104577637D01*
X212199384Y-104577637D02*
X212437479Y-104577690D01*
X212437479Y-104577690D02*
X212627945Y-104625351D01*
X212627945Y-104625351D02*
X212723172Y-104672991D01*
X212723172Y-104672991D02*
X212770781Y-104720621D01*
X212770781Y-104720621D02*
X212818379Y-104815870D01*
X212818379Y-104815870D02*
X212818357Y-104911108D01*
X212818357Y-104911108D02*
X212770717Y-105006335D01*
X212770717Y-105006335D02*
X212723087Y-105053944D01*
X212723087Y-105053944D02*
X212627839Y-105101542D01*
X212627839Y-105101542D02*
X212437352Y-105149118D01*
X212437352Y-105149118D02*
X212199257Y-105149065D01*
X212199257Y-105149065D02*
X212008791Y-105101404D01*
X212008791Y-105101404D02*
X211913564Y-105053764D01*
X211913564Y-105053764D02*
X211865955Y-105006134D01*
X211865955Y-105006134D02*
X211818357Y-104910885D01*
X211818569Y-103958504D02*
X211818591Y-103863266D01*
X211818591Y-103863266D02*
X211866231Y-103768039D01*
X211866231Y-103768039D02*
X211913860Y-103720430D01*
X211913860Y-103720430D02*
X212009109Y-103672832D01*
X212009109Y-103672832D02*
X212199596Y-103625256D01*
X212199596Y-103625256D02*
X212437691Y-103625309D01*
X212437691Y-103625309D02*
X212628157Y-103672970D01*
X212628157Y-103672970D02*
X212723384Y-103720610D01*
X212723384Y-103720610D02*
X212770993Y-103768240D01*
X212770993Y-103768240D02*
X212818591Y-103863489D01*
X212818591Y-103863489D02*
X212818569Y-103958727D01*
X212818569Y-103958727D02*
X212770929Y-104053954D01*
X212770929Y-104053954D02*
X212723299Y-104101563D01*
X212723299Y-104101563D02*
X212628051Y-104149161D01*
X212628051Y-104149161D02*
X212437564Y-104196737D01*
X212437564Y-104196737D02*
X212199469Y-104196684D01*
X212199469Y-104196684D02*
X212009003Y-104149023D01*
X212009003Y-104149023D02*
X211913776Y-104101383D01*
X211913776Y-104101383D02*
X211866167Y-104053753D01*
X211866167Y-104053753D02*
X211818569Y-103958504D01*
X212818909Y-102434917D02*
X212152242Y-102434769D01*
X212247480Y-102434790D02*
X212199871Y-102387160D01*
X212199871Y-102387160D02*
X212152274Y-102291912D01*
X212152274Y-102291912D02*
X212152305Y-102149054D01*
X212152305Y-102149054D02*
X212199946Y-102053827D01*
X212199946Y-102053827D02*
X212295194Y-102006229D01*
X212295194Y-102006229D02*
X212819004Y-102006346D01*
X212295194Y-102006229D02*
X212199967Y-101958589D01*
X212199967Y-101958589D02*
X212152369Y-101863340D01*
X212152369Y-101863340D02*
X212152401Y-101720483D01*
X212152401Y-101720483D02*
X212200041Y-101625256D01*
X212200041Y-101625256D02*
X212295290Y-101577658D01*
X212295290Y-101577658D02*
X212819099Y-101577774D01*
X212819205Y-101101584D02*
X212152539Y-101101436D01*
X212247777Y-101101457D02*
X212200168Y-101053827D01*
X212200168Y-101053827D02*
X212152570Y-100958579D01*
X212152570Y-100958579D02*
X212152602Y-100815721D01*
X212152602Y-100815721D02*
X212200242Y-100720494D01*
X212200242Y-100720494D02*
X212295491Y-100672896D01*
X212295491Y-100672896D02*
X212819301Y-100673013D01*
X212295491Y-100672896D02*
X212200264Y-100625256D01*
X212200264Y-100625256D02*
X212152666Y-100530007D01*
X212152666Y-100530007D02*
X212152698Y-100387150D01*
X212152698Y-100387150D02*
X212200338Y-100291923D01*
X212200338Y-100291923D02*
X212295587Y-100244325D01*
X212295587Y-100244325D02*
X212819396Y-100244441D01*
X209400000Y-138510111D02*
X214039880Y-138511144D01*
X209415000Y-71120111D02*
X214054880Y-71121144D01*
X213453460Y-138511014D02*
X213468460Y-71121014D01*
X213453460Y-138511014D02*
X213468460Y-71121014D01*
X213453460Y-138511014D02*
X212867290Y-137384380D01*
X213453460Y-138511014D02*
X214040131Y-137384641D01*
X213468460Y-71121014D02*
X214054630Y-72247648D01*
X213468460Y-71121014D02*
X212881789Y-72247387D01*
D10*
X180848095Y-106769819D02*
X180848095Y-107579342D01*
X180848095Y-107579342D02*
X180895714Y-107674580D01*
X180895714Y-107674580D02*
X180943333Y-107722200D01*
X180943333Y-107722200D02*
X181038571Y-107769819D01*
X181038571Y-107769819D02*
X181229047Y-107769819D01*
X181229047Y-107769819D02*
X181324285Y-107722200D01*
X181324285Y-107722200D02*
X181371904Y-107674580D01*
X181371904Y-107674580D02*
X181419523Y-107579342D01*
X181419523Y-107579342D02*
X181419523Y-106769819D01*
X182324285Y-107103152D02*
X182324285Y-107769819D01*
X182086190Y-106722200D02*
X181848095Y-107436485D01*
X181848095Y-107436485D02*
X182467142Y-107436485D01*
X201404819Y-117206285D02*
X200404819Y-117206285D01*
X200404819Y-117206285D02*
X200404819Y-116968190D01*
X200404819Y-116968190D02*
X200452438Y-116825333D01*
X200452438Y-116825333D02*
X200547676Y-116730095D01*
X200547676Y-116730095D02*
X200642914Y-116682476D01*
X200642914Y-116682476D02*
X200833390Y-116634857D01*
X200833390Y-116634857D02*
X200976247Y-116634857D01*
X200976247Y-116634857D02*
X201166723Y-116682476D01*
X201166723Y-116682476D02*
X201261961Y-116730095D01*
X201261961Y-116730095D02*
X201357200Y-116825333D01*
X201357200Y-116825333D02*
X201404819Y-116968190D01*
X201404819Y-116968190D02*
X201404819Y-117206285D01*
X201404819Y-115682476D02*
X201404819Y-116253904D01*
X201404819Y-115968190D02*
X200404819Y-115968190D01*
X200404819Y-115968190D02*
X200547676Y-116063428D01*
X200547676Y-116063428D02*
X200642914Y-116158666D01*
X200642914Y-116158666D02*
X200690533Y-116253904D01*
X200404819Y-115063428D02*
X200404819Y-114968190D01*
X200404819Y-114968190D02*
X200452438Y-114872952D01*
X200452438Y-114872952D02*
X200500057Y-114825333D01*
X200500057Y-114825333D02*
X200595295Y-114777714D01*
X200595295Y-114777714D02*
X200785771Y-114730095D01*
X200785771Y-114730095D02*
X201023866Y-114730095D01*
X201023866Y-114730095D02*
X201214342Y-114777714D01*
X201214342Y-114777714D02*
X201309580Y-114825333D01*
X201309580Y-114825333D02*
X201357200Y-114872952D01*
X201357200Y-114872952D02*
X201404819Y-114968190D01*
X201404819Y-114968190D02*
X201404819Y-115063428D01*
X201404819Y-115063428D02*
X201357200Y-115158666D01*
X201357200Y-115158666D02*
X201309580Y-115206285D01*
X201309580Y-115206285D02*
X201214342Y-115253904D01*
X201214342Y-115253904D02*
X201023866Y-115301523D01*
X201023866Y-115301523D02*
X200785771Y-115301523D01*
X200785771Y-115301523D02*
X200595295Y-115253904D01*
X200595295Y-115253904D02*
X200500057Y-115206285D01*
X200500057Y-115206285D02*
X200452438Y-115158666D01*
X200452438Y-115158666D02*
X200404819Y-115063428D01*
X180156142Y-72931580D02*
X180108523Y-72979200D01*
X180108523Y-72979200D02*
X179965666Y-73026819D01*
X179965666Y-73026819D02*
X179870428Y-73026819D01*
X179870428Y-73026819D02*
X179727571Y-72979200D01*
X179727571Y-72979200D02*
X179632333Y-72883961D01*
X179632333Y-72883961D02*
X179584714Y-72788723D01*
X179584714Y-72788723D02*
X179537095Y-72598247D01*
X179537095Y-72598247D02*
X179537095Y-72455390D01*
X179537095Y-72455390D02*
X179584714Y-72264914D01*
X179584714Y-72264914D02*
X179632333Y-72169676D01*
X179632333Y-72169676D02*
X179727571Y-72074438D01*
X179727571Y-72074438D02*
X179870428Y-72026819D01*
X179870428Y-72026819D02*
X179965666Y-72026819D01*
X179965666Y-72026819D02*
X180108523Y-72074438D01*
X180108523Y-72074438D02*
X180156142Y-72122057D01*
X181108523Y-73026819D02*
X180537095Y-73026819D01*
X180822809Y-73026819D02*
X180822809Y-72026819D01*
X180822809Y-72026819D02*
X180727571Y-72169676D01*
X180727571Y-72169676D02*
X180632333Y-72264914D01*
X180632333Y-72264914D02*
X180537095Y-72312533D01*
X182060904Y-73026819D02*
X181489476Y-73026819D01*
X181775190Y-73026819D02*
X181775190Y-72026819D01*
X181775190Y-72026819D02*
X181679952Y-72169676D01*
X181679952Y-72169676D02*
X181584714Y-72264914D01*
X181584714Y-72264914D02*
X181489476Y-72312533D01*
X169963180Y-88265095D02*
X169153657Y-88265095D01*
X169153657Y-88265095D02*
X169058419Y-88312714D01*
X169058419Y-88312714D02*
X169010800Y-88360333D01*
X169010800Y-88360333D02*
X168963180Y-88455571D01*
X168963180Y-88455571D02*
X168963180Y-88646047D01*
X168963180Y-88646047D02*
X169010800Y-88741285D01*
X169010800Y-88741285D02*
X169058419Y-88788904D01*
X169058419Y-88788904D02*
X169153657Y-88836523D01*
X169153657Y-88836523D02*
X169963180Y-88836523D01*
X169963180Y-89217476D02*
X169963180Y-89836523D01*
X169963180Y-89836523D02*
X169582228Y-89503190D01*
X169582228Y-89503190D02*
X169582228Y-89646047D01*
X169582228Y-89646047D02*
X169534609Y-89741285D01*
X169534609Y-89741285D02*
X169486990Y-89788904D01*
X169486990Y-89788904D02*
X169391752Y-89836523D01*
X169391752Y-89836523D02*
X169153657Y-89836523D01*
X169153657Y-89836523D02*
X169058419Y-89788904D01*
X169058419Y-89788904D02*
X169010800Y-89741285D01*
X169010800Y-89741285D02*
X168963180Y-89646047D01*
X168963180Y-89646047D02*
X168963180Y-89360333D01*
X168963180Y-89360333D02*
X169010800Y-89265095D01*
X169010800Y-89265095D02*
X169058419Y-89217476D01*
X175651180Y-84328000D02*
X175413085Y-84328000D01*
X175508323Y-84089905D02*
X175413085Y-84328000D01*
X175413085Y-84328000D02*
X175508323Y-84566095D01*
X175222609Y-84185143D02*
X175413085Y-84328000D01*
X175413085Y-84328000D02*
X175222609Y-84470857D01*
X174206819Y-84327999D02*
X174444914Y-84327999D01*
X174349676Y-84566094D02*
X174444914Y-84327999D01*
X174444914Y-84327999D02*
X174349676Y-84089904D01*
X174635390Y-84470856D02*
X174444914Y-84327999D01*
X174444914Y-84327999D02*
X174635390Y-84185142D01*
X169782819Y-128246094D02*
X168782819Y-128246094D01*
X168782819Y-128246094D02*
X168782819Y-128007999D01*
X168782819Y-128007999D02*
X168830438Y-127865142D01*
X168830438Y-127865142D02*
X168925676Y-127769904D01*
X168925676Y-127769904D02*
X169020914Y-127722285D01*
X169020914Y-127722285D02*
X169211390Y-127674666D01*
X169211390Y-127674666D02*
X169354247Y-127674666D01*
X169354247Y-127674666D02*
X169544723Y-127722285D01*
X169544723Y-127722285D02*
X169639961Y-127769904D01*
X169639961Y-127769904D02*
X169735200Y-127865142D01*
X169735200Y-127865142D02*
X169782819Y-128007999D01*
X169782819Y-128007999D02*
X169782819Y-128246094D01*
X168878057Y-127293713D02*
X168830438Y-127246094D01*
X168830438Y-127246094D02*
X168782819Y-127150856D01*
X168782819Y-127150856D02*
X168782819Y-126912761D01*
X168782819Y-126912761D02*
X168830438Y-126817523D01*
X168830438Y-126817523D02*
X168878057Y-126769904D01*
X168878057Y-126769904D02*
X168973295Y-126722285D01*
X168973295Y-126722285D02*
X169068533Y-126722285D01*
X169068533Y-126722285D02*
X169211390Y-126769904D01*
X169211390Y-126769904D02*
X169782819Y-127341332D01*
X169782819Y-127341332D02*
X169782819Y-126722285D01*
X168662819Y-120149904D02*
X167662819Y-120149904D01*
X168662819Y-119578476D02*
X168091390Y-120007047D01*
X167662819Y-119578476D02*
X168234247Y-120149904D01*
X177619819Y-76938094D02*
X176619819Y-76938094D01*
X176619819Y-76938094D02*
X176619819Y-76699999D01*
X176619819Y-76699999D02*
X176667438Y-76557142D01*
X176667438Y-76557142D02*
X176762676Y-76461904D01*
X176762676Y-76461904D02*
X176857914Y-76414285D01*
X176857914Y-76414285D02*
X177048390Y-76366666D01*
X177048390Y-76366666D02*
X177191247Y-76366666D01*
X177191247Y-76366666D02*
X177381723Y-76414285D01*
X177381723Y-76414285D02*
X177476961Y-76461904D01*
X177476961Y-76461904D02*
X177572200Y-76557142D01*
X177572200Y-76557142D02*
X177619819Y-76699999D01*
X177619819Y-76699999D02*
X177619819Y-76938094D01*
X176953152Y-75509523D02*
X177619819Y-75509523D01*
X176572200Y-75747618D02*
X177286485Y-75985713D01*
X177286485Y-75985713D02*
X177286485Y-75366666D01*
X179538333Y-112119580D02*
X179490714Y-112167200D01*
X179490714Y-112167200D02*
X179347857Y-112214819D01*
X179347857Y-112214819D02*
X179252619Y-112214819D01*
X179252619Y-112214819D02*
X179109762Y-112167200D01*
X179109762Y-112167200D02*
X179014524Y-112071961D01*
X179014524Y-112071961D02*
X178966905Y-111976723D01*
X178966905Y-111976723D02*
X178919286Y-111786247D01*
X178919286Y-111786247D02*
X178919286Y-111643390D01*
X178919286Y-111643390D02*
X178966905Y-111452914D01*
X178966905Y-111452914D02*
X179014524Y-111357676D01*
X179014524Y-111357676D02*
X179109762Y-111262438D01*
X179109762Y-111262438D02*
X179252619Y-111214819D01*
X179252619Y-111214819D02*
X179347857Y-111214819D01*
X179347857Y-111214819D02*
X179490714Y-111262438D01*
X179490714Y-111262438D02*
X179538333Y-111310057D01*
X180109762Y-111643390D02*
X180014524Y-111595771D01*
X180014524Y-111595771D02*
X179966905Y-111548152D01*
X179966905Y-111548152D02*
X179919286Y-111452914D01*
X179919286Y-111452914D02*
X179919286Y-111405295D01*
X179919286Y-111405295D02*
X179966905Y-111310057D01*
X179966905Y-111310057D02*
X180014524Y-111262438D01*
X180014524Y-111262438D02*
X180109762Y-111214819D01*
X180109762Y-111214819D02*
X180300238Y-111214819D01*
X180300238Y-111214819D02*
X180395476Y-111262438D01*
X180395476Y-111262438D02*
X180443095Y-111310057D01*
X180443095Y-111310057D02*
X180490714Y-111405295D01*
X180490714Y-111405295D02*
X180490714Y-111452914D01*
X180490714Y-111452914D02*
X180443095Y-111548152D01*
X180443095Y-111548152D02*
X180395476Y-111595771D01*
X180395476Y-111595771D02*
X180300238Y-111643390D01*
X180300238Y-111643390D02*
X180109762Y-111643390D01*
X180109762Y-111643390D02*
X180014524Y-111691009D01*
X180014524Y-111691009D02*
X179966905Y-111738628D01*
X179966905Y-111738628D02*
X179919286Y-111833866D01*
X179919286Y-111833866D02*
X179919286Y-112024342D01*
X179919286Y-112024342D02*
X179966905Y-112119580D01*
X179966905Y-112119580D02*
X180014524Y-112167200D01*
X180014524Y-112167200D02*
X180109762Y-112214819D01*
X180109762Y-112214819D02*
X180300238Y-112214819D01*
X180300238Y-112214819D02*
X180395476Y-112167200D01*
X180395476Y-112167200D02*
X180443095Y-112119580D01*
X180443095Y-112119580D02*
X180490714Y-112024342D01*
X180490714Y-112024342D02*
X180490714Y-111833866D01*
X180490714Y-111833866D02*
X180443095Y-111738628D01*
X180443095Y-111738628D02*
X180395476Y-111691009D01*
X180395476Y-111691009D02*
X180300238Y-111643390D01*
X205650819Y-91584094D02*
X204650819Y-91584094D01*
X204650819Y-91584094D02*
X204650819Y-91345999D01*
X204650819Y-91345999D02*
X204698438Y-91203142D01*
X204698438Y-91203142D02*
X204793676Y-91107904D01*
X204793676Y-91107904D02*
X204888914Y-91060285D01*
X204888914Y-91060285D02*
X205079390Y-91012666D01*
X205079390Y-91012666D02*
X205222247Y-91012666D01*
X205222247Y-91012666D02*
X205412723Y-91060285D01*
X205412723Y-91060285D02*
X205507961Y-91107904D01*
X205507961Y-91107904D02*
X205603200Y-91203142D01*
X205603200Y-91203142D02*
X205650819Y-91345999D01*
X205650819Y-91345999D02*
X205650819Y-91584094D01*
X205650819Y-90536475D02*
X205650819Y-90345999D01*
X205650819Y-90345999D02*
X205603200Y-90250761D01*
X205603200Y-90250761D02*
X205555580Y-90203142D01*
X205555580Y-90203142D02*
X205412723Y-90107904D01*
X205412723Y-90107904D02*
X205222247Y-90060285D01*
X205222247Y-90060285D02*
X204841295Y-90060285D01*
X204841295Y-90060285D02*
X204746057Y-90107904D01*
X204746057Y-90107904D02*
X204698438Y-90155523D01*
X204698438Y-90155523D02*
X204650819Y-90250761D01*
X204650819Y-90250761D02*
X204650819Y-90441237D01*
X204650819Y-90441237D02*
X204698438Y-90536475D01*
X204698438Y-90536475D02*
X204746057Y-90584094D01*
X204746057Y-90584094D02*
X204841295Y-90631713D01*
X204841295Y-90631713D02*
X205079390Y-90631713D01*
X205079390Y-90631713D02*
X205174628Y-90584094D01*
X205174628Y-90584094D02*
X205222247Y-90536475D01*
X205222247Y-90536475D02*
X205269866Y-90441237D01*
X205269866Y-90441237D02*
X205269866Y-90250761D01*
X205269866Y-90250761D02*
X205222247Y-90155523D01*
X205222247Y-90155523D02*
X205174628Y-90107904D01*
X205174628Y-90107904D02*
X205079390Y-90060285D01*
X136176666Y-72901819D02*
X135843333Y-72425628D01*
X135605238Y-72901819D02*
X135605238Y-71901819D01*
X135605238Y-71901819D02*
X135986190Y-71901819D01*
X135986190Y-71901819D02*
X136081428Y-71949438D01*
X136081428Y-71949438D02*
X136129047Y-71997057D01*
X136129047Y-71997057D02*
X136176666Y-72092295D01*
X136176666Y-72092295D02*
X136176666Y-72235152D01*
X136176666Y-72235152D02*
X136129047Y-72330390D01*
X136129047Y-72330390D02*
X136081428Y-72378009D01*
X136081428Y-72378009D02*
X135986190Y-72425628D01*
X135986190Y-72425628D02*
X135605238Y-72425628D01*
X136605238Y-72378009D02*
X136938571Y-72378009D01*
X137081428Y-72901819D02*
X136605238Y-72901819D01*
X136605238Y-72901819D02*
X136605238Y-71901819D01*
X136605238Y-71901819D02*
X137081428Y-71901819D01*
X137843333Y-72378009D02*
X137510000Y-72378009D01*
X137510000Y-72901819D02*
X137510000Y-71901819D01*
X137510000Y-71901819D02*
X137986190Y-71901819D01*
X138510000Y-71901819D02*
X138510000Y-72139914D01*
X138271905Y-72044676D02*
X138510000Y-72139914D01*
X138510000Y-72139914D02*
X138748095Y-72044676D01*
X138367143Y-72330390D02*
X138510000Y-72139914D01*
X138510000Y-72139914D02*
X138652857Y-72330390D01*
X139271905Y-71901819D02*
X139271905Y-72139914D01*
X139033810Y-72044676D02*
X139271905Y-72139914D01*
X139271905Y-72139914D02*
X139510000Y-72044676D01*
X139129048Y-72330390D02*
X139271905Y-72139914D01*
X139271905Y-72139914D02*
X139414762Y-72330390D01*
X190658761Y-103420057D02*
X190563523Y-103372438D01*
X190563523Y-103372438D02*
X190468285Y-103277200D01*
X190468285Y-103277200D02*
X190325428Y-103134342D01*
X190325428Y-103134342D02*
X190230190Y-103086723D01*
X190230190Y-103086723D02*
X190134952Y-103086723D01*
X190182571Y-103324819D02*
X190087333Y-103277200D01*
X190087333Y-103277200D02*
X189992095Y-103181961D01*
X189992095Y-103181961D02*
X189944476Y-102991485D01*
X189944476Y-102991485D02*
X189944476Y-102658152D01*
X189944476Y-102658152D02*
X189992095Y-102467676D01*
X189992095Y-102467676D02*
X190087333Y-102372438D01*
X190087333Y-102372438D02*
X190182571Y-102324819D01*
X190182571Y-102324819D02*
X190373047Y-102324819D01*
X190373047Y-102324819D02*
X190468285Y-102372438D01*
X190468285Y-102372438D02*
X190563523Y-102467676D01*
X190563523Y-102467676D02*
X190611142Y-102658152D01*
X190611142Y-102658152D02*
X190611142Y-102991485D01*
X190611142Y-102991485D02*
X190563523Y-103181961D01*
X190563523Y-103181961D02*
X190468285Y-103277200D01*
X190468285Y-103277200D02*
X190373047Y-103324819D01*
X190373047Y-103324819D02*
X190182571Y-103324819D01*
X191563523Y-103324819D02*
X190992095Y-103324819D01*
X191277809Y-103324819D02*
X191277809Y-102324819D01*
X191277809Y-102324819D02*
X191182571Y-102467676D01*
X191182571Y-102467676D02*
X191087333Y-102562914D01*
X191087333Y-102562914D02*
X190992095Y-102610533D01*
X152995333Y-90709819D02*
X152662000Y-90233628D01*
X152423905Y-90709819D02*
X152423905Y-89709819D01*
X152423905Y-89709819D02*
X152804857Y-89709819D01*
X152804857Y-89709819D02*
X152900095Y-89757438D01*
X152900095Y-89757438D02*
X152947714Y-89805057D01*
X152947714Y-89805057D02*
X152995333Y-89900295D01*
X152995333Y-89900295D02*
X152995333Y-90043152D01*
X152995333Y-90043152D02*
X152947714Y-90138390D01*
X152947714Y-90138390D02*
X152900095Y-90186009D01*
X152900095Y-90186009D02*
X152804857Y-90233628D01*
X152804857Y-90233628D02*
X152423905Y-90233628D01*
X153471524Y-90709819D02*
X153662000Y-90709819D01*
X153662000Y-90709819D02*
X153757238Y-90662200D01*
X153757238Y-90662200D02*
X153804857Y-90614580D01*
X153804857Y-90614580D02*
X153900095Y-90471723D01*
X153900095Y-90471723D02*
X153947714Y-90281247D01*
X153947714Y-90281247D02*
X153947714Y-89900295D01*
X153947714Y-89900295D02*
X153900095Y-89805057D01*
X153900095Y-89805057D02*
X153852476Y-89757438D01*
X153852476Y-89757438D02*
X153757238Y-89709819D01*
X153757238Y-89709819D02*
X153566762Y-89709819D01*
X153566762Y-89709819D02*
X153471524Y-89757438D01*
X153471524Y-89757438D02*
X153423905Y-89805057D01*
X153423905Y-89805057D02*
X153376286Y-89900295D01*
X153376286Y-89900295D02*
X153376286Y-90138390D01*
X153376286Y-90138390D02*
X153423905Y-90233628D01*
X153423905Y-90233628D02*
X153471524Y-90281247D01*
X153471524Y-90281247D02*
X153566762Y-90328866D01*
X153566762Y-90328866D02*
X153757238Y-90328866D01*
X153757238Y-90328866D02*
X153852476Y-90281247D01*
X153852476Y-90281247D02*
X153900095Y-90233628D01*
X153900095Y-90233628D02*
X153947714Y-90138390D01*
X174174405Y-131867319D02*
X174174405Y-130867319D01*
X174174405Y-130867319D02*
X174412500Y-130867319D01*
X174412500Y-130867319D02*
X174555357Y-130914938D01*
X174555357Y-130914938D02*
X174650595Y-131010176D01*
X174650595Y-131010176D02*
X174698214Y-131105414D01*
X174698214Y-131105414D02*
X174745833Y-131295890D01*
X174745833Y-131295890D02*
X174745833Y-131438747D01*
X174745833Y-131438747D02*
X174698214Y-131629223D01*
X174698214Y-131629223D02*
X174650595Y-131724461D01*
X174650595Y-131724461D02*
X174555357Y-131819700D01*
X174555357Y-131819700D02*
X174412500Y-131867319D01*
X174412500Y-131867319D02*
X174174405Y-131867319D01*
X175079167Y-130867319D02*
X175698214Y-130867319D01*
X175698214Y-130867319D02*
X175364881Y-131248271D01*
X175364881Y-131248271D02*
X175507738Y-131248271D01*
X175507738Y-131248271D02*
X175602976Y-131295890D01*
X175602976Y-131295890D02*
X175650595Y-131343509D01*
X175650595Y-131343509D02*
X175698214Y-131438747D01*
X175698214Y-131438747D02*
X175698214Y-131676842D01*
X175698214Y-131676842D02*
X175650595Y-131772080D01*
X175650595Y-131772080D02*
X175602976Y-131819700D01*
X175602976Y-131819700D02*
X175507738Y-131867319D01*
X175507738Y-131867319D02*
X175222024Y-131867319D01*
X175222024Y-131867319D02*
X175126786Y-131819700D01*
X175126786Y-131819700D02*
X175079167Y-131772080D01*
X205396819Y-99544094D02*
X204396819Y-99544094D01*
X204396819Y-99544094D02*
X204396819Y-99305999D01*
X204396819Y-99305999D02*
X204444438Y-99163142D01*
X204444438Y-99163142D02*
X204539676Y-99067904D01*
X204539676Y-99067904D02*
X204634914Y-99020285D01*
X204634914Y-99020285D02*
X204825390Y-98972666D01*
X204825390Y-98972666D02*
X204968247Y-98972666D01*
X204968247Y-98972666D02*
X205158723Y-99020285D01*
X205158723Y-99020285D02*
X205253961Y-99067904D01*
X205253961Y-99067904D02*
X205349200Y-99163142D01*
X205349200Y-99163142D02*
X205396819Y-99305999D01*
X205396819Y-99305999D02*
X205396819Y-99544094D01*
X204825390Y-98401237D02*
X204777771Y-98496475D01*
X204777771Y-98496475D02*
X204730152Y-98544094D01*
X204730152Y-98544094D02*
X204634914Y-98591713D01*
X204634914Y-98591713D02*
X204587295Y-98591713D01*
X204587295Y-98591713D02*
X204492057Y-98544094D01*
X204492057Y-98544094D02*
X204444438Y-98496475D01*
X204444438Y-98496475D02*
X204396819Y-98401237D01*
X204396819Y-98401237D02*
X204396819Y-98210761D01*
X204396819Y-98210761D02*
X204444438Y-98115523D01*
X204444438Y-98115523D02*
X204492057Y-98067904D01*
X204492057Y-98067904D02*
X204587295Y-98020285D01*
X204587295Y-98020285D02*
X204634914Y-98020285D01*
X204634914Y-98020285D02*
X204730152Y-98067904D01*
X204730152Y-98067904D02*
X204777771Y-98115523D01*
X204777771Y-98115523D02*
X204825390Y-98210761D01*
X204825390Y-98210761D02*
X204825390Y-98401237D01*
X204825390Y-98401237D02*
X204873009Y-98496475D01*
X204873009Y-98496475D02*
X204920628Y-98544094D01*
X204920628Y-98544094D02*
X205015866Y-98591713D01*
X205015866Y-98591713D02*
X205206342Y-98591713D01*
X205206342Y-98591713D02*
X205301580Y-98544094D01*
X205301580Y-98544094D02*
X205349200Y-98496475D01*
X205349200Y-98496475D02*
X205396819Y-98401237D01*
X205396819Y-98401237D02*
X205396819Y-98210761D01*
X205396819Y-98210761D02*
X205349200Y-98115523D01*
X205349200Y-98115523D02*
X205301580Y-98067904D01*
X205301580Y-98067904D02*
X205206342Y-98020285D01*
X205206342Y-98020285D02*
X205015866Y-98020285D01*
X205015866Y-98020285D02*
X204920628Y-98067904D01*
X204920628Y-98067904D02*
X204873009Y-98115523D01*
X204873009Y-98115523D02*
X204825390Y-98210761D01*
X165333333Y-108579580D02*
X165285714Y-108627200D01*
X165285714Y-108627200D02*
X165142857Y-108674819D01*
X165142857Y-108674819D02*
X165047619Y-108674819D01*
X165047619Y-108674819D02*
X164904762Y-108627200D01*
X164904762Y-108627200D02*
X164809524Y-108531961D01*
X164809524Y-108531961D02*
X164761905Y-108436723D01*
X164761905Y-108436723D02*
X164714286Y-108246247D01*
X164714286Y-108246247D02*
X164714286Y-108103390D01*
X164714286Y-108103390D02*
X164761905Y-107912914D01*
X164761905Y-107912914D02*
X164809524Y-107817676D01*
X164809524Y-107817676D02*
X164904762Y-107722438D01*
X164904762Y-107722438D02*
X165047619Y-107674819D01*
X165047619Y-107674819D02*
X165142857Y-107674819D01*
X165142857Y-107674819D02*
X165285714Y-107722438D01*
X165285714Y-107722438D02*
X165333333Y-107770057D01*
X166190476Y-107674819D02*
X166000000Y-107674819D01*
X166000000Y-107674819D02*
X165904762Y-107722438D01*
X165904762Y-107722438D02*
X165857143Y-107770057D01*
X165857143Y-107770057D02*
X165761905Y-107912914D01*
X165761905Y-107912914D02*
X165714286Y-108103390D01*
X165714286Y-108103390D02*
X165714286Y-108484342D01*
X165714286Y-108484342D02*
X165761905Y-108579580D01*
X165761905Y-108579580D02*
X165809524Y-108627200D01*
X165809524Y-108627200D02*
X165904762Y-108674819D01*
X165904762Y-108674819D02*
X166095238Y-108674819D01*
X166095238Y-108674819D02*
X166190476Y-108627200D01*
X166190476Y-108627200D02*
X166238095Y-108579580D01*
X166238095Y-108579580D02*
X166285714Y-108484342D01*
X166285714Y-108484342D02*
X166285714Y-108246247D01*
X166285714Y-108246247D02*
X166238095Y-108151009D01*
X166238095Y-108151009D02*
X166190476Y-108103390D01*
X166190476Y-108103390D02*
X166095238Y-108055771D01*
X166095238Y-108055771D02*
X165904762Y-108055771D01*
X165904762Y-108055771D02*
X165809524Y-108103390D01*
X165809524Y-108103390D02*
X165761905Y-108151009D01*
X165761905Y-108151009D02*
X165714286Y-108246247D01*
X152519142Y-84105819D02*
X152185809Y-83629628D01*
X151947714Y-84105819D02*
X151947714Y-83105819D01*
X151947714Y-83105819D02*
X152328666Y-83105819D01*
X152328666Y-83105819D02*
X152423904Y-83153438D01*
X152423904Y-83153438D02*
X152471523Y-83201057D01*
X152471523Y-83201057D02*
X152519142Y-83296295D01*
X152519142Y-83296295D02*
X152519142Y-83439152D01*
X152519142Y-83439152D02*
X152471523Y-83534390D01*
X152471523Y-83534390D02*
X152423904Y-83582009D01*
X152423904Y-83582009D02*
X152328666Y-83629628D01*
X152328666Y-83629628D02*
X151947714Y-83629628D01*
X153471523Y-84105819D02*
X152900095Y-84105819D01*
X153185809Y-84105819D02*
X153185809Y-83105819D01*
X153185809Y-83105819D02*
X153090571Y-83248676D01*
X153090571Y-83248676D02*
X152995333Y-83343914D01*
X152995333Y-83343914D02*
X152900095Y-83391533D01*
X154090571Y-83105819D02*
X154185809Y-83105819D01*
X154185809Y-83105819D02*
X154281047Y-83153438D01*
X154281047Y-83153438D02*
X154328666Y-83201057D01*
X154328666Y-83201057D02*
X154376285Y-83296295D01*
X154376285Y-83296295D02*
X154423904Y-83486771D01*
X154423904Y-83486771D02*
X154423904Y-83724866D01*
X154423904Y-83724866D02*
X154376285Y-83915342D01*
X154376285Y-83915342D02*
X154328666Y-84010580D01*
X154328666Y-84010580D02*
X154281047Y-84058200D01*
X154281047Y-84058200D02*
X154185809Y-84105819D01*
X154185809Y-84105819D02*
X154090571Y-84105819D01*
X154090571Y-84105819D02*
X153995333Y-84058200D01*
X153995333Y-84058200D02*
X153947714Y-84010580D01*
X153947714Y-84010580D02*
X153900095Y-83915342D01*
X153900095Y-83915342D02*
X153852476Y-83724866D01*
X153852476Y-83724866D02*
X153852476Y-83486771D01*
X153852476Y-83486771D02*
X153900095Y-83296295D01*
X153900095Y-83296295D02*
X153947714Y-83201057D01*
X153947714Y-83201057D02*
X153995333Y-83153438D01*
X153995333Y-83153438D02*
X154090571Y-83105819D01*
X184269142Y-100234819D02*
X183935809Y-99758628D01*
X183697714Y-100234819D02*
X183697714Y-99234819D01*
X183697714Y-99234819D02*
X184078666Y-99234819D01*
X184078666Y-99234819D02*
X184173904Y-99282438D01*
X184173904Y-99282438D02*
X184221523Y-99330057D01*
X184221523Y-99330057D02*
X184269142Y-99425295D01*
X184269142Y-99425295D02*
X184269142Y-99568152D01*
X184269142Y-99568152D02*
X184221523Y-99663390D01*
X184221523Y-99663390D02*
X184173904Y-99711009D01*
X184173904Y-99711009D02*
X184078666Y-99758628D01*
X184078666Y-99758628D02*
X183697714Y-99758628D01*
X185221523Y-100234819D02*
X184650095Y-100234819D01*
X184935809Y-100234819D02*
X184935809Y-99234819D01*
X184935809Y-99234819D02*
X184840571Y-99377676D01*
X184840571Y-99377676D02*
X184745333Y-99472914D01*
X184745333Y-99472914D02*
X184650095Y-99520533D01*
X186078666Y-99568152D02*
X186078666Y-100234819D01*
X185840571Y-99187200D02*
X185602476Y-99901485D01*
X185602476Y-99901485D02*
X186221523Y-99901485D01*
X152883333Y-78435580D02*
X152835714Y-78483200D01*
X152835714Y-78483200D02*
X152692857Y-78530819D01*
X152692857Y-78530819D02*
X152597619Y-78530819D01*
X152597619Y-78530819D02*
X152454762Y-78483200D01*
X152454762Y-78483200D02*
X152359524Y-78387961D01*
X152359524Y-78387961D02*
X152311905Y-78292723D01*
X152311905Y-78292723D02*
X152264286Y-78102247D01*
X152264286Y-78102247D02*
X152264286Y-77959390D01*
X152264286Y-77959390D02*
X152311905Y-77768914D01*
X152311905Y-77768914D02*
X152359524Y-77673676D01*
X152359524Y-77673676D02*
X152454762Y-77578438D01*
X152454762Y-77578438D02*
X152597619Y-77530819D01*
X152597619Y-77530819D02*
X152692857Y-77530819D01*
X152692857Y-77530819D02*
X152835714Y-77578438D01*
X152835714Y-77578438D02*
X152883333Y-77626057D01*
X153788095Y-77530819D02*
X153311905Y-77530819D01*
X153311905Y-77530819D02*
X153264286Y-78007009D01*
X153264286Y-78007009D02*
X153311905Y-77959390D01*
X153311905Y-77959390D02*
X153407143Y-77911771D01*
X153407143Y-77911771D02*
X153645238Y-77911771D01*
X153645238Y-77911771D02*
X153740476Y-77959390D01*
X153740476Y-77959390D02*
X153788095Y-78007009D01*
X153788095Y-78007009D02*
X153835714Y-78102247D01*
X153835714Y-78102247D02*
X153835714Y-78340342D01*
X153835714Y-78340342D02*
X153788095Y-78435580D01*
X153788095Y-78435580D02*
X153740476Y-78483200D01*
X153740476Y-78483200D02*
X153645238Y-78530819D01*
X153645238Y-78530819D02*
X153407143Y-78530819D01*
X153407143Y-78530819D02*
X153311905Y-78483200D01*
X153311905Y-78483200D02*
X153264286Y-78435580D01*
X204924819Y-104878094D02*
X203924819Y-104878094D01*
X203924819Y-104878094D02*
X203924819Y-104639999D01*
X203924819Y-104639999D02*
X203972438Y-104497142D01*
X203972438Y-104497142D02*
X204067676Y-104401904D01*
X204067676Y-104401904D02*
X204162914Y-104354285D01*
X204162914Y-104354285D02*
X204353390Y-104306666D01*
X204353390Y-104306666D02*
X204496247Y-104306666D01*
X204496247Y-104306666D02*
X204686723Y-104354285D01*
X204686723Y-104354285D02*
X204781961Y-104401904D01*
X204781961Y-104401904D02*
X204877200Y-104497142D01*
X204877200Y-104497142D02*
X204924819Y-104639999D01*
X204924819Y-104639999D02*
X204924819Y-104878094D01*
X203924819Y-103973332D02*
X203924819Y-103306666D01*
X203924819Y-103306666D02*
X204924819Y-103735237D01*
X186833333Y-89384819D02*
X186500000Y-88908628D01*
X186261905Y-89384819D02*
X186261905Y-88384819D01*
X186261905Y-88384819D02*
X186642857Y-88384819D01*
X186642857Y-88384819D02*
X186738095Y-88432438D01*
X186738095Y-88432438D02*
X186785714Y-88480057D01*
X186785714Y-88480057D02*
X186833333Y-88575295D01*
X186833333Y-88575295D02*
X186833333Y-88718152D01*
X186833333Y-88718152D02*
X186785714Y-88813390D01*
X186785714Y-88813390D02*
X186738095Y-88861009D01*
X186738095Y-88861009D02*
X186642857Y-88908628D01*
X186642857Y-88908628D02*
X186261905Y-88908628D01*
X187166667Y-88384819D02*
X187833333Y-88384819D01*
X187833333Y-88384819D02*
X187404762Y-89384819D01*
X178957142Y-135337319D02*
X178623809Y-134861128D01*
X178385714Y-135337319D02*
X178385714Y-134337319D01*
X178385714Y-134337319D02*
X178766666Y-134337319D01*
X178766666Y-134337319D02*
X178861904Y-134384938D01*
X178861904Y-134384938D02*
X178909523Y-134432557D01*
X178909523Y-134432557D02*
X178957142Y-134527795D01*
X178957142Y-134527795D02*
X178957142Y-134670652D01*
X178957142Y-134670652D02*
X178909523Y-134765890D01*
X178909523Y-134765890D02*
X178861904Y-134813509D01*
X178861904Y-134813509D02*
X178766666Y-134861128D01*
X178766666Y-134861128D02*
X178385714Y-134861128D01*
X179909523Y-135337319D02*
X179338095Y-135337319D01*
X179623809Y-135337319D02*
X179623809Y-134337319D01*
X179623809Y-134337319D02*
X179528571Y-134480176D01*
X179528571Y-134480176D02*
X179433333Y-134575414D01*
X179433333Y-134575414D02*
X179338095Y-134623033D01*
X180861904Y-135337319D02*
X180290476Y-135337319D01*
X180576190Y-135337319D02*
X180576190Y-134337319D01*
X180576190Y-134337319D02*
X180480952Y-134480176D01*
X180480952Y-134480176D02*
X180385714Y-134575414D01*
X180385714Y-134575414D02*
X180290476Y-134623033D01*
X191039761Y-95800057D02*
X190944523Y-95752438D01*
X190944523Y-95752438D02*
X190849285Y-95657200D01*
X190849285Y-95657200D02*
X190706428Y-95514342D01*
X190706428Y-95514342D02*
X190611190Y-95466723D01*
X190611190Y-95466723D02*
X190515952Y-95466723D01*
X190563571Y-95704819D02*
X190468333Y-95657200D01*
X190468333Y-95657200D02*
X190373095Y-95561961D01*
X190373095Y-95561961D02*
X190325476Y-95371485D01*
X190325476Y-95371485D02*
X190325476Y-95038152D01*
X190325476Y-95038152D02*
X190373095Y-94847676D01*
X190373095Y-94847676D02*
X190468333Y-94752438D01*
X190468333Y-94752438D02*
X190563571Y-94704819D01*
X190563571Y-94704819D02*
X190754047Y-94704819D01*
X190754047Y-94704819D02*
X190849285Y-94752438D01*
X190849285Y-94752438D02*
X190944523Y-94847676D01*
X190944523Y-94847676D02*
X190992142Y-95038152D01*
X190992142Y-95038152D02*
X190992142Y-95371485D01*
X190992142Y-95371485D02*
X190944523Y-95561961D01*
X190944523Y-95561961D02*
X190849285Y-95657200D01*
X190849285Y-95657200D02*
X190754047Y-95704819D01*
X190754047Y-95704819D02*
X190563571Y-95704819D01*
X191373095Y-94800057D02*
X191420714Y-94752438D01*
X191420714Y-94752438D02*
X191515952Y-94704819D01*
X191515952Y-94704819D02*
X191754047Y-94704819D01*
X191754047Y-94704819D02*
X191849285Y-94752438D01*
X191849285Y-94752438D02*
X191896904Y-94800057D01*
X191896904Y-94800057D02*
X191944523Y-94895295D01*
X191944523Y-94895295D02*
X191944523Y-94990533D01*
X191944523Y-94990533D02*
X191896904Y-95133390D01*
X191896904Y-95133390D02*
X191325476Y-95704819D01*
X191325476Y-95704819D02*
X191944523Y-95704819D01*
X201580819Y-109608857D02*
X201104628Y-109942190D01*
X201580819Y-110180285D02*
X200580819Y-110180285D01*
X200580819Y-110180285D02*
X200580819Y-109799333D01*
X200580819Y-109799333D02*
X200628438Y-109704095D01*
X200628438Y-109704095D02*
X200676057Y-109656476D01*
X200676057Y-109656476D02*
X200771295Y-109608857D01*
X200771295Y-109608857D02*
X200914152Y-109608857D01*
X200914152Y-109608857D02*
X201009390Y-109656476D01*
X201009390Y-109656476D02*
X201057009Y-109704095D01*
X201057009Y-109704095D02*
X201104628Y-109799333D01*
X201104628Y-109799333D02*
X201104628Y-110180285D01*
X201580819Y-108656476D02*
X201580819Y-109227904D01*
X201580819Y-108942190D02*
X200580819Y-108942190D01*
X200580819Y-108942190D02*
X200723676Y-109037428D01*
X200723676Y-109037428D02*
X200818914Y-109132666D01*
X200818914Y-109132666D02*
X200866533Y-109227904D01*
X200580819Y-107799333D02*
X200580819Y-107989809D01*
X200580819Y-107989809D02*
X200628438Y-108085047D01*
X200628438Y-108085047D02*
X200676057Y-108132666D01*
X200676057Y-108132666D02*
X200818914Y-108227904D01*
X200818914Y-108227904D02*
X201009390Y-108275523D01*
X201009390Y-108275523D02*
X201390342Y-108275523D01*
X201390342Y-108275523D02*
X201485580Y-108227904D01*
X201485580Y-108227904D02*
X201533200Y-108180285D01*
X201533200Y-108180285D02*
X201580819Y-108085047D01*
X201580819Y-108085047D02*
X201580819Y-107894571D01*
X201580819Y-107894571D02*
X201533200Y-107799333D01*
X201533200Y-107799333D02*
X201485580Y-107751714D01*
X201485580Y-107751714D02*
X201390342Y-107704095D01*
X201390342Y-107704095D02*
X201152247Y-107704095D01*
X201152247Y-107704095D02*
X201057009Y-107751714D01*
X201057009Y-107751714D02*
X201009390Y-107799333D01*
X201009390Y-107799333D02*
X200961771Y-107894571D01*
X200961771Y-107894571D02*
X200961771Y-108085047D01*
X200961771Y-108085047D02*
X201009390Y-108180285D01*
X201009390Y-108180285D02*
X201057009Y-108227904D01*
X201057009Y-108227904D02*
X201152247Y-108275523D01*
X202612666Y-85604819D02*
X202612666Y-86319104D01*
X202612666Y-86319104D02*
X202565047Y-86461961D01*
X202565047Y-86461961D02*
X202469809Y-86557200D01*
X202469809Y-86557200D02*
X202326952Y-86604819D01*
X202326952Y-86604819D02*
X202231714Y-86604819D01*
X203517428Y-85604819D02*
X203326952Y-85604819D01*
X203326952Y-85604819D02*
X203231714Y-85652438D01*
X203231714Y-85652438D02*
X203184095Y-85700057D01*
X203184095Y-85700057D02*
X203088857Y-85842914D01*
X203088857Y-85842914D02*
X203041238Y-86033390D01*
X203041238Y-86033390D02*
X203041238Y-86414342D01*
X203041238Y-86414342D02*
X203088857Y-86509580D01*
X203088857Y-86509580D02*
X203136476Y-86557200D01*
X203136476Y-86557200D02*
X203231714Y-86604819D01*
X203231714Y-86604819D02*
X203422190Y-86604819D01*
X203422190Y-86604819D02*
X203517428Y-86557200D01*
X203517428Y-86557200D02*
X203565047Y-86509580D01*
X203565047Y-86509580D02*
X203612666Y-86414342D01*
X203612666Y-86414342D02*
X203612666Y-86176247D01*
X203612666Y-86176247D02*
X203565047Y-86081009D01*
X203565047Y-86081009D02*
X203517428Y-86033390D01*
X203517428Y-86033390D02*
X203422190Y-85985771D01*
X203422190Y-85985771D02*
X203231714Y-85985771D01*
X203231714Y-85985771D02*
X203136476Y-86033390D01*
X203136476Y-86033390D02*
X203088857Y-86081009D01*
X203088857Y-86081009D02*
X203041238Y-86176247D01*
X165370833Y-105134819D02*
X165037500Y-104658628D01*
X164799405Y-105134819D02*
X164799405Y-104134819D01*
X164799405Y-104134819D02*
X165180357Y-104134819D01*
X165180357Y-104134819D02*
X165275595Y-104182438D01*
X165275595Y-104182438D02*
X165323214Y-104230057D01*
X165323214Y-104230057D02*
X165370833Y-104325295D01*
X165370833Y-104325295D02*
X165370833Y-104468152D01*
X165370833Y-104468152D02*
X165323214Y-104563390D01*
X165323214Y-104563390D02*
X165275595Y-104611009D01*
X165275595Y-104611009D02*
X165180357Y-104658628D01*
X165180357Y-104658628D02*
X164799405Y-104658628D01*
X166227976Y-104134819D02*
X166037500Y-104134819D01*
X166037500Y-104134819D02*
X165942262Y-104182438D01*
X165942262Y-104182438D02*
X165894643Y-104230057D01*
X165894643Y-104230057D02*
X165799405Y-104372914D01*
X165799405Y-104372914D02*
X165751786Y-104563390D01*
X165751786Y-104563390D02*
X165751786Y-104944342D01*
X165751786Y-104944342D02*
X165799405Y-105039580D01*
X165799405Y-105039580D02*
X165847024Y-105087200D01*
X165847024Y-105087200D02*
X165942262Y-105134819D01*
X165942262Y-105134819D02*
X166132738Y-105134819D01*
X166132738Y-105134819D02*
X166227976Y-105087200D01*
X166227976Y-105087200D02*
X166275595Y-105039580D01*
X166275595Y-105039580D02*
X166323214Y-104944342D01*
X166323214Y-104944342D02*
X166323214Y-104706247D01*
X166323214Y-104706247D02*
X166275595Y-104611009D01*
X166275595Y-104611009D02*
X166227976Y-104563390D01*
X166227976Y-104563390D02*
X166132738Y-104515771D01*
X166132738Y-104515771D02*
X165942262Y-104515771D01*
X165942262Y-104515771D02*
X165847024Y-104563390D01*
X165847024Y-104563390D02*
X165799405Y-104611009D01*
X165799405Y-104611009D02*
X165751786Y-104706247D01*
X139366666Y-135154819D02*
X139033333Y-134678628D01*
X138795238Y-135154819D02*
X138795238Y-134154819D01*
X138795238Y-134154819D02*
X139176190Y-134154819D01*
X139176190Y-134154819D02*
X139271428Y-134202438D01*
X139271428Y-134202438D02*
X139319047Y-134250057D01*
X139319047Y-134250057D02*
X139366666Y-134345295D01*
X139366666Y-134345295D02*
X139366666Y-134488152D01*
X139366666Y-134488152D02*
X139319047Y-134583390D01*
X139319047Y-134583390D02*
X139271428Y-134631009D01*
X139271428Y-134631009D02*
X139176190Y-134678628D01*
X139176190Y-134678628D02*
X138795238Y-134678628D01*
X139795238Y-134631009D02*
X140128571Y-134631009D01*
X140271428Y-135154819D02*
X139795238Y-135154819D01*
X139795238Y-135154819D02*
X139795238Y-134154819D01*
X139795238Y-134154819D02*
X140271428Y-134154819D01*
X141033333Y-134631009D02*
X140700000Y-134631009D01*
X140700000Y-135154819D02*
X140700000Y-134154819D01*
X140700000Y-134154819D02*
X141176190Y-134154819D01*
X141700000Y-134154819D02*
X141700000Y-134392914D01*
X141461905Y-134297676D02*
X141700000Y-134392914D01*
X141700000Y-134392914D02*
X141938095Y-134297676D01*
X141557143Y-134583390D02*
X141700000Y-134392914D01*
X141700000Y-134392914D02*
X141842857Y-134583390D01*
X142461905Y-134154819D02*
X142461905Y-134392914D01*
X142223810Y-134297676D02*
X142461905Y-134392914D01*
X142461905Y-134392914D02*
X142700000Y-134297676D01*
X142319048Y-134583390D02*
X142461905Y-134392914D01*
X142461905Y-134392914D02*
X142604762Y-134583390D01*
X182100819Y-118848094D02*
X181100819Y-118848094D01*
X181100819Y-118848094D02*
X181100819Y-118609999D01*
X181100819Y-118609999D02*
X181148438Y-118467142D01*
X181148438Y-118467142D02*
X181243676Y-118371904D01*
X181243676Y-118371904D02*
X181338914Y-118324285D01*
X181338914Y-118324285D02*
X181529390Y-118276666D01*
X181529390Y-118276666D02*
X181672247Y-118276666D01*
X181672247Y-118276666D02*
X181862723Y-118324285D01*
X181862723Y-118324285D02*
X181957961Y-118371904D01*
X181957961Y-118371904D02*
X182053200Y-118467142D01*
X182053200Y-118467142D02*
X182100819Y-118609999D01*
X182100819Y-118609999D02*
X182100819Y-118848094D01*
X181100819Y-117419523D02*
X181100819Y-117609999D01*
X181100819Y-117609999D02*
X181148438Y-117705237D01*
X181148438Y-117705237D02*
X181196057Y-117752856D01*
X181196057Y-117752856D02*
X181338914Y-117848094D01*
X181338914Y-117848094D02*
X181529390Y-117895713D01*
X181529390Y-117895713D02*
X181910342Y-117895713D01*
X181910342Y-117895713D02*
X182005580Y-117848094D01*
X182005580Y-117848094D02*
X182053200Y-117800475D01*
X182053200Y-117800475D02*
X182100819Y-117705237D01*
X182100819Y-117705237D02*
X182100819Y-117514761D01*
X182100819Y-117514761D02*
X182053200Y-117419523D01*
X182053200Y-117419523D02*
X182005580Y-117371904D01*
X182005580Y-117371904D02*
X181910342Y-117324285D01*
X181910342Y-117324285D02*
X181672247Y-117324285D01*
X181672247Y-117324285D02*
X181577009Y-117371904D01*
X181577009Y-117371904D02*
X181529390Y-117419523D01*
X181529390Y-117419523D02*
X181481771Y-117514761D01*
X181481771Y-117514761D02*
X181481771Y-117705237D01*
X181481771Y-117705237D02*
X181529390Y-117800475D01*
X181529390Y-117800475D02*
X181577009Y-117848094D01*
X181577009Y-117848094D02*
X181672247Y-117895713D01*
X202666666Y-130254819D02*
X202333333Y-129778628D01*
X202095238Y-130254819D02*
X202095238Y-129254819D01*
X202095238Y-129254819D02*
X202476190Y-129254819D01*
X202476190Y-129254819D02*
X202571428Y-129302438D01*
X202571428Y-129302438D02*
X202619047Y-129350057D01*
X202619047Y-129350057D02*
X202666666Y-129445295D01*
X202666666Y-129445295D02*
X202666666Y-129588152D01*
X202666666Y-129588152D02*
X202619047Y-129683390D01*
X202619047Y-129683390D02*
X202571428Y-129731009D01*
X202571428Y-129731009D02*
X202476190Y-129778628D01*
X202476190Y-129778628D02*
X202095238Y-129778628D01*
X203095238Y-129731009D02*
X203428571Y-129731009D01*
X203571428Y-130254819D02*
X203095238Y-130254819D01*
X203095238Y-130254819D02*
X203095238Y-129254819D01*
X203095238Y-129254819D02*
X203571428Y-129254819D01*
X204333333Y-129731009D02*
X204000000Y-129731009D01*
X204000000Y-130254819D02*
X204000000Y-129254819D01*
X204000000Y-129254819D02*
X204476190Y-129254819D01*
X205000000Y-129254819D02*
X205000000Y-129492914D01*
X204761905Y-129397676D02*
X205000000Y-129492914D01*
X205000000Y-129492914D02*
X205238095Y-129397676D01*
X204857143Y-129683390D02*
X205000000Y-129492914D01*
X205000000Y-129492914D02*
X205142857Y-129683390D01*
X205761905Y-129254819D02*
X205761905Y-129492914D01*
X205523810Y-129397676D02*
X205761905Y-129492914D01*
X205761905Y-129492914D02*
X206000000Y-129397676D01*
X205619048Y-129683390D02*
X205761905Y-129492914D01*
X205761905Y-129492914D02*
X205904762Y-129683390D01*
X155623095Y-98994819D02*
X155623095Y-99804342D01*
X155623095Y-99804342D02*
X155670714Y-99899580D01*
X155670714Y-99899580D02*
X155718333Y-99947200D01*
X155718333Y-99947200D02*
X155813571Y-99994819D01*
X155813571Y-99994819D02*
X156004047Y-99994819D01*
X156004047Y-99994819D02*
X156099285Y-99947200D01*
X156099285Y-99947200D02*
X156146904Y-99899580D01*
X156146904Y-99899580D02*
X156194523Y-99804342D01*
X156194523Y-99804342D02*
X156194523Y-98994819D01*
X157194523Y-99994819D02*
X156623095Y-99994819D01*
X156908809Y-99994819D02*
X156908809Y-98994819D01*
X156908809Y-98994819D02*
X156813571Y-99137676D01*
X156813571Y-99137676D02*
X156718333Y-99232914D01*
X156718333Y-99232914D02*
X156623095Y-99280533D01*
X149733095Y-115959819D02*
X149733095Y-116769342D01*
X149733095Y-116769342D02*
X149780714Y-116864580D01*
X149780714Y-116864580D02*
X149828333Y-116912200D01*
X149828333Y-116912200D02*
X149923571Y-116959819D01*
X149923571Y-116959819D02*
X150114047Y-116959819D01*
X150114047Y-116959819D02*
X150209285Y-116912200D01*
X150209285Y-116912200D02*
X150256904Y-116864580D01*
X150256904Y-116864580D02*
X150304523Y-116769342D01*
X150304523Y-116769342D02*
X150304523Y-115959819D01*
X150733095Y-116055057D02*
X150780714Y-116007438D01*
X150780714Y-116007438D02*
X150875952Y-115959819D01*
X150875952Y-115959819D02*
X151114047Y-115959819D01*
X151114047Y-115959819D02*
X151209285Y-116007438D01*
X151209285Y-116007438D02*
X151256904Y-116055057D01*
X151256904Y-116055057D02*
X151304523Y-116150295D01*
X151304523Y-116150295D02*
X151304523Y-116245533D01*
X151304523Y-116245533D02*
X151256904Y-116388390D01*
X151256904Y-116388390D02*
X150685476Y-116959819D01*
X150685476Y-116959819D02*
X151304523Y-116959819D01*
X186047142Y-93799819D02*
X185713809Y-93323628D01*
X185475714Y-93799819D02*
X185475714Y-92799819D01*
X185475714Y-92799819D02*
X185856666Y-92799819D01*
X185856666Y-92799819D02*
X185951904Y-92847438D01*
X185951904Y-92847438D02*
X185999523Y-92895057D01*
X185999523Y-92895057D02*
X186047142Y-92990295D01*
X186047142Y-92990295D02*
X186047142Y-93133152D01*
X186047142Y-93133152D02*
X185999523Y-93228390D01*
X185999523Y-93228390D02*
X185951904Y-93276009D01*
X185951904Y-93276009D02*
X185856666Y-93323628D01*
X185856666Y-93323628D02*
X185475714Y-93323628D01*
X186999523Y-93799819D02*
X186428095Y-93799819D01*
X186713809Y-93799819D02*
X186713809Y-92799819D01*
X186713809Y-92799819D02*
X186618571Y-92942676D01*
X186618571Y-92942676D02*
X186523333Y-93037914D01*
X186523333Y-93037914D02*
X186428095Y-93085533D01*
X187332857Y-92799819D02*
X187999523Y-92799819D01*
X187999523Y-92799819D02*
X187570952Y-93799819D01*
X145802819Y-80851333D02*
X146517104Y-80851333D01*
X146517104Y-80851333D02*
X146659961Y-80898952D01*
X146659961Y-80898952D02*
X146755200Y-80994190D01*
X146755200Y-80994190D02*
X146802819Y-81137047D01*
X146802819Y-81137047D02*
X146802819Y-81232285D01*
X146231390Y-80232285D02*
X146183771Y-80327523D01*
X146183771Y-80327523D02*
X146136152Y-80375142D01*
X146136152Y-80375142D02*
X146040914Y-80422761D01*
X146040914Y-80422761D02*
X145993295Y-80422761D01*
X145993295Y-80422761D02*
X145898057Y-80375142D01*
X145898057Y-80375142D02*
X145850438Y-80327523D01*
X145850438Y-80327523D02*
X145802819Y-80232285D01*
X145802819Y-80232285D02*
X145802819Y-80041809D01*
X145802819Y-80041809D02*
X145850438Y-79946571D01*
X145850438Y-79946571D02*
X145898057Y-79898952D01*
X145898057Y-79898952D02*
X145993295Y-79851333D01*
X145993295Y-79851333D02*
X146040914Y-79851333D01*
X146040914Y-79851333D02*
X146136152Y-79898952D01*
X146136152Y-79898952D02*
X146183771Y-79946571D01*
X146183771Y-79946571D02*
X146231390Y-80041809D01*
X146231390Y-80041809D02*
X146231390Y-80232285D01*
X146231390Y-80232285D02*
X146279009Y-80327523D01*
X146279009Y-80327523D02*
X146326628Y-80375142D01*
X146326628Y-80375142D02*
X146421866Y-80422761D01*
X146421866Y-80422761D02*
X146612342Y-80422761D01*
X146612342Y-80422761D02*
X146707580Y-80375142D01*
X146707580Y-80375142D02*
X146755200Y-80327523D01*
X146755200Y-80327523D02*
X146802819Y-80232285D01*
X146802819Y-80232285D02*
X146802819Y-80041809D01*
X146802819Y-80041809D02*
X146755200Y-79946571D01*
X146755200Y-79946571D02*
X146707580Y-79898952D01*
X146707580Y-79898952D02*
X146612342Y-79851333D01*
X146612342Y-79851333D02*
X146421866Y-79851333D01*
X146421866Y-79851333D02*
X146326628Y-79898952D01*
X146326628Y-79898952D02*
X146279009Y-79946571D01*
X146279009Y-79946571D02*
X146231390Y-80041809D01*
X176759819Y-89138333D02*
X177474104Y-89138333D01*
X177474104Y-89138333D02*
X177616961Y-89185952D01*
X177616961Y-89185952D02*
X177712200Y-89281190D01*
X177712200Y-89281190D02*
X177759819Y-89424047D01*
X177759819Y-89424047D02*
X177759819Y-89519285D01*
X177759819Y-88662142D02*
X176759819Y-88662142D01*
X176759819Y-88662142D02*
X176759819Y-88281190D01*
X176759819Y-88281190D02*
X176807438Y-88185952D01*
X176807438Y-88185952D02*
X176855057Y-88138333D01*
X176855057Y-88138333D02*
X176950295Y-88090714D01*
X176950295Y-88090714D02*
X177093152Y-88090714D01*
X177093152Y-88090714D02*
X177188390Y-88138333D01*
X177188390Y-88138333D02*
X177236009Y-88185952D01*
X177236009Y-88185952D02*
X177283628Y-88281190D01*
X177283628Y-88281190D02*
X177283628Y-88662142D01*
X177759819Y-87138333D02*
X177759819Y-87709761D01*
X177759819Y-87424047D02*
X176759819Y-87424047D01*
X176759819Y-87424047D02*
X176902676Y-87519285D01*
X176902676Y-87519285D02*
X176997914Y-87614523D01*
X176997914Y-87614523D02*
X177045533Y-87709761D01*
X167332819Y-73962857D02*
X166856628Y-74296190D01*
X167332819Y-74534285D02*
X166332819Y-74534285D01*
X166332819Y-74534285D02*
X166332819Y-74153333D01*
X166332819Y-74153333D02*
X166380438Y-74058095D01*
X166380438Y-74058095D02*
X166428057Y-74010476D01*
X166428057Y-74010476D02*
X166523295Y-73962857D01*
X166523295Y-73962857D02*
X166666152Y-73962857D01*
X166666152Y-73962857D02*
X166761390Y-74010476D01*
X166761390Y-74010476D02*
X166809009Y-74058095D01*
X166809009Y-74058095D02*
X166856628Y-74153333D01*
X166856628Y-74153333D02*
X166856628Y-74534285D01*
X167332819Y-73010476D02*
X167332819Y-73581904D01*
X167332819Y-73296190D02*
X166332819Y-73296190D01*
X166332819Y-73296190D02*
X166475676Y-73391428D01*
X166475676Y-73391428D02*
X166570914Y-73486666D01*
X166570914Y-73486666D02*
X166618533Y-73581904D01*
X166428057Y-72629523D02*
X166380438Y-72581904D01*
X166380438Y-72581904D02*
X166332819Y-72486666D01*
X166332819Y-72486666D02*
X166332819Y-72248571D01*
X166332819Y-72248571D02*
X166380438Y-72153333D01*
X166380438Y-72153333D02*
X166428057Y-72105714D01*
X166428057Y-72105714D02*
X166523295Y-72058095D01*
X166523295Y-72058095D02*
X166618533Y-72058095D01*
X166618533Y-72058095D02*
X166761390Y-72105714D01*
X166761390Y-72105714D02*
X167332819Y-72677142D01*
X167332819Y-72677142D02*
X167332819Y-72058095D01*
X192177200Y-86423332D02*
X192224819Y-86280475D01*
X192224819Y-86280475D02*
X192224819Y-86042380D01*
X192224819Y-86042380D02*
X192177200Y-85947142D01*
X192177200Y-85947142D02*
X192129580Y-85899523D01*
X192129580Y-85899523D02*
X192034342Y-85851904D01*
X192034342Y-85851904D02*
X191939104Y-85851904D01*
X191939104Y-85851904D02*
X191843866Y-85899523D01*
X191843866Y-85899523D02*
X191796247Y-85947142D01*
X191796247Y-85947142D02*
X191748628Y-86042380D01*
X191748628Y-86042380D02*
X191701009Y-86232856D01*
X191701009Y-86232856D02*
X191653390Y-86328094D01*
X191653390Y-86328094D02*
X191605771Y-86375713D01*
X191605771Y-86375713D02*
X191510533Y-86423332D01*
X191510533Y-86423332D02*
X191415295Y-86423332D01*
X191415295Y-86423332D02*
X191320057Y-86375713D01*
X191320057Y-86375713D02*
X191272438Y-86328094D01*
X191272438Y-86328094D02*
X191224819Y-86232856D01*
X191224819Y-86232856D02*
X191224819Y-85994761D01*
X191224819Y-85994761D02*
X191272438Y-85851904D01*
X191224819Y-85518570D02*
X192224819Y-85280475D01*
X192224819Y-85280475D02*
X191510533Y-85089999D01*
X191510533Y-85089999D02*
X192224819Y-84899523D01*
X192224819Y-84899523D02*
X191224819Y-84661428D01*
X192224819Y-83756666D02*
X192224819Y-84328094D01*
X192224819Y-84042380D02*
X191224819Y-84042380D01*
X191224819Y-84042380D02*
X191367676Y-84137618D01*
X191367676Y-84137618D02*
X191462914Y-84232856D01*
X191462914Y-84232856D02*
X191510533Y-84328094D01*
X193022819Y-88624094D02*
X192022819Y-88624094D01*
X193022819Y-88052666D02*
X192451390Y-88481237D01*
X192022819Y-88052666D02*
X192594247Y-88624094D01*
X192118057Y-87671713D02*
X192070438Y-87624094D01*
X192070438Y-87624094D02*
X192022819Y-87528856D01*
X192022819Y-87528856D02*
X192022819Y-87290761D01*
X192022819Y-87290761D02*
X192070438Y-87195523D01*
X192070438Y-87195523D02*
X192118057Y-87147904D01*
X192118057Y-87147904D02*
X192213295Y-87100285D01*
X192213295Y-87100285D02*
X192308533Y-87100285D01*
X192308533Y-87100285D02*
X192451390Y-87147904D01*
X192451390Y-87147904D02*
X193022819Y-87719332D01*
X193022819Y-87719332D02*
X193022819Y-87100285D01*
X186301142Y-80972819D02*
X185967809Y-80496628D01*
X185729714Y-80972819D02*
X185729714Y-79972819D01*
X185729714Y-79972819D02*
X186110666Y-79972819D01*
X186110666Y-79972819D02*
X186205904Y-80020438D01*
X186205904Y-80020438D02*
X186253523Y-80068057D01*
X186253523Y-80068057D02*
X186301142Y-80163295D01*
X186301142Y-80163295D02*
X186301142Y-80306152D01*
X186301142Y-80306152D02*
X186253523Y-80401390D01*
X186253523Y-80401390D02*
X186205904Y-80449009D01*
X186205904Y-80449009D02*
X186110666Y-80496628D01*
X186110666Y-80496628D02*
X185729714Y-80496628D01*
X187253523Y-80972819D02*
X186682095Y-80972819D01*
X186967809Y-80972819D02*
X186967809Y-79972819D01*
X186967809Y-79972819D02*
X186872571Y-80115676D01*
X186872571Y-80115676D02*
X186777333Y-80210914D01*
X186777333Y-80210914D02*
X186682095Y-80258533D01*
X187729714Y-80972819D02*
X187920190Y-80972819D01*
X187920190Y-80972819D02*
X188015428Y-80925200D01*
X188015428Y-80925200D02*
X188063047Y-80877580D01*
X188063047Y-80877580D02*
X188158285Y-80734723D01*
X188158285Y-80734723D02*
X188205904Y-80544247D01*
X188205904Y-80544247D02*
X188205904Y-80163295D01*
X188205904Y-80163295D02*
X188158285Y-80068057D01*
X188158285Y-80068057D02*
X188110666Y-80020438D01*
X188110666Y-80020438D02*
X188015428Y-79972819D01*
X188015428Y-79972819D02*
X187824952Y-79972819D01*
X187824952Y-79972819D02*
X187729714Y-80020438D01*
X187729714Y-80020438D02*
X187682095Y-80068057D01*
X187682095Y-80068057D02*
X187634476Y-80163295D01*
X187634476Y-80163295D02*
X187634476Y-80401390D01*
X187634476Y-80401390D02*
X187682095Y-80496628D01*
X187682095Y-80496628D02*
X187729714Y-80544247D01*
X187729714Y-80544247D02*
X187824952Y-80591866D01*
X187824952Y-80591866D02*
X188015428Y-80591866D01*
X188015428Y-80591866D02*
X188110666Y-80544247D01*
X188110666Y-80544247D02*
X188158285Y-80496628D01*
X188158285Y-80496628D02*
X188205904Y-80401390D01*
X191208819Y-118007594D02*
X190208819Y-118007594D01*
X190208819Y-118007594D02*
X190208819Y-117769499D01*
X190208819Y-117769499D02*
X190256438Y-117626642D01*
X190256438Y-117626642D02*
X190351676Y-117531404D01*
X190351676Y-117531404D02*
X190446914Y-117483785D01*
X190446914Y-117483785D02*
X190637390Y-117436166D01*
X190637390Y-117436166D02*
X190780247Y-117436166D01*
X190780247Y-117436166D02*
X190970723Y-117483785D01*
X190970723Y-117483785D02*
X191065961Y-117531404D01*
X191065961Y-117531404D02*
X191161200Y-117626642D01*
X191161200Y-117626642D02*
X191208819Y-117769499D01*
X191208819Y-117769499D02*
X191208819Y-118007594D01*
X190208819Y-116531404D02*
X190208819Y-117007594D01*
X190208819Y-117007594D02*
X190685009Y-117055213D01*
X190685009Y-117055213D02*
X190637390Y-117007594D01*
X190637390Y-117007594D02*
X190589771Y-116912356D01*
X190589771Y-116912356D02*
X190589771Y-116674261D01*
X190589771Y-116674261D02*
X190637390Y-116579023D01*
X190637390Y-116579023D02*
X190685009Y-116531404D01*
X190685009Y-116531404D02*
X190780247Y-116483785D01*
X190780247Y-116483785D02*
X191018342Y-116483785D01*
X191018342Y-116483785D02*
X191113580Y-116531404D01*
X191113580Y-116531404D02*
X191161200Y-116579023D01*
X191161200Y-116579023D02*
X191208819Y-116674261D01*
X191208819Y-116674261D02*
X191208819Y-116912356D01*
X191208819Y-116912356D02*
X191161200Y-117007594D01*
X191161200Y-117007594D02*
X191113580Y-117055213D01*
X187880666Y-74130819D02*
X187880666Y-74845104D01*
X187880666Y-74845104D02*
X187833047Y-74987961D01*
X187833047Y-74987961D02*
X187737809Y-75083200D01*
X187737809Y-75083200D02*
X187594952Y-75130819D01*
X187594952Y-75130819D02*
X187499714Y-75130819D01*
X188261619Y-74130819D02*
X188928285Y-74130819D01*
X188928285Y-74130819D02*
X188499714Y-75130819D01*
X161829809Y-74146628D02*
X161829809Y-74622819D01*
X161496476Y-73622819D02*
X161829809Y-74146628D01*
X161829809Y-74146628D02*
X162163142Y-73622819D01*
X163020285Y-74622819D02*
X162448857Y-74622819D01*
X162734571Y-74622819D02*
X162734571Y-73622819D01*
X162734571Y-73622819D02*
X162639333Y-73765676D01*
X162639333Y-73765676D02*
X162544095Y-73860914D01*
X162544095Y-73860914D02*
X162448857Y-73908533D01*
X161864580Y-129706666D02*
X161912200Y-129754285D01*
X161912200Y-129754285D02*
X161959819Y-129897142D01*
X161959819Y-129897142D02*
X161959819Y-129992380D01*
X161959819Y-129992380D02*
X161912200Y-130135237D01*
X161912200Y-130135237D02*
X161816961Y-130230475D01*
X161816961Y-130230475D02*
X161721723Y-130278094D01*
X161721723Y-130278094D02*
X161531247Y-130325713D01*
X161531247Y-130325713D02*
X161388390Y-130325713D01*
X161388390Y-130325713D02*
X161197914Y-130278094D01*
X161197914Y-130278094D02*
X161102676Y-130230475D01*
X161102676Y-130230475D02*
X161007438Y-130135237D01*
X161007438Y-130135237D02*
X160959819Y-129992380D01*
X160959819Y-129992380D02*
X160959819Y-129897142D01*
X160959819Y-129897142D02*
X161007438Y-129754285D01*
X161007438Y-129754285D02*
X161055057Y-129706666D01*
X161055057Y-129325713D02*
X161007438Y-129278094D01*
X161007438Y-129278094D02*
X160959819Y-129182856D01*
X160959819Y-129182856D02*
X160959819Y-128944761D01*
X160959819Y-128944761D02*
X161007438Y-128849523D01*
X161007438Y-128849523D02*
X161055057Y-128801904D01*
X161055057Y-128801904D02*
X161150295Y-128754285D01*
X161150295Y-128754285D02*
X161245533Y-128754285D01*
X161245533Y-128754285D02*
X161388390Y-128801904D01*
X161388390Y-128801904D02*
X161959819Y-129373332D01*
X161959819Y-129373332D02*
X161959819Y-128754285D01*
X166838333Y-112849819D02*
X166362143Y-112849819D01*
X166362143Y-112849819D02*
X166362143Y-111849819D01*
X167695476Y-112849819D02*
X167124048Y-112849819D01*
X167409762Y-112849819D02*
X167409762Y-111849819D01*
X167409762Y-111849819D02*
X167314524Y-111992676D01*
X167314524Y-111992676D02*
X167219286Y-112087914D01*
X167219286Y-112087914D02*
X167124048Y-112135533D01*
X148784819Y-74333333D02*
X149499104Y-74333333D01*
X149499104Y-74333333D02*
X149641961Y-74380952D01*
X149641961Y-74380952D02*
X149737200Y-74476190D01*
X149737200Y-74476190D02*
X149784819Y-74619047D01*
X149784819Y-74619047D02*
X149784819Y-74714285D01*
X148880057Y-73904761D02*
X148832438Y-73857142D01*
X148832438Y-73857142D02*
X148784819Y-73761904D01*
X148784819Y-73761904D02*
X148784819Y-73523809D01*
X148784819Y-73523809D02*
X148832438Y-73428571D01*
X148832438Y-73428571D02*
X148880057Y-73380952D01*
X148880057Y-73380952D02*
X148975295Y-73333333D01*
X148975295Y-73333333D02*
X149070533Y-73333333D01*
X149070533Y-73333333D02*
X149213390Y-73380952D01*
X149213390Y-73380952D02*
X149784819Y-73952380D01*
X149784819Y-73952380D02*
X149784819Y-73333333D01*
X184015142Y-107388819D02*
X183681809Y-106912628D01*
X183443714Y-107388819D02*
X183443714Y-106388819D01*
X183443714Y-106388819D02*
X183824666Y-106388819D01*
X183824666Y-106388819D02*
X183919904Y-106436438D01*
X183919904Y-106436438D02*
X183967523Y-106484057D01*
X183967523Y-106484057D02*
X184015142Y-106579295D01*
X184015142Y-106579295D02*
X184015142Y-106722152D01*
X184015142Y-106722152D02*
X183967523Y-106817390D01*
X183967523Y-106817390D02*
X183919904Y-106865009D01*
X183919904Y-106865009D02*
X183824666Y-106912628D01*
X183824666Y-106912628D02*
X183443714Y-106912628D01*
X184967523Y-107388819D02*
X184396095Y-107388819D01*
X184681809Y-107388819D02*
X184681809Y-106388819D01*
X184681809Y-106388819D02*
X184586571Y-106531676D01*
X184586571Y-106531676D02*
X184491333Y-106626914D01*
X184491333Y-106626914D02*
X184396095Y-106674533D01*
X185872285Y-106388819D02*
X185396095Y-106388819D01*
X185396095Y-106388819D02*
X185348476Y-106865009D01*
X185348476Y-106865009D02*
X185396095Y-106817390D01*
X185396095Y-106817390D02*
X185491333Y-106769771D01*
X185491333Y-106769771D02*
X185729428Y-106769771D01*
X185729428Y-106769771D02*
X185824666Y-106817390D01*
X185824666Y-106817390D02*
X185872285Y-106865009D01*
X185872285Y-106865009D02*
X185919904Y-106960247D01*
X185919904Y-106960247D02*
X185919904Y-107198342D01*
X185919904Y-107198342D02*
X185872285Y-107293580D01*
X185872285Y-107293580D02*
X185824666Y-107341200D01*
X185824666Y-107341200D02*
X185729428Y-107388819D01*
X185729428Y-107388819D02*
X185491333Y-107388819D01*
X185491333Y-107388819D02*
X185396095Y-107341200D01*
X185396095Y-107341200D02*
X185348476Y-107293580D01*
X181819580Y-121451666D02*
X181867200Y-121499285D01*
X181867200Y-121499285D02*
X181914819Y-121642142D01*
X181914819Y-121642142D02*
X181914819Y-121737380D01*
X181914819Y-121737380D02*
X181867200Y-121880237D01*
X181867200Y-121880237D02*
X181771961Y-121975475D01*
X181771961Y-121975475D02*
X181676723Y-122023094D01*
X181676723Y-122023094D02*
X181486247Y-122070713D01*
X181486247Y-122070713D02*
X181343390Y-122070713D01*
X181343390Y-122070713D02*
X181152914Y-122023094D01*
X181152914Y-122023094D02*
X181057676Y-121975475D01*
X181057676Y-121975475D02*
X180962438Y-121880237D01*
X180962438Y-121880237D02*
X180914819Y-121737380D01*
X180914819Y-121737380D02*
X180914819Y-121642142D01*
X180914819Y-121642142D02*
X180962438Y-121499285D01*
X180962438Y-121499285D02*
X181010057Y-121451666D01*
X180914819Y-121118332D02*
X180914819Y-120451666D01*
X180914819Y-120451666D02*
X181914819Y-120880237D01*
X187317142Y-95704819D02*
X186983809Y-95228628D01*
X186745714Y-95704819D02*
X186745714Y-94704819D01*
X186745714Y-94704819D02*
X187126666Y-94704819D01*
X187126666Y-94704819D02*
X187221904Y-94752438D01*
X187221904Y-94752438D02*
X187269523Y-94800057D01*
X187269523Y-94800057D02*
X187317142Y-94895295D01*
X187317142Y-94895295D02*
X187317142Y-95038152D01*
X187317142Y-95038152D02*
X187269523Y-95133390D01*
X187269523Y-95133390D02*
X187221904Y-95181009D01*
X187221904Y-95181009D02*
X187126666Y-95228628D01*
X187126666Y-95228628D02*
X186745714Y-95228628D01*
X188269523Y-95704819D02*
X187698095Y-95704819D01*
X187983809Y-95704819D02*
X187983809Y-94704819D01*
X187983809Y-94704819D02*
X187888571Y-94847676D01*
X187888571Y-94847676D02*
X187793333Y-94942914D01*
X187793333Y-94942914D02*
X187698095Y-94990533D01*
X188840952Y-95133390D02*
X188745714Y-95085771D01*
X188745714Y-95085771D02*
X188698095Y-95038152D01*
X188698095Y-95038152D02*
X188650476Y-94942914D01*
X188650476Y-94942914D02*
X188650476Y-94895295D01*
X188650476Y-94895295D02*
X188698095Y-94800057D01*
X188698095Y-94800057D02*
X188745714Y-94752438D01*
X188745714Y-94752438D02*
X188840952Y-94704819D01*
X188840952Y-94704819D02*
X189031428Y-94704819D01*
X189031428Y-94704819D02*
X189126666Y-94752438D01*
X189126666Y-94752438D02*
X189174285Y-94800057D01*
X189174285Y-94800057D02*
X189221904Y-94895295D01*
X189221904Y-94895295D02*
X189221904Y-94942914D01*
X189221904Y-94942914D02*
X189174285Y-95038152D01*
X189174285Y-95038152D02*
X189126666Y-95085771D01*
X189126666Y-95085771D02*
X189031428Y-95133390D01*
X189031428Y-95133390D02*
X188840952Y-95133390D01*
X188840952Y-95133390D02*
X188745714Y-95181009D01*
X188745714Y-95181009D02*
X188698095Y-95228628D01*
X188698095Y-95228628D02*
X188650476Y-95323866D01*
X188650476Y-95323866D02*
X188650476Y-95514342D01*
X188650476Y-95514342D02*
X188698095Y-95609580D01*
X188698095Y-95609580D02*
X188745714Y-95657200D01*
X188745714Y-95657200D02*
X188840952Y-95704819D01*
X188840952Y-95704819D02*
X189031428Y-95704819D01*
X189031428Y-95704819D02*
X189126666Y-95657200D01*
X189126666Y-95657200D02*
X189174285Y-95609580D01*
X189174285Y-95609580D02*
X189221904Y-95514342D01*
X189221904Y-95514342D02*
X189221904Y-95323866D01*
X189221904Y-95323866D02*
X189174285Y-95228628D01*
X189174285Y-95228628D02*
X189126666Y-95181009D01*
X189126666Y-95181009D02*
X189031428Y-95133390D01*
X205194819Y-122507333D02*
X205909104Y-122507333D01*
X205909104Y-122507333D02*
X206051961Y-122554952D01*
X206051961Y-122554952D02*
X206147200Y-122650190D01*
X206147200Y-122650190D02*
X206194819Y-122793047D01*
X206194819Y-122793047D02*
X206194819Y-122888285D01*
X205194819Y-121554952D02*
X205194819Y-122031142D01*
X205194819Y-122031142D02*
X205671009Y-122078761D01*
X205671009Y-122078761D02*
X205623390Y-122031142D01*
X205623390Y-122031142D02*
X205575771Y-121935904D01*
X205575771Y-121935904D02*
X205575771Y-121697809D01*
X205575771Y-121697809D02*
X205623390Y-121602571D01*
X205623390Y-121602571D02*
X205671009Y-121554952D01*
X205671009Y-121554952D02*
X205766247Y-121507333D01*
X205766247Y-121507333D02*
X206004342Y-121507333D01*
X206004342Y-121507333D02*
X206099580Y-121554952D01*
X206099580Y-121554952D02*
X206147200Y-121602571D01*
X206147200Y-121602571D02*
X206194819Y-121697809D01*
X206194819Y-121697809D02*
X206194819Y-121935904D01*
X206194819Y-121935904D02*
X206147200Y-122031142D01*
X206147200Y-122031142D02*
X206099580Y-122078761D01*
X179330819Y-100155333D02*
X180045104Y-100155333D01*
X180045104Y-100155333D02*
X180187961Y-100202952D01*
X180187961Y-100202952D02*
X180283200Y-100298190D01*
X180283200Y-100298190D02*
X180330819Y-100441047D01*
X180330819Y-100441047D02*
X180330819Y-100536285D01*
X179330819Y-99774380D02*
X179330819Y-99155333D01*
X179330819Y-99155333D02*
X179711771Y-99488666D01*
X179711771Y-99488666D02*
X179711771Y-99345809D01*
X179711771Y-99345809D02*
X179759390Y-99250571D01*
X179759390Y-99250571D02*
X179807009Y-99202952D01*
X179807009Y-99202952D02*
X179902247Y-99155333D01*
X179902247Y-99155333D02*
X180140342Y-99155333D01*
X180140342Y-99155333D02*
X180235580Y-99202952D01*
X180235580Y-99202952D02*
X180283200Y-99250571D01*
X180283200Y-99250571D02*
X180330819Y-99345809D01*
X180330819Y-99345809D02*
X180330819Y-99631523D01*
X180330819Y-99631523D02*
X180283200Y-99726761D01*
X180283200Y-99726761D02*
X180235580Y-99774380D01*
X170788333Y-78979580D02*
X170740714Y-79027200D01*
X170740714Y-79027200D02*
X170597857Y-79074819D01*
X170597857Y-79074819D02*
X170502619Y-79074819D01*
X170502619Y-79074819D02*
X170359762Y-79027200D01*
X170359762Y-79027200D02*
X170264524Y-78931961D01*
X170264524Y-78931961D02*
X170216905Y-78836723D01*
X170216905Y-78836723D02*
X170169286Y-78646247D01*
X170169286Y-78646247D02*
X170169286Y-78503390D01*
X170169286Y-78503390D02*
X170216905Y-78312914D01*
X170216905Y-78312914D02*
X170264524Y-78217676D01*
X170264524Y-78217676D02*
X170359762Y-78122438D01*
X170359762Y-78122438D02*
X170502619Y-78074819D01*
X170502619Y-78074819D02*
X170597857Y-78074819D01*
X170597857Y-78074819D02*
X170740714Y-78122438D01*
X170740714Y-78122438D02*
X170788333Y-78170057D01*
X171121667Y-78074819D02*
X171740714Y-78074819D01*
X171740714Y-78074819D02*
X171407381Y-78455771D01*
X171407381Y-78455771D02*
X171550238Y-78455771D01*
X171550238Y-78455771D02*
X171645476Y-78503390D01*
X171645476Y-78503390D02*
X171693095Y-78551009D01*
X171693095Y-78551009D02*
X171740714Y-78646247D01*
X171740714Y-78646247D02*
X171740714Y-78884342D01*
X171740714Y-78884342D02*
X171693095Y-78979580D01*
X171693095Y-78979580D02*
X171645476Y-79027200D01*
X171645476Y-79027200D02*
X171550238Y-79074819D01*
X171550238Y-79074819D02*
X171264524Y-79074819D01*
X171264524Y-79074819D02*
X171169286Y-79027200D01*
X171169286Y-79027200D02*
X171121667Y-78979580D01*
X197676666Y-72844819D02*
X197343333Y-72368628D01*
X197105238Y-72844819D02*
X197105238Y-71844819D01*
X197105238Y-71844819D02*
X197486190Y-71844819D01*
X197486190Y-71844819D02*
X197581428Y-71892438D01*
X197581428Y-71892438D02*
X197629047Y-71940057D01*
X197629047Y-71940057D02*
X197676666Y-72035295D01*
X197676666Y-72035295D02*
X197676666Y-72178152D01*
X197676666Y-72178152D02*
X197629047Y-72273390D01*
X197629047Y-72273390D02*
X197581428Y-72321009D01*
X197581428Y-72321009D02*
X197486190Y-72368628D01*
X197486190Y-72368628D02*
X197105238Y-72368628D01*
X198105238Y-72321009D02*
X198438571Y-72321009D01*
X198581428Y-72844819D02*
X198105238Y-72844819D01*
X198105238Y-72844819D02*
X198105238Y-71844819D01*
X198105238Y-71844819D02*
X198581428Y-71844819D01*
X199343333Y-72321009D02*
X199010000Y-72321009D01*
X199010000Y-72844819D02*
X199010000Y-71844819D01*
X199010000Y-71844819D02*
X199486190Y-71844819D01*
X200010000Y-71844819D02*
X200010000Y-72082914D01*
X199771905Y-71987676D02*
X200010000Y-72082914D01*
X200010000Y-72082914D02*
X200248095Y-71987676D01*
X199867143Y-72273390D02*
X200010000Y-72082914D01*
X200010000Y-72082914D02*
X200152857Y-72273390D01*
X200771905Y-71844819D02*
X200771905Y-72082914D01*
X200533810Y-71987676D02*
X200771905Y-72082914D01*
X200771905Y-72082914D02*
X201010000Y-71987676D01*
X200629048Y-72273390D02*
X200771905Y-72082914D01*
X200771905Y-72082914D02*
X200914762Y-72273390D01*
X195349905Y-104086819D02*
X195349905Y-103086819D01*
X195921333Y-104086819D02*
X195492762Y-103515390D01*
X195921333Y-103086819D02*
X195349905Y-103658247D01*
X196873714Y-104086819D02*
X196302286Y-104086819D01*
X196588000Y-104086819D02*
X196588000Y-103086819D01*
X196588000Y-103086819D02*
X196492762Y-103229676D01*
X196492762Y-103229676D02*
X196397524Y-103324914D01*
X196397524Y-103324914D02*
X196302286Y-103372533D01*
X144344819Y-99103333D02*
X145059104Y-99103333D01*
X145059104Y-99103333D02*
X145201961Y-99150952D01*
X145201961Y-99150952D02*
X145297200Y-99246190D01*
X145297200Y-99246190D02*
X145344819Y-99389047D01*
X145344819Y-99389047D02*
X145344819Y-99484285D01*
X144678152Y-98198571D02*
X145344819Y-98198571D01*
X144297200Y-98436666D02*
X145011485Y-98674761D01*
X145011485Y-98674761D02*
X145011485Y-98055714D01*
X179324095Y-77178819D02*
X179324095Y-77988342D01*
X179324095Y-77988342D02*
X179371714Y-78083580D01*
X179371714Y-78083580D02*
X179419333Y-78131200D01*
X179419333Y-78131200D02*
X179514571Y-78178819D01*
X179514571Y-78178819D02*
X179705047Y-78178819D01*
X179705047Y-78178819D02*
X179800285Y-78131200D01*
X179800285Y-78131200D02*
X179847904Y-78083580D01*
X179847904Y-78083580D02*
X179895523Y-77988342D01*
X179895523Y-77988342D02*
X179895523Y-77178819D01*
X180847904Y-77178819D02*
X180371714Y-77178819D01*
X180371714Y-77178819D02*
X180324095Y-77655009D01*
X180324095Y-77655009D02*
X180371714Y-77607390D01*
X180371714Y-77607390D02*
X180466952Y-77559771D01*
X180466952Y-77559771D02*
X180705047Y-77559771D01*
X180705047Y-77559771D02*
X180800285Y-77607390D01*
X180800285Y-77607390D02*
X180847904Y-77655009D01*
X180847904Y-77655009D02*
X180895523Y-77750247D01*
X180895523Y-77750247D02*
X180895523Y-77988342D01*
X180895523Y-77988342D02*
X180847904Y-78083580D01*
X180847904Y-78083580D02*
X180800285Y-78131200D01*
X180800285Y-78131200D02*
X180705047Y-78178819D01*
X180705047Y-78178819D02*
X180466952Y-78178819D01*
X180466952Y-78178819D02*
X180371714Y-78131200D01*
X180371714Y-78131200D02*
X180324095Y-78083580D01*
X155041905Y-116834819D02*
X155041905Y-115834819D01*
X155041905Y-115834819D02*
X155280000Y-115834819D01*
X155280000Y-115834819D02*
X155422857Y-115882438D01*
X155422857Y-115882438D02*
X155518095Y-115977676D01*
X155518095Y-115977676D02*
X155565714Y-116072914D01*
X155565714Y-116072914D02*
X155613333Y-116263390D01*
X155613333Y-116263390D02*
X155613333Y-116406247D01*
X155613333Y-116406247D02*
X155565714Y-116596723D01*
X155565714Y-116596723D02*
X155518095Y-116691961D01*
X155518095Y-116691961D02*
X155422857Y-116787200D01*
X155422857Y-116787200D02*
X155280000Y-116834819D01*
X155280000Y-116834819D02*
X155041905Y-116834819D01*
X156565714Y-116834819D02*
X155994286Y-116834819D01*
X156280000Y-116834819D02*
X156280000Y-115834819D01*
X156280000Y-115834819D02*
X156184762Y-115977676D01*
X156184762Y-115977676D02*
X156089524Y-116072914D01*
X156089524Y-116072914D02*
X155994286Y-116120533D01*
X187356819Y-123754357D02*
X186880628Y-124087690D01*
X187356819Y-124325785D02*
X186356819Y-124325785D01*
X186356819Y-124325785D02*
X186356819Y-123944833D01*
X186356819Y-123944833D02*
X186404438Y-123849595D01*
X186404438Y-123849595D02*
X186452057Y-123801976D01*
X186452057Y-123801976D02*
X186547295Y-123754357D01*
X186547295Y-123754357D02*
X186690152Y-123754357D01*
X186690152Y-123754357D02*
X186785390Y-123801976D01*
X186785390Y-123801976D02*
X186833009Y-123849595D01*
X186833009Y-123849595D02*
X186880628Y-123944833D01*
X186880628Y-123944833D02*
X186880628Y-124325785D01*
X187356819Y-122801976D02*
X187356819Y-123373404D01*
X187356819Y-123087690D02*
X186356819Y-123087690D01*
X186356819Y-123087690D02*
X186499676Y-123182928D01*
X186499676Y-123182928D02*
X186594914Y-123278166D01*
X186594914Y-123278166D02*
X186642533Y-123373404D01*
X186356819Y-122468642D02*
X186356819Y-121849595D01*
X186356819Y-121849595D02*
X186737771Y-122182928D01*
X186737771Y-122182928D02*
X186737771Y-122040071D01*
X186737771Y-122040071D02*
X186785390Y-121944833D01*
X186785390Y-121944833D02*
X186833009Y-121897214D01*
X186833009Y-121897214D02*
X186928247Y-121849595D01*
X186928247Y-121849595D02*
X187166342Y-121849595D01*
X187166342Y-121849595D02*
X187261580Y-121897214D01*
X187261580Y-121897214D02*
X187309200Y-121944833D01*
X187309200Y-121944833D02*
X187356819Y-122040071D01*
X187356819Y-122040071D02*
X187356819Y-122325785D01*
X187356819Y-122325785D02*
X187309200Y-122421023D01*
X187309200Y-122421023D02*
X187261580Y-122468642D01*
X161433142Y-100233580D02*
X161385523Y-100281200D01*
X161385523Y-100281200D02*
X161242666Y-100328819D01*
X161242666Y-100328819D02*
X161147428Y-100328819D01*
X161147428Y-100328819D02*
X161004571Y-100281200D01*
X161004571Y-100281200D02*
X160909333Y-100185961D01*
X160909333Y-100185961D02*
X160861714Y-100090723D01*
X160861714Y-100090723D02*
X160814095Y-99900247D01*
X160814095Y-99900247D02*
X160814095Y-99757390D01*
X160814095Y-99757390D02*
X160861714Y-99566914D01*
X160861714Y-99566914D02*
X160909333Y-99471676D01*
X160909333Y-99471676D02*
X161004571Y-99376438D01*
X161004571Y-99376438D02*
X161147428Y-99328819D01*
X161147428Y-99328819D02*
X161242666Y-99328819D01*
X161242666Y-99328819D02*
X161385523Y-99376438D01*
X161385523Y-99376438D02*
X161433142Y-99424057D01*
X162385523Y-100328819D02*
X161814095Y-100328819D01*
X162099809Y-100328819D02*
X162099809Y-99328819D01*
X162099809Y-99328819D02*
X162004571Y-99471676D01*
X162004571Y-99471676D02*
X161909333Y-99566914D01*
X161909333Y-99566914D02*
X161814095Y-99614533D01*
X163004571Y-99328819D02*
X163099809Y-99328819D01*
X163099809Y-99328819D02*
X163195047Y-99376438D01*
X163195047Y-99376438D02*
X163242666Y-99424057D01*
X163242666Y-99424057D02*
X163290285Y-99519295D01*
X163290285Y-99519295D02*
X163337904Y-99709771D01*
X163337904Y-99709771D02*
X163337904Y-99947866D01*
X163337904Y-99947866D02*
X163290285Y-100138342D01*
X163290285Y-100138342D02*
X163242666Y-100233580D01*
X163242666Y-100233580D02*
X163195047Y-100281200D01*
X163195047Y-100281200D02*
X163099809Y-100328819D01*
X163099809Y-100328819D02*
X163004571Y-100328819D01*
X163004571Y-100328819D02*
X162909333Y-100281200D01*
X162909333Y-100281200D02*
X162861714Y-100233580D01*
X162861714Y-100233580D02*
X162814095Y-100138342D01*
X162814095Y-100138342D02*
X162766476Y-99947866D01*
X162766476Y-99947866D02*
X162766476Y-99709771D01*
X162766476Y-99709771D02*
X162814095Y-99519295D01*
X162814095Y-99519295D02*
X162861714Y-99424057D01*
X162861714Y-99424057D02*
X162909333Y-99376438D01*
X162909333Y-99376438D02*
X163004571Y-99328819D01*
X133688819Y-129224333D02*
X134403104Y-129224333D01*
X134403104Y-129224333D02*
X134545961Y-129271952D01*
X134545961Y-129271952D02*
X134641200Y-129367190D01*
X134641200Y-129367190D02*
X134688819Y-129510047D01*
X134688819Y-129510047D02*
X134688819Y-129605285D01*
X134688819Y-128224333D02*
X134688819Y-128795761D01*
X134688819Y-128510047D02*
X133688819Y-128510047D01*
X133688819Y-128510047D02*
X133831676Y-128605285D01*
X133831676Y-128605285D02*
X133926914Y-128700523D01*
X133926914Y-128700523D02*
X133974533Y-128795761D01*
D13*
%TO.C,U4*%
X171950000Y-103550000D02*
X171950000Y-103820000D01*
X171950000Y-110450000D02*
X171950000Y-110180000D01*
X178370000Y-103550000D02*
X171950000Y-103550000D01*
X178370000Y-110450000D02*
X171950000Y-110450000D01*
X170220000Y-103860000D02*
X169880000Y-103390000D01*
X170560000Y-103390000D01*
X170220000Y-103860000D01*
G36*
X170220000Y-103860000D02*
G01*
X169880000Y-103390000D01*
X170560000Y-103390000D01*
X170220000Y-103860000D01*
G37*
%TO.C,D10*%
X201840000Y-119152000D02*
X201840000Y-114092000D01*
X201840000Y-119152000D02*
X204560000Y-119152000D01*
X204560000Y-119152000D02*
X204560000Y-114092000D01*
%TO.C,C11*%
X180087748Y-73512000D02*
X181510252Y-73512000D01*
X180087748Y-75332000D02*
X181510252Y-75332000D01*
D14*
%TO.C,U3*%
X156069500Y-85596500D02*
X156069500Y-93343500D01*
X174230500Y-93343500D02*
X174230500Y-85596500D01*
D15*
G36*
X162165500Y-83709801D02*
G01*
X161784500Y-83709801D01*
X161784500Y-83455801D01*
X162165500Y-83455801D01*
X162165500Y-83709801D01*
G37*
G36*
X163435500Y-95484199D02*
G01*
X163054500Y-95484199D01*
X163054500Y-95230199D01*
X163435500Y-95230199D01*
X163435500Y-95484199D01*
G37*
D13*
%TO.C,D2*%
X162888000Y-122638000D02*
X162888000Y-132378000D01*
X162888000Y-132378000D02*
X168328000Y-132378000D01*
X165608000Y-121728000D02*
X165608000Y-122638000D01*
X165608000Y-133288000D02*
X165608000Y-132378000D01*
X168328000Y-122638000D02*
X162888000Y-122638000D01*
X168328000Y-124063000D02*
X162888000Y-124063000D01*
X168328000Y-124183000D02*
X162888000Y-124183000D01*
X168328000Y-124303000D02*
X162888000Y-124303000D01*
X168328000Y-132378000D02*
X168328000Y-122638000D01*
%TO.C,D4*%
X173829000Y-72700000D02*
X173829000Y-74620000D01*
X173829000Y-74620000D02*
X176514000Y-74620000D01*
X176514000Y-72700000D02*
X173829000Y-72700000D01*
%TO.C,C8*%
X172540000Y-111490000D02*
X172540000Y-114510000D01*
X172540000Y-114510000D02*
X176750000Y-114510000D01*
X176750000Y-111490000D02*
X172540000Y-111490000D01*
%TO.C,D9*%
X201586000Y-87686000D02*
X201586000Y-92746000D01*
X204306000Y-87686000D02*
X201586000Y-87686000D01*
X204306000Y-87686000D02*
X204306000Y-92746000D01*
%TO.C,Q1*%
X189820000Y-103996000D02*
X191230000Y-103996000D01*
X189820000Y-106316000D02*
X191230000Y-106316000D01*
X191230000Y-103996000D02*
X191230000Y-104656000D01*
X191230000Y-105656000D02*
X191230000Y-106316000D01*
X189450000Y-104016000D02*
X189210000Y-103686000D01*
X189690000Y-103686000D01*
X189450000Y-104016000D01*
G36*
X189450000Y-104016000D02*
G01*
X189210000Y-103686000D01*
X189690000Y-103686000D01*
X189450000Y-104016000D01*
G37*
%TO.C,R9*%
X152434936Y-91165000D02*
X153889064Y-91165000D01*
X152434936Y-92985000D02*
X153889064Y-92985000D01*
%TO.C,D3*%
X173227500Y-132102500D02*
X173227500Y-134022500D01*
X173227500Y-134022500D02*
X175912500Y-134022500D01*
X175912500Y-132102500D02*
X173227500Y-132102500D01*
%TO.C,D8*%
X201332000Y-95646000D02*
X201332000Y-100706000D01*
X204052000Y-95646000D02*
X201332000Y-95646000D01*
X204052000Y-95646000D02*
X204052000Y-100706000D01*
%TO.C,C6*%
X165359420Y-109140000D02*
X165640580Y-109140000D01*
X165359420Y-110160000D02*
X165640580Y-110160000D01*
%TO.C,R10*%
X152434936Y-84561000D02*
X153889064Y-84561000D01*
X152434936Y-86381000D02*
X153889064Y-86381000D01*
%TO.C,R14*%
X184184936Y-100690000D02*
X185639064Y-100690000D01*
X184184936Y-102510000D02*
X185639064Y-102510000D01*
%TO.C,C5*%
X152788748Y-79021000D02*
X153311252Y-79021000D01*
X152788748Y-80491000D02*
X153311252Y-80491000D01*
%TO.C,D7*%
X201732000Y-102455000D02*
X201732000Y-105140000D01*
X203652000Y-102455000D02*
X201732000Y-102455000D01*
X203652000Y-105140000D02*
X203652000Y-102455000D01*
%TO.C,R7*%
X186272936Y-89840000D02*
X187727064Y-89840000D01*
X186272936Y-91660000D02*
X187727064Y-91660000D01*
%TO.C,R11*%
X180327064Y-132152500D02*
X178872936Y-132152500D01*
X180327064Y-133972500D02*
X178872936Y-133972500D01*
%TO.C,Q2*%
X190582000Y-96376000D02*
X191992000Y-96376000D01*
X190582000Y-98696000D02*
X191992000Y-98696000D01*
X191992000Y-96376000D02*
X191992000Y-97036000D01*
X191992000Y-98036000D02*
X191992000Y-98696000D01*
X190212000Y-96396000D02*
X189972000Y-96066000D01*
X190452000Y-96066000D01*
X190212000Y-96396000D01*
G36*
X190212000Y-96396000D02*
G01*
X189972000Y-96066000D01*
X190452000Y-96066000D01*
X190212000Y-96396000D01*
G37*
%TO.C,R16*%
X202036000Y-109693064D02*
X202036000Y-108238936D01*
X203856000Y-109693064D02*
X203856000Y-108238936D01*
%TO.C,J6*%
X201616000Y-82550000D02*
X201616000Y-79950000D01*
X204276000Y-79950000D02*
X201616000Y-79950000D01*
X204276000Y-82550000D02*
X201616000Y-82550000D01*
X204276000Y-82550000D02*
X204276000Y-79950000D01*
X204276000Y-83820000D02*
X204276000Y-85150000D01*
X204276000Y-85150000D02*
X202946000Y-85150000D01*
%TO.C,R6*%
X164810436Y-105590000D02*
X166264564Y-105590000D01*
X164810436Y-107410000D02*
X166264564Y-107410000D01*
%TO.C,D6*%
X182536000Y-121270000D02*
X182536000Y-116210000D01*
X182536000Y-121270000D02*
X185256000Y-121270000D01*
X185256000Y-121270000D02*
X185256000Y-116210000D01*
%TO.C,U1*%
X151765000Y-97135000D02*
X149815000Y-97135000D01*
X151765000Y-97135000D02*
X153715000Y-97135000D01*
X151765000Y-102255000D02*
X149815000Y-102255000D01*
X151765000Y-102255000D02*
X153715000Y-102255000D01*
X154705000Y-102490000D02*
X154225000Y-102490000D01*
X154465000Y-102160000D01*
X154705000Y-102490000D01*
G36*
X154705000Y-102490000D02*
G01*
X154225000Y-102490000D01*
X154465000Y-102160000D01*
X154705000Y-102490000D01*
G37*
%TO.C,U2*%
X155455000Y-104655000D02*
X156820000Y-104655000D01*
X155455000Y-115055000D02*
X156820000Y-115055000D01*
X156820000Y-104655000D02*
X156820000Y-105605000D01*
X156820000Y-115055000D02*
X156820000Y-114105000D01*
X159985000Y-114535000D02*
X159305000Y-114535000D01*
X159645000Y-114065000D01*
X159985000Y-114535000D01*
G36*
X159985000Y-114535000D02*
G01*
X159305000Y-114535000D01*
X159645000Y-114065000D01*
X159985000Y-114535000D01*
G37*
%TO.C,R17*%
X182091436Y-93578000D02*
X183545564Y-93578000D01*
X182091436Y-95398000D02*
X183545564Y-95398000D01*
%TO.C,J8*%
X129988000Y-79188000D02*
X129988000Y-81848000D01*
X142748000Y-79188000D02*
X129988000Y-79188000D01*
X142748000Y-79188000D02*
X142748000Y-81848000D01*
X142748000Y-81848000D02*
X129988000Y-81848000D01*
X144018000Y-79188000D02*
X145348000Y-79188000D01*
X145348000Y-79188000D02*
X145348000Y-80518000D01*
%TO.C,JP1*%
X178055000Y-84355000D02*
X184105000Y-84355000D01*
X178055000Y-92155000D02*
X178055000Y-84355000D01*
X182995000Y-85725000D02*
X184005000Y-85725000D01*
X182995000Y-90805000D02*
X182995000Y-85725000D01*
X184005000Y-90805000D02*
X182995000Y-90805000D01*
X184105000Y-84355000D02*
X184105000Y-92155000D01*
X184105000Y-92155000D02*
X178055000Y-92155000D01*
%TO.C,R12*%
X171680564Y-72750000D02*
X170226436Y-72750000D01*
X171680564Y-74570000D02*
X170226436Y-74570000D01*
%TO.C,SW1*%
X185935000Y-84100000D02*
X190075000Y-84100000D01*
X185935000Y-84400000D02*
X185935000Y-84100000D01*
X185935000Y-87240000D02*
X185935000Y-86940000D01*
X190075000Y-84100000D02*
X190075000Y-84400000D01*
X190075000Y-86940000D02*
X190075000Y-87240000D01*
X190075000Y-87240000D02*
X185935000Y-87240000D01*
%TO.C,K2*%
X193208000Y-102446000D02*
X193208000Y-100946000D01*
X193508000Y-75186000D02*
X193508000Y-73776000D01*
X193508000Y-80246000D02*
X193508000Y-76766000D01*
X193508000Y-81786000D02*
X193508000Y-101996000D01*
X194708000Y-102446000D02*
X193208000Y-102446000D01*
X198728000Y-73776000D02*
X193508000Y-73776000D01*
X198728000Y-101996000D02*
X196118000Y-101996000D01*
X198728000Y-101996000D02*
X198728000Y-73776000D01*
%TO.C,R19*%
X187171064Y-81307000D02*
X186716936Y-81307000D01*
X187171064Y-82777000D02*
X186716936Y-82777000D01*
%TO.C,D5*%
X187762000Y-115584500D02*
X187762000Y-118269500D01*
X189682000Y-115584500D02*
X187762000Y-115584500D01*
X189682000Y-118269500D02*
X189682000Y-115584500D01*
%TO.C,J7*%
X185355000Y-78800000D02*
X185355000Y-77470000D01*
X186685000Y-78800000D02*
X185355000Y-78800000D01*
X187955000Y-76140000D02*
X190555000Y-76140000D01*
X187955000Y-78800000D02*
X187955000Y-76140000D01*
X187955000Y-78800000D02*
X190555000Y-78800000D01*
X190555000Y-78800000D02*
X190555000Y-76140000D01*
%TO.C,Y1*%
X156406000Y-81798000D02*
X169006000Y-81798000D01*
X169006000Y-76698000D02*
X156406000Y-76698000D01*
X169006000Y-81798000D02*
X169006000Y-76698000D01*
%TO.C,C2*%
X150045000Y-125344437D02*
X150045000Y-134800000D01*
X150045000Y-134800000D02*
X153795000Y-134800000D01*
X151109437Y-124280000D02*
X150045000Y-125344437D01*
X151109437Y-124280000D02*
X153795000Y-124280000D01*
X158065000Y-122790000D02*
X158065000Y-124040000D01*
X158690000Y-123415000D02*
X157440000Y-123415000D01*
X159500563Y-124280000D02*
X156815000Y-124280000D01*
X159500563Y-124280000D02*
X160565000Y-125344437D01*
X160565000Y-125344437D02*
X160565000Y-134800000D01*
X160565000Y-134800000D02*
X156815000Y-134800000D01*
%TO.C,L1*%
X166935242Y-115295000D02*
X165264758Y-115295000D01*
X166935242Y-117115000D02*
X165264758Y-117115000D01*
%TO.C,J2*%
X143130000Y-72670000D02*
X143130000Y-75330000D01*
X145730000Y-72670000D02*
X143130000Y-72670000D01*
X145730000Y-72670000D02*
X145730000Y-75330000D01*
X145730000Y-75330000D02*
X143130000Y-75330000D01*
X147000000Y-72670000D02*
X148330000Y-72670000D01*
X148330000Y-72670000D02*
X148330000Y-74000000D01*
%TO.C,R15*%
X184184936Y-103230000D02*
X185639064Y-103230000D01*
X184184936Y-105050000D02*
X185639064Y-105050000D01*
%TO.C,C7*%
X170000000Y-117089437D02*
X170000000Y-126545000D01*
X170000000Y-126545000D02*
X173750000Y-126545000D01*
X171064437Y-116025000D02*
X170000000Y-117089437D01*
X171064437Y-116025000D02*
X173750000Y-116025000D01*
X178020000Y-114535000D02*
X178020000Y-115785000D01*
X178645000Y-115160000D02*
X177395000Y-115160000D01*
X179455563Y-116025000D02*
X176770000Y-116025000D01*
X179455563Y-116025000D02*
X180520000Y-117089437D01*
X180520000Y-117089437D02*
X180520000Y-126545000D01*
X180520000Y-126545000D02*
X176770000Y-126545000D01*
%TO.C,R18*%
X184184936Y-96880000D02*
X185639064Y-96880000D01*
X184184936Y-98700000D02*
X185639064Y-98700000D01*
%TO.C,J5*%
X201870000Y-120862000D02*
X203200000Y-120862000D01*
X201870000Y-122192000D02*
X201870000Y-120862000D01*
X201870000Y-123462000D02*
X201870000Y-126062000D01*
X201870000Y-123462000D02*
X204530000Y-123462000D01*
X201870000Y-126062000D02*
X204530000Y-126062000D01*
X204530000Y-123462000D02*
X204530000Y-126062000D01*
%TO.C,J3*%
X171136000Y-97222000D02*
X171136000Y-102422000D01*
X176276000Y-97222000D02*
X171136000Y-97222000D01*
X176276000Y-97222000D02*
X176276000Y-99822000D01*
X176276000Y-99822000D02*
X178876000Y-99822000D01*
X177546000Y-97222000D02*
X178876000Y-97222000D01*
X178876000Y-97222000D02*
X178876000Y-98552000D01*
X178876000Y-99822000D02*
X178876000Y-102422000D01*
X178876000Y-102422000D02*
X171136000Y-102422000D01*
%TO.C,C3*%
X170693748Y-79565000D02*
X171216252Y-79565000D01*
X170693748Y-81035000D02*
X171216252Y-81035000D01*
%TO.C,K1*%
X192686000Y-104884000D02*
X192686000Y-133104000D01*
X192686000Y-104884000D02*
X195296000Y-104884000D01*
X192686000Y-133104000D02*
X197906000Y-133104000D01*
X196706000Y-104434000D02*
X198206000Y-104434000D01*
X197906000Y-125094000D02*
X197906000Y-104884000D01*
X197906000Y-126634000D02*
X197906000Y-130114000D01*
X197906000Y-131694000D02*
X197906000Y-133104000D01*
X198206000Y-104434000D02*
X198206000Y-105934000D01*
%TO.C,J4*%
X131270000Y-113195000D02*
X131270000Y-84345000D01*
X132330000Y-83285000D02*
X142830000Y-83285000D01*
X133370000Y-93437579D02*
X133370000Y-104102421D01*
X139841744Y-90903530D02*
X134741744Y-91802798D01*
X139841744Y-106636470D02*
X134741744Y-105737202D01*
X141790000Y-92538311D02*
X141790000Y-105001689D01*
X142830000Y-114255000D02*
X132330000Y-114255000D01*
X143890000Y-84345000D02*
X143890000Y-113195000D01*
X144351325Y-93230000D02*
X144784338Y-92980000D01*
X144784338Y-92980000D02*
X144784338Y-93480000D01*
X144784338Y-93480000D02*
X144351325Y-93230000D01*
X131270000Y-84345000D02*
G75*
G02*
X132330000Y-83285000I1060001J-1D01*
G01*
X132330000Y-114255000D02*
G75*
G02*
X131270000Y-113195000I0J1060000D01*
G01*
X133370000Y-93437579D02*
G75*
G02*
X134741744Y-91802798I1659999J1D01*
G01*
X134741744Y-105737202D02*
G75*
G02*
X133369999Y-104102421I288256J1634782D01*
G01*
X139841744Y-90903530D02*
G75*
G02*
X141790000Y-92538311I288256J-1634781D01*
G01*
X141790000Y-105001689D02*
G75*
G02*
X139841742Y-106636481I-1660000J-11D01*
G01*
X142830000Y-83285000D02*
G75*
G02*
X143890000Y-84345000I-1J-1060001D01*
G01*
X143890000Y-113195000D02*
G75*
G02*
X142830000Y-114255000I-1060000J0D01*
G01*
%TO.C,U5*%
X180086000Y-78531000D02*
X179286000Y-78531000D01*
X180086000Y-78531000D02*
X180886000Y-78531000D01*
X180086000Y-81651000D02*
X179286000Y-81651000D01*
X180086000Y-81651000D02*
X180886000Y-81651000D01*
X178786000Y-78581000D02*
X178546000Y-78251000D01*
X179026000Y-78251000D01*
X178786000Y-78581000D01*
G36*
X178786000Y-78581000D02*
G01*
X178546000Y-78251000D01*
X179026000Y-78251000D01*
X178786000Y-78581000D01*
G37*
%TO.C,D1*%
X157680000Y-117120000D02*
X152950000Y-117120000D01*
X157680000Y-121640000D02*
X153880000Y-121640000D01*
X152530000Y-117240000D02*
X152290000Y-116910000D01*
X152770000Y-116910000D01*
X152530000Y-117240000D01*
G36*
X152530000Y-117240000D02*
G01*
X152290000Y-116910000D01*
X152770000Y-116910000D01*
X152530000Y-117240000D01*
G37*
%TO.C,R13*%
X187812000Y-123838564D02*
X187812000Y-122384436D01*
X189632000Y-123838564D02*
X189632000Y-122384436D01*
%TO.C,C10*%
X159766000Y-100689000D02*
X159766000Y-102559000D01*
X159766000Y-102559000D02*
X163676000Y-102559000D01*
X163676000Y-100689000D02*
X159766000Y-100689000D01*
%TO.C,J1*%
X134924000Y-118771000D02*
X134924000Y-129621000D01*
X134924000Y-129621000D02*
X147524000Y-129621000D01*
X139724000Y-119271000D02*
X140024000Y-118771000D01*
X140024000Y-118771000D02*
X134924000Y-118771000D01*
X144874000Y-118771000D02*
X145124000Y-119271000D01*
X144924000Y-118771000D02*
X144874000Y-118771000D01*
X145124000Y-119271000D02*
X139724000Y-119271000D01*
X146574000Y-119271000D02*
X146824000Y-118771000D01*
X146824000Y-118771000D02*
X144924000Y-118771000D01*
X147524000Y-119271000D02*
X146574000Y-119271000D01*
X147524000Y-129621000D02*
X147524000Y-119271000D01*
%TD*%
M02*
