%TF.GenerationSoftware,KiCad,Pcbnew,8.0.9*%
%TF.CreationDate,2025-04-23T13:20:28+02:00*%
%TF.ProjectId,Dijous_D_Combustible,44696a6f-7573-45f4-945f-436f6d627573,rev?*%
%TF.SameCoordinates,Original*%
%TF.FileFunction,Copper,L2,Bot*%
%TF.FilePolarity,Positive*%
%FSLAX46Y46*%
G04 Gerber Fmt 4.6, Leading zero omitted, Abs format (unit mm)*
G04 Created by KiCad (PCBNEW 8.0.9) date 2025-04-23 13:20:28*
%MOMM*%
%LPD*%
G01*
G04 APERTURE LIST*
G04 Aperture macros list*
%AMRoundRect*
0 Rectangle with rounded corners*
0 $1 Rounding radius*
0 $2 $3 $4 $5 $6 $7 $8 $9 X,Y pos of 4 corners*
0 Add a 4 corners polygon primitive as box body*
4,1,4,$2,$3,$4,$5,$6,$7,$8,$9,$2,$3,0*
0 Add four circle primitives for the rounded corners*
1,1,$1+$1,$2,$3*
1,1,$1+$1,$4,$5*
1,1,$1+$1,$6,$7*
1,1,$1+$1,$8,$9*
0 Add four rect primitives between the rounded corners*
20,1,$1+$1,$2,$3,$4,$5,0*
20,1,$1+$1,$4,$5,$6,$7,0*
20,1,$1+$1,$6,$7,$8,$9,0*
20,1,$1+$1,$8,$9,$2,$3,0*%
G04 Aperture macros list end*
%TA.AperFunction,ComponentPad*%
%ADD10R,3.200000X3.200000*%
%TD*%
%TA.AperFunction,ComponentPad*%
%ADD11O,3.200000X3.200000*%
%TD*%
%TA.AperFunction,ComponentPad*%
%ADD12R,1.700000X1.700000*%
%TD*%
%TA.AperFunction,ComponentPad*%
%ADD13O,1.700000X1.700000*%
%TD*%
%TA.AperFunction,ComponentPad*%
%ADD14R,2.030000X1.730000*%
%TD*%
%TA.AperFunction,ComponentPad*%
%ADD15O,2.030000X1.730000*%
%TD*%
%TA.AperFunction,ComponentPad*%
%ADD16C,2.400000*%
%TD*%
%TA.AperFunction,ComponentPad*%
%ADD17R,2.000000X2.000000*%
%TD*%
%TA.AperFunction,ComponentPad*%
%ADD18C,2.000000*%
%TD*%
%TA.AperFunction,ComponentPad*%
%ADD19R,1.600000X1.600000*%
%TD*%
%TA.AperFunction,ComponentPad*%
%ADD20C,1.600000*%
%TD*%
%TA.AperFunction,ComponentPad*%
%ADD21R,3.960000X1.980000*%
%TD*%
%TA.AperFunction,ComponentPad*%
%ADD22O,3.960000X1.980000*%
%TD*%
%TA.AperFunction,SMDPad,CuDef*%
%ADD23RoundRect,0.250000X0.312500X0.625000X-0.312500X0.625000X-0.312500X-0.625000X0.312500X-0.625000X0*%
%TD*%
%TA.AperFunction,SMDPad,CuDef*%
%ADD24RoundRect,0.250000X0.625000X-0.312500X0.625000X0.312500X-0.625000X0.312500X-0.625000X-0.312500X0*%
%TD*%
%TA.AperFunction,SMDPad,CuDef*%
%ADD25RoundRect,0.250000X-0.325000X-0.650000X0.325000X-0.650000X0.325000X0.650000X-0.325000X0.650000X0*%
%TD*%
%TA.AperFunction,SMDPad,CuDef*%
%ADD26RoundRect,0.250000X-0.650000X0.325000X-0.650000X-0.325000X0.650000X-0.325000X0.650000X0.325000X0*%
%TD*%
%TA.AperFunction,SMDPad,CuDef*%
%ADD27RoundRect,0.250000X0.325000X0.650000X-0.325000X0.650000X-0.325000X-0.650000X0.325000X-0.650000X0*%
%TD*%
%TA.AperFunction,SMDPad,CuDef*%
%ADD28RoundRect,0.250000X-0.625000X0.312500X-0.625000X-0.312500X0.625000X-0.312500X0.625000X0.312500X0*%
%TD*%
%TA.AperFunction,ViaPad*%
%ADD29C,0.600000*%
%TD*%
%TA.AperFunction,ViaPad*%
%ADD30C,0.900000*%
%TD*%
%TA.AperFunction,Conductor*%
%ADD31C,0.300000*%
%TD*%
%TA.AperFunction,Conductor*%
%ADD32C,0.200000*%
%TD*%
G04 APERTURE END LIST*
D10*
%TO.P,D2,1,K*%
%TO.N,Vout_Buck*%
X165608000Y-119888000D03*
D11*
%TO.P,D2,2,A*%
%TO.N,GNDPWR*%
X165608000Y-135128000D03*
%TD*%
D12*
%TO.P,J6,1,Pin_1*%
%TO.N,Solenoide*%
X202946000Y-83820000D03*
D13*
%TO.P,J6,2,Pin_2*%
%TO.N,GNDPWR*%
X202946000Y-81280000D03*
%TD*%
D12*
%TO.P,J8,1,Pin_1*%
%TO.N,GND*%
X144780000Y-80645000D03*
D13*
%TO.P,J8,2,Pin_2*%
%TO.N,unconnected-(J8-Pin_2-Pad2)*%
X142240000Y-80645000D03*
%TO.P,J8,3,Pin_3*%
%TO.N,+5V*%
X139700000Y-80645000D03*
%TO.P,J8,4,Pin_4*%
%TO.N,TXD*%
X137160000Y-80645000D03*
%TO.P,J8,5,Pin_5*%
%TO.N,RXD*%
X134620000Y-80645000D03*
%TO.P,J8,6,Pin_6*%
%TO.N,unconnected-(J8-Pin_6-Pad6)*%
X132080000Y-80645000D03*
%TD*%
D14*
%TO.P,JP1,1,A*%
%TO.N,MCLR*%
X180705000Y-90805000D03*
D15*
%TO.P,JP1,2,C*%
%TO.N,Net-(JP1-C)*%
X180705000Y-88265000D03*
%TO.P,JP1,3,B*%
%TO.N,Net-(JP1-B)*%
X180705000Y-85725000D03*
%TD*%
D16*
%TO.P,K2,13*%
%TO.N,Solenoide*%
X194818000Y-81026000D03*
%TO.P,K2,14*%
%TO.N,Vbat*%
X194818000Y-75986000D03*
D17*
%TO.P,K2,A1*%
X194818000Y-101186000D03*
D18*
%TO.P,K2,A2*%
%TO.N,Retorn_dip*%
X194818000Y-97406000D03*
%TD*%
D12*
%TO.P,J7,1,Pin_1*%
%TO.N,Nivell_combustible*%
X186685000Y-77470000D03*
D13*
%TO.P,J7,2,Pin_2*%
%TO.N,GND*%
X189225000Y-77470000D03*
%TD*%
D12*
%TO.P,J2,1,Pin_1*%
%TO.N,GND*%
X147000000Y-74000000D03*
D13*
%TO.P,J2,2,Pin_2*%
%TO.N,Boto*%
X144460000Y-74000000D03*
%TD*%
D12*
%TO.P,J5,1,Pin_1*%
%TO.N,Bomba_combustible*%
X203200000Y-122192000D03*
D13*
%TO.P,J5,2,Pin_2*%
%TO.N,GNDPWR*%
X203200000Y-124732000D03*
%TD*%
D12*
%TO.P,J3,1,Pin_1*%
%TO.N,MCLR*%
X177546000Y-98552000D03*
D13*
%TO.P,J3,2,Pin_2*%
%TO.N,+5V*%
X177546000Y-101092000D03*
%TO.P,J3,3,Pin_3*%
%TO.N,GND*%
X175006000Y-98552000D03*
%TO.P,J3,4,Pin_4*%
%TO.N,PGD*%
X175006000Y-101092000D03*
%TO.P,J3,5,Pin_5*%
%TO.N,PGC*%
X172466000Y-98552000D03*
%TO.P,J3,6,Pin_6*%
%TO.N,unconnected-(J3-Pin_6-Pad6)*%
X172466000Y-101092000D03*
%TD*%
D16*
%TO.P,K1,13*%
%TO.N,Bomba_combustible*%
X196596000Y-125854000D03*
%TO.P,K1,14*%
%TO.N,Vbat*%
X196596000Y-130894000D03*
D17*
%TO.P,K1,A1*%
X196596000Y-105694000D03*
D18*
%TO.P,K1,A2*%
%TO.N,Retorn_sol*%
X196596000Y-109474000D03*
%TD*%
D19*
%TO.P,J4,1,1*%
%TO.N,unconnected-(J4-Pad1)*%
X139000000Y-93230000D03*
D20*
%TO.P,J4,2,2*%
%TO.N,/Can-*%
X139000000Y-96000000D03*
%TO.P,J4,3,3*%
%TO.N,unconnected-(J4-Pad3)*%
X139000000Y-98770000D03*
%TO.P,J4,4,4*%
%TO.N,unconnected-(J4-Pad4)*%
X139000000Y-101540000D03*
%TO.P,J4,5,5*%
%TO.N,unconnected-(J4-Pad5)*%
X139000000Y-104310000D03*
%TO.P,J4,6,6*%
%TO.N,unconnected-(J4-Pad6)*%
X136160000Y-94615000D03*
%TO.P,J4,7,7*%
%TO.N,/Can+*%
X136160000Y-97385000D03*
%TO.P,J4,8,8*%
%TO.N,unconnected-(J4-Pad8)*%
X136160000Y-100155000D03*
%TO.P,J4,9,9*%
%TO.N,unconnected-(J4-Pad9)*%
X136160000Y-102925000D03*
%TD*%
D21*
%TO.P,J1,1,Pin_1*%
%TO.N,GNDPWR*%
X141224000Y-126971000D03*
D22*
%TO.P,J1,2,Pin_2*%
%TO.N,Vbat*%
X141224000Y-121971000D03*
%TD*%
D23*
%TO.P,R8,1*%
%TO.N,Boto*%
X143111500Y-76911000D03*
%TO.P,R8,2*%
%TO.N,GND*%
X140186500Y-76911000D03*
%TD*%
D24*
%TO.P,R1,1*%
%TO.N,Net-(U1-S)*%
X148590000Y-101157500D03*
%TO.P,R1,2*%
%TO.N,GND*%
X148590000Y-98232500D03*
%TD*%
D23*
%TO.P,R4,1*%
%TO.N,GNDPWR*%
X189422500Y-110490000D03*
%TO.P,R4,2*%
%TO.N,GND*%
X186497500Y-110490000D03*
%TD*%
D25*
%TO.P,C4,1*%
%TO.N,Net-(C4-Pad1)*%
X146025000Y-90250000D03*
%TO.P,C4,2*%
%TO.N,GND*%
X148975000Y-90250000D03*
%TD*%
D26*
%TO.P,C1,1*%
%TO.N,+5V*%
X151765000Y-98220000D03*
%TO.P,C1,2*%
%TO.N,GND*%
X151765000Y-101170000D03*
%TD*%
D23*
%TO.P,R5,1*%
%TO.N,Net-(U2-FB)*%
X162462500Y-117500000D03*
%TO.P,R5,2*%
%TO.N,GNDPWR*%
X159537500Y-117500000D03*
%TD*%
D27*
%TO.P,C9,1*%
%TO.N,GND*%
X165940000Y-89154000D03*
%TO.P,C9,2*%
%TO.N,+5V*%
X162990000Y-89154000D03*
%TD*%
D28*
%TO.P,R2,1*%
%TO.N,/Can+*%
X144780000Y-100137500D03*
%TO.P,R2,2*%
%TO.N,Net-(C4-Pad1)*%
X144780000Y-103062500D03*
%TD*%
%TO.P,R3,1*%
%TO.N,Net-(C4-Pad1)*%
X144653000Y-94422500D03*
%TO.P,R3,2*%
%TO.N,/Can-*%
X144653000Y-97347500D03*
%TD*%
D29*
%TO.N,+5V*%
X161036000Y-88900000D03*
X156210000Y-99060000D03*
X163245000Y-92202000D03*
%TO.N,GND*%
X172974000Y-75946000D03*
X154940000Y-75946000D03*
X182626000Y-78994000D03*
X165735000Y-75946000D03*
X188500000Y-92250000D03*
X190250000Y-87750000D03*
X189750000Y-90750000D03*
X190250000Y-83500000D03*
X173990000Y-79375000D03*
X150495000Y-78105000D03*
X177800000Y-113030000D03*
X168000000Y-104000000D03*
X163195000Y-75946000D03*
X157988000Y-75946000D03*
X151130000Y-75946000D03*
X161925000Y-75946000D03*
X173990000Y-76835000D03*
X165100000Y-87010000D03*
X170180000Y-75946000D03*
X173990000Y-78105000D03*
X163576000Y-100076000D03*
X168148000Y-73025000D03*
X173990000Y-80645000D03*
X167005000Y-75946000D03*
X161671000Y-92456000D03*
X188500000Y-89250000D03*
X150495000Y-81915000D03*
X182196000Y-76454000D03*
X156210000Y-100330000D03*
X186055000Y-99695000D03*
X182323000Y-73025000D03*
X150495000Y-79375000D03*
X150495000Y-80645000D03*
X160655000Y-75946000D03*
X181356000Y-77963500D03*
X163576000Y-103124000D03*
X150495000Y-76835000D03*
X164465000Y-83058000D03*
X165076000Y-101624000D03*
X171450000Y-75946000D03*
X162560000Y-95758000D03*
X164465000Y-75946000D03*
X153670000Y-75946000D03*
X183388000Y-74676000D03*
X168275000Y-75946000D03*
X156464000Y-75946000D03*
X173990000Y-81915000D03*
X152400000Y-75946000D03*
X159385000Y-75946000D03*
X185420000Y-94615000D03*
X177546000Y-80010000D03*
%TO.N,Net-(U2-FB)*%
X164500000Y-111000000D03*
D30*
%TO.N,GNDPWR*%
X175260000Y-128016000D03*
D29*
X145000000Y-108250000D03*
X145000000Y-106250000D03*
X145000000Y-112000000D03*
X162600000Y-109800000D03*
D30*
X200660000Y-113665000D03*
X200660000Y-93345000D03*
D29*
X145000000Y-114750000D03*
D30*
X205740000Y-113665000D03*
D29*
X145000000Y-113500000D03*
D30*
X155300000Y-136100000D03*
D29*
X145000000Y-105000000D03*
X159500000Y-105250000D03*
D30*
X205105000Y-93345000D03*
D29*
X145000000Y-110250000D03*
D30*
X172850000Y-133062500D03*
D29*
X189230000Y-98425000D03*
X189230000Y-106680000D03*
%TO.N,Boto*%
X147000000Y-76708000D03*
%TO.N,Net-(U1-S)*%
X148590000Y-102870000D03*
%TO.N,SCA*%
X156972000Y-95758000D03*
X182626000Y-81026000D03*
%TO.N,SCL*%
X154940000Y-87122000D03*
X182626000Y-80010000D03*
%TO.N,/Can-*%
X146685000Y-97790000D03*
%TO.N,/Can+*%
X146685000Y-100330000D03*
%TD*%
D31*
%TO.N,+5V*%
X161036000Y-88900000D02*
X162736000Y-88900000D01*
X163245000Y-89409000D02*
X162990000Y-89154000D01*
X151765000Y-98220000D02*
X155370000Y-98220000D01*
X155370000Y-98220000D02*
X156210000Y-99060000D01*
X163245000Y-92202000D02*
X163245000Y-89409000D01*
X162736000Y-88900000D02*
X162990000Y-89154000D01*
D32*
%TO.N,GND*%
X139998000Y-77099500D02*
X140186500Y-76911000D01*
D31*
X155370000Y-101170000D02*
X151765000Y-101170000D01*
D32*
X140125000Y-76849500D02*
X140186500Y-76911000D01*
X165100000Y-87010000D02*
X165940000Y-87850000D01*
D31*
X156210000Y-100330000D02*
X155370000Y-101170000D01*
D32*
X165940000Y-87850000D02*
X165940000Y-89154000D01*
D31*
%TO.N,Net-(C4-Pad1)*%
X144653000Y-94422500D02*
X146025000Y-93050500D01*
X143000000Y-101282500D02*
X143000000Y-96075500D01*
X143000000Y-96075500D02*
X144653000Y-94422500D01*
X146025000Y-93050500D02*
X146025000Y-90250000D01*
X144780000Y-103062500D02*
X143000000Y-101282500D01*
%TO.N,Net-(U2-FB)*%
X162462500Y-117500000D02*
X162462500Y-113037500D01*
X162462500Y-113037500D02*
X164500000Y-111000000D01*
%TO.N,Boto*%
X143314500Y-76708000D02*
X143111500Y-76911000D01*
X147000000Y-76708000D02*
X143314500Y-76708000D01*
%TO.N,MCLR*%
X177546000Y-93964000D02*
X180705000Y-90805000D01*
X177546000Y-98552000D02*
X177546000Y-93964000D01*
%TO.N,Net-(U1-S)*%
X148590000Y-102870000D02*
X148590000Y-101157500D01*
%TO.N,SCA*%
X161544000Y-95758000D02*
X165608000Y-91694000D01*
X165608000Y-91694000D02*
X171958000Y-91694000D01*
X156972000Y-95758000D02*
X161544000Y-95758000D01*
X171958000Y-91694000D02*
X182626000Y-81026000D01*
%TO.N,SCL*%
X154940000Y-87122000D02*
X155702000Y-86360000D01*
X180340000Y-80010000D02*
X182626000Y-80010000D01*
X173990000Y-86360000D02*
X180340000Y-80010000D01*
X155702000Y-86360000D02*
X173990000Y-86360000D01*
D32*
%TO.N,/Can-*%
X145095500Y-97790000D02*
X144653000Y-97347500D01*
X146685000Y-97790000D02*
X145095500Y-97790000D01*
%TO.N,/Can+*%
X144972500Y-100330000D02*
X144780000Y-100137500D01*
X146685000Y-100330000D02*
X144972500Y-100330000D01*
%TD*%
%TA.AperFunction,Conductor*%
%TO.N,GND*%
G36*
X191078039Y-71640185D02*
G01*
X191123794Y-71692989D01*
X191135000Y-71744500D01*
X191135000Y-93856000D01*
X191115315Y-93923039D01*
X191062511Y-93968794D01*
X191011000Y-93980000D01*
X187960000Y-93980000D01*
X187960000Y-114811000D01*
X187940315Y-114878039D01*
X187887511Y-114923794D01*
X187836000Y-114935000D01*
X163954000Y-114935000D01*
X163886961Y-114915315D01*
X163841206Y-114862511D01*
X163830000Y-114811000D01*
X163830000Y-112641307D01*
X163849685Y-112574268D01*
X163866319Y-112553626D01*
X164070423Y-112349522D01*
X164598224Y-111821720D01*
X164659545Y-111788237D01*
X164672019Y-111786183D01*
X164679255Y-111785368D01*
X164849522Y-111725789D01*
X165002262Y-111629816D01*
X165129816Y-111502262D01*
X165225789Y-111349522D01*
X165285368Y-111179255D01*
X165286973Y-111165009D01*
X165286976Y-111164986D01*
X185435001Y-111164986D01*
X185445494Y-111267697D01*
X185500641Y-111434119D01*
X185500643Y-111434124D01*
X185592684Y-111583345D01*
X185716654Y-111707315D01*
X185865875Y-111799356D01*
X185865880Y-111799358D01*
X186032302Y-111854505D01*
X186032309Y-111854506D01*
X186135019Y-111864999D01*
X186247499Y-111864999D01*
X186747500Y-111864999D01*
X186859972Y-111864999D01*
X186859986Y-111864998D01*
X186962697Y-111854505D01*
X187129119Y-111799358D01*
X187129124Y-111799356D01*
X187278345Y-111707315D01*
X187402315Y-111583345D01*
X187494356Y-111434124D01*
X187494358Y-111434119D01*
X187549505Y-111267697D01*
X187549506Y-111267690D01*
X187559999Y-111164986D01*
X187560000Y-111164973D01*
X187560000Y-110740000D01*
X186747500Y-110740000D01*
X186747500Y-111864999D01*
X186247499Y-111864999D01*
X186247500Y-111864998D01*
X186247500Y-110740000D01*
X185435001Y-110740000D01*
X185435001Y-111164986D01*
X165286976Y-111164986D01*
X165305565Y-111000003D01*
X165305565Y-110999996D01*
X165285369Y-110820750D01*
X165285368Y-110820745D01*
X165225788Y-110650476D01*
X165184878Y-110585368D01*
X165129816Y-110497738D01*
X165002262Y-110370184D01*
X164977850Y-110354845D01*
X164849523Y-110274211D01*
X164679254Y-110214631D01*
X164679249Y-110214630D01*
X164500004Y-110194435D01*
X164499996Y-110194435D01*
X164320750Y-110214630D01*
X164320745Y-110214631D01*
X164150476Y-110274211D01*
X164019972Y-110356213D01*
X163952735Y-110375213D01*
X163885900Y-110354845D01*
X163840686Y-110301577D01*
X163830000Y-110251219D01*
X163830000Y-109815013D01*
X185435000Y-109815013D01*
X185435000Y-110240000D01*
X186247500Y-110240000D01*
X186747500Y-110240000D01*
X187559999Y-110240000D01*
X187559999Y-109815028D01*
X187559998Y-109815013D01*
X187549505Y-109712302D01*
X187494358Y-109545880D01*
X187494356Y-109545875D01*
X187402315Y-109396654D01*
X187278345Y-109272684D01*
X187129124Y-109180643D01*
X187129119Y-109180641D01*
X186962697Y-109125494D01*
X186962690Y-109125493D01*
X186859986Y-109115000D01*
X186747500Y-109115000D01*
X186747500Y-110240000D01*
X186247500Y-110240000D01*
X186247500Y-109115000D01*
X186135027Y-109115000D01*
X186135012Y-109115001D01*
X186032302Y-109125494D01*
X185865880Y-109180641D01*
X185865875Y-109180643D01*
X185716654Y-109272684D01*
X185592684Y-109396654D01*
X185500643Y-109545875D01*
X185500641Y-109545880D01*
X185445494Y-109712302D01*
X185445493Y-109712309D01*
X185435000Y-109815013D01*
X163830000Y-109815013D01*
X163830000Y-103505000D01*
X149360772Y-103505000D01*
X149293733Y-103485315D01*
X149247978Y-103432511D01*
X149238034Y-103363353D01*
X149255779Y-103315027D01*
X149315788Y-103219524D01*
X149339522Y-103151697D01*
X149375368Y-103049255D01*
X149377798Y-103027690D01*
X149395565Y-102870003D01*
X149395565Y-102869996D01*
X149375369Y-102690750D01*
X149375366Y-102690737D01*
X149315790Y-102520481D01*
X149315789Y-102520478D01*
X149294008Y-102485814D01*
X149259506Y-102430903D01*
X149240500Y-102364931D01*
X149240500Y-102334981D01*
X149260185Y-102267942D01*
X149312989Y-102222187D01*
X149351899Y-102211623D01*
X149352391Y-102211572D01*
X149367797Y-102209999D01*
X149534334Y-102154814D01*
X149683656Y-102062712D01*
X149807712Y-101938656D01*
X149899814Y-101789334D01*
X149954999Y-101622797D01*
X149962948Y-101544986D01*
X150365001Y-101544986D01*
X150375494Y-101647697D01*
X150430641Y-101814119D01*
X150430643Y-101814124D01*
X150522684Y-101963345D01*
X150646654Y-102087315D01*
X150795875Y-102179356D01*
X150795880Y-102179358D01*
X150962302Y-102234505D01*
X150962309Y-102234506D01*
X151065019Y-102244999D01*
X151514999Y-102244999D01*
X152015000Y-102244999D01*
X152464972Y-102244999D01*
X152464986Y-102244998D01*
X152567697Y-102234505D01*
X152734119Y-102179358D01*
X152734124Y-102179356D01*
X152883345Y-102087315D01*
X153007315Y-101963345D01*
X153099356Y-101814124D01*
X153099358Y-101814119D01*
X153154505Y-101647697D01*
X153154506Y-101647690D01*
X153164999Y-101544986D01*
X153165000Y-101544973D01*
X153165000Y-101420000D01*
X152015000Y-101420000D01*
X152015000Y-102244999D01*
X151514999Y-102244999D01*
X151515000Y-102244998D01*
X151515000Y-101420000D01*
X150365001Y-101420000D01*
X150365001Y-101544986D01*
X149962948Y-101544986D01*
X149965500Y-101520009D01*
X149965499Y-100795013D01*
X150365000Y-100795013D01*
X150365000Y-100920000D01*
X151515000Y-100920000D01*
X152015000Y-100920000D01*
X153164999Y-100920000D01*
X153164999Y-100795028D01*
X153164998Y-100795013D01*
X153154505Y-100692302D01*
X153099358Y-100525880D01*
X153099356Y-100525875D01*
X153007315Y-100376654D01*
X152883345Y-100252684D01*
X152734124Y-100160643D01*
X152734119Y-100160641D01*
X152567697Y-100105494D01*
X152567690Y-100105493D01*
X152464986Y-100095000D01*
X152015000Y-100095000D01*
X152015000Y-100920000D01*
X151515000Y-100920000D01*
X151515000Y-100095000D01*
X151065028Y-100095000D01*
X151065012Y-100095001D01*
X150962302Y-100105494D01*
X150795880Y-100160641D01*
X150795875Y-100160643D01*
X150646654Y-100252684D01*
X150522684Y-100376654D01*
X150430643Y-100525875D01*
X150430641Y-100525880D01*
X150375494Y-100692302D01*
X150375493Y-100692309D01*
X150365000Y-100795013D01*
X149965499Y-100795013D01*
X149965499Y-100794992D01*
X149954999Y-100692203D01*
X149899814Y-100525666D01*
X149807712Y-100376344D01*
X149683656Y-100252288D01*
X149534334Y-100160186D01*
X149367797Y-100105001D01*
X149367795Y-100105000D01*
X149265010Y-100094500D01*
X147914998Y-100094500D01*
X147914981Y-100094501D01*
X147812203Y-100105000D01*
X147812200Y-100105001D01*
X147645668Y-100160185D01*
X147645660Y-100160189D01*
X147635417Y-100166507D01*
X147568024Y-100184944D01*
X147501361Y-100164018D01*
X147456594Y-100110374D01*
X147453283Y-100101919D01*
X147410789Y-99980478D01*
X147383269Y-99936681D01*
X147314816Y-99827738D01*
X147187262Y-99700184D01*
X147034523Y-99604211D01*
X146864254Y-99544631D01*
X146864249Y-99544630D01*
X146685004Y-99524435D01*
X146684996Y-99524435D01*
X146505750Y-99544630D01*
X146505745Y-99544631D01*
X146335474Y-99604212D01*
X146293101Y-99630837D01*
X146225865Y-99649837D01*
X146159030Y-99629469D01*
X146113816Y-99576201D01*
X146109428Y-99564859D01*
X146089814Y-99505666D01*
X145997712Y-99356344D01*
X145873656Y-99232288D01*
X145748275Y-99154953D01*
X145724336Y-99140187D01*
X145724331Y-99140185D01*
X145709468Y-99135260D01*
X145557797Y-99085001D01*
X145557795Y-99085000D01*
X145455010Y-99074500D01*
X144104998Y-99074500D01*
X144104981Y-99074501D01*
X144002203Y-99085000D01*
X144002200Y-99085001D01*
X143835668Y-99140185D01*
X143829118Y-99143240D01*
X143828040Y-99140929D01*
X143772170Y-99156200D01*
X143705513Y-99135260D01*
X143660758Y-99081605D01*
X143650500Y-99032222D01*
X143650500Y-98497259D01*
X143670185Y-98430220D01*
X143722989Y-98384465D01*
X143792147Y-98374521D01*
X143813491Y-98379549D01*
X143875203Y-98399999D01*
X143977991Y-98410500D01*
X145328008Y-98410499D01*
X145430797Y-98399999D01*
X145435729Y-98398364D01*
X145440470Y-98396794D01*
X145479474Y-98390500D01*
X146102588Y-98390500D01*
X146169627Y-98410185D01*
X146179903Y-98417555D01*
X146182736Y-98419814D01*
X146182738Y-98419816D01*
X146277742Y-98479511D01*
X146335124Y-98515567D01*
X146335478Y-98515789D01*
X146505745Y-98575368D01*
X146505750Y-98575369D01*
X146684996Y-98595565D01*
X146685000Y-98595565D01*
X146685004Y-98595565D01*
X146864249Y-98575369D01*
X146864252Y-98575368D01*
X146864255Y-98575368D01*
X147034522Y-98515789D01*
X147034531Y-98515782D01*
X147039616Y-98513335D01*
X147108557Y-98501977D01*
X147172694Y-98529695D01*
X147211664Y-98587687D01*
X147216785Y-98612449D01*
X147225494Y-98697696D01*
X147280641Y-98864119D01*
X147280643Y-98864124D01*
X147372684Y-99013345D01*
X147496654Y-99137315D01*
X147645875Y-99229356D01*
X147645880Y-99229358D01*
X147812302Y-99284505D01*
X147812309Y-99284506D01*
X147915019Y-99294999D01*
X148339999Y-99294999D01*
X148840000Y-99294999D01*
X149264972Y-99294999D01*
X149264986Y-99294998D01*
X149367697Y-99284505D01*
X149534119Y-99229358D01*
X149534124Y-99229356D01*
X149683345Y-99137315D01*
X149807315Y-99013345D01*
X149899356Y-98864124D01*
X149899358Y-98864119D01*
X149954505Y-98697697D01*
X149954506Y-98697690D01*
X149964999Y-98594986D01*
X149965000Y-98594973D01*
X149965000Y-98482500D01*
X148840000Y-98482500D01*
X148840000Y-99294999D01*
X148339999Y-99294999D01*
X148340000Y-99294998D01*
X148340000Y-97982500D01*
X148840000Y-97982500D01*
X149964999Y-97982500D01*
X149964999Y-97870028D01*
X149964998Y-97870013D01*
X149962441Y-97844983D01*
X150364500Y-97844983D01*
X150364500Y-98595001D01*
X150364501Y-98595019D01*
X150375000Y-98697796D01*
X150375001Y-98697799D01*
X150415101Y-98818812D01*
X150430186Y-98864334D01*
X150522288Y-99013656D01*
X150646344Y-99137712D01*
X150795666Y-99229814D01*
X150962203Y-99284999D01*
X151064991Y-99295500D01*
X152465008Y-99295499D01*
X152567797Y-99284999D01*
X152734334Y-99229814D01*
X152883656Y-99137712D01*
X153007712Y-99013656D01*
X153059680Y-98929402D01*
X153111627Y-98882679D01*
X153165218Y-98870500D01*
X155049192Y-98870500D01*
X155116231Y-98890185D01*
X155136873Y-98906819D01*
X155388277Y-99158223D01*
X155421762Y-99219546D01*
X155423815Y-99232012D01*
X155424630Y-99239246D01*
X155424632Y-99239255D01*
X155484210Y-99409521D01*
X155547020Y-99509482D01*
X155580184Y-99562262D01*
X155707738Y-99689816D01*
X155724239Y-99700184D01*
X155843310Y-99775002D01*
X155860478Y-99785789D01*
X156027393Y-99844195D01*
X156030745Y-99845368D01*
X156030750Y-99845369D01*
X156209996Y-99865565D01*
X156210000Y-99865565D01*
X156210004Y-99865565D01*
X156389249Y-99845369D01*
X156389252Y-99845368D01*
X156389255Y-99845368D01*
X156559522Y-99785789D01*
X156712262Y-99689816D01*
X156839816Y-99562262D01*
X156935789Y-99409522D01*
X156995368Y-99239255D01*
X156995369Y-99239246D01*
X157015565Y-99060003D01*
X157015565Y-99059996D01*
X156995369Y-98880750D01*
X156995368Y-98880745D01*
X156956617Y-98770001D01*
X156935789Y-98710478D01*
X156927820Y-98697796D01*
X156873746Y-98611738D01*
X156839816Y-98557738D01*
X156712262Y-98430184D01*
X156704012Y-98425000D01*
X156559521Y-98334210D01*
X156389255Y-98274632D01*
X156389246Y-98274630D01*
X156382012Y-98273815D01*
X156317600Y-98246744D01*
X156308223Y-98238277D01*
X155784674Y-97714727D01*
X155784673Y-97714726D01*
X155693982Y-97654129D01*
X155678127Y-97643535D01*
X155668704Y-97639632D01*
X155559744Y-97594499D01*
X155559738Y-97594497D01*
X155434071Y-97569500D01*
X155434069Y-97569500D01*
X153165218Y-97569500D01*
X153098179Y-97549815D01*
X153059679Y-97510597D01*
X153045550Y-97487690D01*
X153007712Y-97426344D01*
X152883656Y-97302288D01*
X152734334Y-97210186D01*
X152567797Y-97155001D01*
X152567795Y-97155000D01*
X152465010Y-97144500D01*
X151064998Y-97144500D01*
X151064981Y-97144501D01*
X150962203Y-97155000D01*
X150962200Y-97155001D01*
X150795668Y-97210185D01*
X150795663Y-97210187D01*
X150646342Y-97302289D01*
X150522289Y-97426342D01*
X150430187Y-97575663D01*
X150430185Y-97575668D01*
X150421831Y-97600880D01*
X150375001Y-97742203D01*
X150375001Y-97742204D01*
X150375000Y-97742204D01*
X150364500Y-97844983D01*
X149962441Y-97844983D01*
X149954505Y-97767302D01*
X149899358Y-97600880D01*
X149899356Y-97600875D01*
X149807315Y-97451654D01*
X149683345Y-97327684D01*
X149534124Y-97235643D01*
X149534119Y-97235641D01*
X149367697Y-97180494D01*
X149367690Y-97180493D01*
X149264986Y-97170000D01*
X148840000Y-97170000D01*
X148840000Y-97982500D01*
X148340000Y-97982500D01*
X148340000Y-97170000D01*
X147915028Y-97170000D01*
X147915012Y-97170001D01*
X147812302Y-97180494D01*
X147645880Y-97235641D01*
X147645875Y-97235643D01*
X147490509Y-97331475D01*
X147489161Y-97329290D01*
X147435493Y-97350921D01*
X147366855Y-97337857D01*
X147318428Y-97293485D01*
X147314818Y-97287740D01*
X147187262Y-97160184D01*
X147034523Y-97064211D01*
X146864254Y-97004631D01*
X146864249Y-97004630D01*
X146685004Y-96984435D01*
X146684996Y-96984435D01*
X146505750Y-97004630D01*
X146505745Y-97004631D01*
X146335476Y-97064211D01*
X146218471Y-97137731D01*
X146151234Y-97156731D01*
X146084399Y-97136363D01*
X146039185Y-97083095D01*
X146028499Y-97032737D01*
X146028499Y-96984998D01*
X146028498Y-96984981D01*
X146017999Y-96882203D01*
X146017998Y-96882200D01*
X145962814Y-96715666D01*
X145870712Y-96566344D01*
X145746656Y-96442288D01*
X145597334Y-96350186D01*
X145430797Y-96295001D01*
X145430795Y-96295000D01*
X145328016Y-96284500D01*
X144010306Y-96284500D01*
X143943267Y-96264815D01*
X143897512Y-96212011D01*
X143887568Y-96142853D01*
X143916593Y-96079297D01*
X143922602Y-96072843D01*
X144473627Y-95521817D01*
X144534950Y-95488333D01*
X144561308Y-95485499D01*
X145328002Y-95485499D01*
X145328008Y-95485499D01*
X145430797Y-95474999D01*
X145597334Y-95419814D01*
X145746656Y-95327712D01*
X145870712Y-95203656D01*
X145962814Y-95054334D01*
X146017999Y-94887797D01*
X146028500Y-94785009D01*
X146028499Y-94059992D01*
X146025863Y-94034187D01*
X146038632Y-93965495D01*
X146061540Y-93933905D01*
X146530272Y-93465174D01*
X146530273Y-93465173D01*
X146530273Y-93465172D01*
X146530277Y-93465169D01*
X146601465Y-93358627D01*
X146650501Y-93240244D01*
X146675500Y-93114569D01*
X146675500Y-91650217D01*
X146695185Y-91583178D01*
X146734405Y-91544678D01*
X146818651Y-91492715D01*
X146818654Y-91492713D01*
X146818653Y-91492713D01*
X146818656Y-91492712D01*
X146942712Y-91368656D01*
X147034814Y-91219334D01*
X147089999Y-91052797D01*
X147100500Y-90950009D01*
X147100500Y-90949986D01*
X147900001Y-90949986D01*
X147910494Y-91052697D01*
X147965641Y-91219119D01*
X147965643Y-91219124D01*
X148057684Y-91368345D01*
X148181654Y-91492315D01*
X148330875Y-91584356D01*
X148330880Y-91584358D01*
X148497302Y-91639505D01*
X148497309Y-91639506D01*
X148600019Y-91649999D01*
X148724999Y-91649999D01*
X149225000Y-91649999D01*
X149349972Y-91649999D01*
X149349986Y-91649998D01*
X149452697Y-91639505D01*
X149619119Y-91584358D01*
X149619124Y-91584356D01*
X149768345Y-91492315D01*
X149892315Y-91368345D01*
X149984356Y-91219124D01*
X149984358Y-91219119D01*
X150039505Y-91052697D01*
X150039506Y-91052690D01*
X150049999Y-90949986D01*
X150050000Y-90949973D01*
X150050000Y-90500000D01*
X149225000Y-90500000D01*
X149225000Y-91649999D01*
X148724999Y-91649999D01*
X148725000Y-91649998D01*
X148725000Y-90500000D01*
X147900001Y-90500000D01*
X147900001Y-90949986D01*
X147100500Y-90949986D01*
X147100499Y-89550013D01*
X147900000Y-89550013D01*
X147900000Y-90000000D01*
X148725000Y-90000000D01*
X149225000Y-90000000D01*
X150049999Y-90000000D01*
X150049999Y-89550028D01*
X150049998Y-89550013D01*
X150039505Y-89447302D01*
X149984358Y-89280880D01*
X149984356Y-89280875D01*
X149892315Y-89131654D01*
X149768345Y-89007684D01*
X149619124Y-88915643D01*
X149619119Y-88915641D01*
X149452697Y-88860494D01*
X149452690Y-88860493D01*
X149349986Y-88850000D01*
X149225000Y-88850000D01*
X149225000Y-90000000D01*
X148725000Y-90000000D01*
X148725000Y-88850000D01*
X148600027Y-88850000D01*
X148600012Y-88850001D01*
X148497302Y-88860494D01*
X148330880Y-88915641D01*
X148330875Y-88915643D01*
X148181654Y-89007684D01*
X148057684Y-89131654D01*
X147965643Y-89280875D01*
X147965641Y-89280880D01*
X147910494Y-89447302D01*
X147910493Y-89447309D01*
X147900000Y-89550013D01*
X147100499Y-89550013D01*
X147100499Y-89549992D01*
X147089999Y-89447203D01*
X147034814Y-89280666D01*
X146942712Y-89131344D01*
X146818656Y-89007288D01*
X146669334Y-88915186D01*
X146502797Y-88860001D01*
X146502795Y-88860000D01*
X146400010Y-88849500D01*
X145649998Y-88849500D01*
X145649980Y-88849501D01*
X145547203Y-88860000D01*
X145547200Y-88860001D01*
X145380668Y-88915185D01*
X145380663Y-88915187D01*
X145231342Y-89007289D01*
X145107289Y-89131342D01*
X145015187Y-89280663D01*
X145015185Y-89280668D01*
X145005329Y-89310412D01*
X144960001Y-89447203D01*
X144960001Y-89447204D01*
X144960000Y-89447204D01*
X144949500Y-89549983D01*
X144949500Y-90950001D01*
X144949501Y-90950018D01*
X144960000Y-91052796D01*
X144960001Y-91052799D01*
X145005043Y-91188726D01*
X145015186Y-91219334D01*
X145107096Y-91368345D01*
X145107289Y-91368657D01*
X145231345Y-91492713D01*
X145231348Y-91492715D01*
X145315595Y-91544678D01*
X145362321Y-91596625D01*
X145374500Y-91650217D01*
X145374500Y-92729691D01*
X145354815Y-92796730D01*
X145338181Y-92817372D01*
X144832372Y-93323181D01*
X144771049Y-93356666D01*
X144744691Y-93359500D01*
X143977998Y-93359500D01*
X143977980Y-93359501D01*
X143875203Y-93370000D01*
X143875200Y-93370001D01*
X143708668Y-93425185D01*
X143708663Y-93425187D01*
X143559342Y-93517289D01*
X143435289Y-93641342D01*
X143343187Y-93790663D01*
X143343186Y-93790666D01*
X143288001Y-93957203D01*
X143288001Y-93957204D01*
X143288000Y-93957204D01*
X143277500Y-94059983D01*
X143277500Y-94785000D01*
X143277502Y-94785025D01*
X143280136Y-94810814D01*
X143267365Y-94879506D01*
X143244459Y-94911093D01*
X142494725Y-95660828D01*
X142494719Y-95660836D01*
X142429797Y-95758000D01*
X142429797Y-95758002D01*
X142423533Y-95767375D01*
X142374499Y-95885755D01*
X142374497Y-95885761D01*
X142349500Y-96011428D01*
X142349500Y-96011431D01*
X142349500Y-101346569D01*
X142367550Y-101437310D01*
X142372156Y-101460461D01*
X142372157Y-101460471D01*
X142372158Y-101460471D01*
X142374499Y-101472244D01*
X142374500Y-101472247D01*
X142423533Y-101590625D01*
X142494726Y-101697173D01*
X142494727Y-101697174D01*
X143371458Y-102573904D01*
X143404943Y-102635227D01*
X143407135Y-102674183D01*
X143404501Y-102699972D01*
X143404501Y-102699980D01*
X143404500Y-102699991D01*
X143404500Y-103049255D01*
X143404501Y-103381000D01*
X143384817Y-103448039D01*
X143332013Y-103493794D01*
X143280501Y-103505000D01*
X140085549Y-103505000D01*
X140018510Y-103485315D01*
X139997868Y-103468681D01*
X139839141Y-103309954D01*
X139652734Y-103179432D01*
X139652732Y-103179431D01*
X139446497Y-103083261D01*
X139446488Y-103083258D01*
X139319561Y-103049249D01*
X139302862Y-103044774D01*
X139243202Y-103008410D01*
X139212673Y-102945563D01*
X139220968Y-102876188D01*
X139265453Y-102822310D01*
X139302862Y-102805225D01*
X139446496Y-102766739D01*
X139652734Y-102670568D01*
X139839139Y-102540047D01*
X140000047Y-102379139D01*
X140130568Y-102192734D01*
X140226739Y-101986496D01*
X140285635Y-101766692D01*
X140305468Y-101540000D01*
X140301197Y-101491188D01*
X140286869Y-101327413D01*
X140285635Y-101313308D01*
X140226739Y-101093504D01*
X140130568Y-100887266D01*
X140000047Y-100700861D01*
X140000045Y-100700858D01*
X139839141Y-100539954D01*
X139652734Y-100409432D01*
X139652732Y-100409431D01*
X139446497Y-100313261D01*
X139446488Y-100313258D01*
X139323966Y-100280429D01*
X139302862Y-100274774D01*
X139243202Y-100238410D01*
X139212673Y-100175563D01*
X139220968Y-100106188D01*
X139265453Y-100052310D01*
X139302862Y-100035225D01*
X139446496Y-99996739D01*
X139652734Y-99900568D01*
X139839139Y-99770047D01*
X140000047Y-99609139D01*
X140130568Y-99422734D01*
X140226739Y-99216496D01*
X140285635Y-98996692D01*
X140305468Y-98770000D01*
X140301197Y-98721188D01*
X140290158Y-98595008D01*
X140285635Y-98543308D01*
X140226739Y-98323504D01*
X140130568Y-98117266D01*
X140000047Y-97930861D01*
X140000045Y-97930858D01*
X139839141Y-97769954D01*
X139652734Y-97639432D01*
X139652732Y-97639431D01*
X139446497Y-97543261D01*
X139446488Y-97543258D01*
X139323966Y-97510429D01*
X139302862Y-97504774D01*
X139243202Y-97468410D01*
X139212673Y-97405563D01*
X139220968Y-97336188D01*
X139265453Y-97282310D01*
X139302862Y-97265225D01*
X139446496Y-97226739D01*
X139652734Y-97130568D01*
X139839139Y-97000047D01*
X140000047Y-96839139D01*
X140130568Y-96652734D01*
X140226739Y-96446496D01*
X140285635Y-96226692D01*
X140305468Y-96000000D01*
X140301197Y-95951188D01*
X140285635Y-95773313D01*
X140285635Y-95773308D01*
X140226739Y-95553504D01*
X140130568Y-95347266D01*
X140000047Y-95160861D01*
X140000045Y-95160858D01*
X139839141Y-94999954D01*
X139652734Y-94869432D01*
X139652732Y-94869431D01*
X139446497Y-94773261D01*
X139441402Y-94771407D01*
X139442159Y-94769325D01*
X139390617Y-94737908D01*
X139360088Y-94675061D01*
X139368383Y-94605686D01*
X139412869Y-94551808D01*
X139479421Y-94530534D01*
X139482352Y-94530499D01*
X139847872Y-94530499D01*
X139907483Y-94524091D01*
X140042331Y-94473796D01*
X140157546Y-94387546D01*
X140243796Y-94272331D01*
X140294091Y-94137483D01*
X140300500Y-94077873D01*
X140300499Y-92382128D01*
X140294091Y-92322517D01*
X140292966Y-92319502D01*
X140243797Y-92187671D01*
X140243793Y-92187664D01*
X140157547Y-92072455D01*
X140157544Y-92072452D01*
X140042335Y-91986206D01*
X140042328Y-91986202D01*
X139907482Y-91935908D01*
X139907483Y-91935908D01*
X139847883Y-91929501D01*
X139847881Y-91929500D01*
X139847873Y-91929500D01*
X139847864Y-91929500D01*
X138152129Y-91929500D01*
X138152123Y-91929501D01*
X138092516Y-91935908D01*
X137957671Y-91986202D01*
X137957664Y-91986206D01*
X137842455Y-92072452D01*
X137842452Y-92072455D01*
X137756206Y-92187664D01*
X137756202Y-92187671D01*
X137705908Y-92322517D01*
X137699594Y-92381249D01*
X137699501Y-92382123D01*
X137699500Y-92382135D01*
X137699500Y-94077870D01*
X137699501Y-94077876D01*
X137705908Y-94137483D01*
X137756202Y-94272328D01*
X137756206Y-94272335D01*
X137842452Y-94387544D01*
X137842455Y-94387547D01*
X137957664Y-94473793D01*
X137957671Y-94473797D01*
X138092517Y-94524091D01*
X138092516Y-94524091D01*
X138099444Y-94524835D01*
X138152127Y-94530500D01*
X138517628Y-94530499D01*
X138584665Y-94550183D01*
X138630420Y-94602987D01*
X138640364Y-94672146D01*
X138611339Y-94735701D01*
X138558063Y-94769939D01*
X138558598Y-94771407D01*
X138553502Y-94773261D01*
X138347267Y-94869431D01*
X138347265Y-94869432D01*
X138160858Y-94999954D01*
X137999954Y-95160858D01*
X137869432Y-95347265D01*
X137869431Y-95347267D01*
X137773261Y-95553502D01*
X137773258Y-95553511D01*
X137714366Y-95773302D01*
X137714364Y-95773313D01*
X137694532Y-95999998D01*
X137694532Y-96000001D01*
X137714364Y-96226686D01*
X137714366Y-96226697D01*
X137773258Y-96446488D01*
X137773261Y-96446497D01*
X137869431Y-96652732D01*
X137869432Y-96652734D01*
X137999954Y-96839141D01*
X138160858Y-97000045D01*
X138160861Y-97000047D01*
X138347266Y-97130568D01*
X138553504Y-97226739D01*
X138553509Y-97226740D01*
X138553511Y-97226741D01*
X138697136Y-97265225D01*
X138756797Y-97301590D01*
X138787326Y-97364437D01*
X138779031Y-97433812D01*
X138734546Y-97487690D01*
X138697136Y-97504775D01*
X138553511Y-97543258D01*
X138553502Y-97543261D01*
X138347267Y-97639431D01*
X138347265Y-97639432D01*
X138160858Y-97769954D01*
X137999954Y-97930858D01*
X137869432Y-98117265D01*
X137869431Y-98117267D01*
X137773261Y-98323502D01*
X137773258Y-98323511D01*
X137714366Y-98543302D01*
X137714364Y-98543313D01*
X137694532Y-98769998D01*
X137694532Y-98770001D01*
X137714364Y-98996686D01*
X137714366Y-98996697D01*
X137773258Y-99216488D01*
X137773261Y-99216497D01*
X137869431Y-99422732D01*
X137869432Y-99422734D01*
X137999954Y-99609141D01*
X138160858Y-99770045D01*
X138183342Y-99785788D01*
X138347266Y-99900568D01*
X138553504Y-99996739D01*
X138553509Y-99996740D01*
X138553511Y-99996741D01*
X138697136Y-100035225D01*
X138756797Y-100071590D01*
X138787326Y-100134437D01*
X138779031Y-100203812D01*
X138734546Y-100257690D01*
X138697136Y-100274775D01*
X138553511Y-100313258D01*
X138553502Y-100313261D01*
X138347267Y-100409431D01*
X138347265Y-100409432D01*
X138160858Y-100539954D01*
X137999954Y-100700858D01*
X137869432Y-100887265D01*
X137869431Y-100887267D01*
X137773261Y-101093502D01*
X137773258Y-101093511D01*
X137714366Y-101313302D01*
X137714364Y-101313313D01*
X137694532Y-101539998D01*
X137694532Y-101540001D01*
X137714364Y-101766686D01*
X137714366Y-101766697D01*
X137773258Y-101986488D01*
X137773261Y-101986497D01*
X137869431Y-102192732D01*
X137869432Y-102192734D01*
X137999954Y-102379141D01*
X138160858Y-102540045D01*
X138160861Y-102540047D01*
X138347266Y-102670568D01*
X138553504Y-102766739D01*
X138553509Y-102766740D01*
X138553511Y-102766741D01*
X138697136Y-102805225D01*
X138756797Y-102841590D01*
X138787326Y-102904437D01*
X138779031Y-102973812D01*
X138734546Y-103027690D01*
X138697136Y-103044775D01*
X138553511Y-103083258D01*
X138553502Y-103083261D01*
X138347267Y-103179431D01*
X138347265Y-103179432D01*
X138160858Y-103309954D01*
X138002132Y-103468681D01*
X137940809Y-103502166D01*
X137914451Y-103505000D01*
X137512567Y-103505000D01*
X137445528Y-103485315D01*
X137399773Y-103432511D01*
X137389829Y-103363353D01*
X137392792Y-103348907D01*
X137410292Y-103283592D01*
X137445635Y-103151692D01*
X137465468Y-102925000D01*
X137461197Y-102876188D01*
X137451622Y-102766738D01*
X137445635Y-102698308D01*
X137386739Y-102478504D01*
X137290568Y-102272266D01*
X137160047Y-102085861D01*
X137160045Y-102085858D01*
X136999141Y-101924954D01*
X136812734Y-101794432D01*
X136812732Y-101794431D01*
X136606497Y-101698261D01*
X136606488Y-101698258D01*
X136483966Y-101665429D01*
X136462862Y-101659774D01*
X136403202Y-101623410D01*
X136372673Y-101560563D01*
X136380968Y-101491188D01*
X136425453Y-101437310D01*
X136462862Y-101420225D01*
X136606496Y-101381739D01*
X136812734Y-101285568D01*
X136999139Y-101155047D01*
X137160047Y-100994139D01*
X137290568Y-100807734D01*
X137386739Y-100601496D01*
X137445635Y-100381692D01*
X137464974Y-100160643D01*
X137465468Y-100155001D01*
X137465468Y-100154998D01*
X137456775Y-100055635D01*
X137445635Y-99928308D01*
X137386739Y-99708504D01*
X137290568Y-99502266D01*
X137160047Y-99315861D01*
X137160045Y-99315858D01*
X136999141Y-99154954D01*
X136812734Y-99024432D01*
X136812732Y-99024431D01*
X136606497Y-98928261D01*
X136606488Y-98928258D01*
X136483966Y-98895429D01*
X136462862Y-98889774D01*
X136403202Y-98853410D01*
X136372673Y-98790563D01*
X136380968Y-98721188D01*
X136425453Y-98667310D01*
X136462862Y-98650225D01*
X136606496Y-98611739D01*
X136812734Y-98515568D01*
X136999139Y-98385047D01*
X137160047Y-98224139D01*
X137290568Y-98037734D01*
X137386739Y-97831496D01*
X137445635Y-97611692D01*
X137465468Y-97385000D01*
X137464890Y-97378399D01*
X137456484Y-97282310D01*
X137445635Y-97158308D01*
X137386739Y-96938504D01*
X137290568Y-96732266D01*
X137160047Y-96545861D01*
X137160045Y-96545858D01*
X136999141Y-96384954D01*
X136812734Y-96254432D01*
X136812732Y-96254431D01*
X136606497Y-96158261D01*
X136606488Y-96158258D01*
X136483966Y-96125429D01*
X136462862Y-96119774D01*
X136403202Y-96083410D01*
X136372673Y-96020563D01*
X136380968Y-95951188D01*
X136425453Y-95897310D01*
X136462862Y-95880225D01*
X136606496Y-95841739D01*
X136812734Y-95745568D01*
X136999139Y-95615047D01*
X137160047Y-95454139D01*
X137290568Y-95267734D01*
X137386739Y-95061496D01*
X137445635Y-94841692D01*
X137465468Y-94615000D01*
X137445635Y-94388308D01*
X137386739Y-94168504D01*
X137290568Y-93962266D01*
X137170415Y-93790668D01*
X137160045Y-93775858D01*
X136999141Y-93614954D01*
X136812734Y-93484432D01*
X136812732Y-93484431D01*
X136606497Y-93388261D01*
X136606488Y-93388258D01*
X136386697Y-93329366D01*
X136386693Y-93329365D01*
X136386692Y-93329365D01*
X136386691Y-93329364D01*
X136386686Y-93329364D01*
X136160002Y-93309532D01*
X136159998Y-93309532D01*
X135933313Y-93329364D01*
X135933302Y-93329366D01*
X135713511Y-93388258D01*
X135713502Y-93388261D01*
X135507267Y-93484431D01*
X135507265Y-93484432D01*
X135320858Y-93614954D01*
X135159954Y-93775858D01*
X135029432Y-93962265D01*
X135029431Y-93962267D01*
X134933261Y-94168502D01*
X134933258Y-94168511D01*
X134874366Y-94388302D01*
X134874364Y-94388313D01*
X134854532Y-94614998D01*
X134854532Y-94615001D01*
X134874364Y-94841686D01*
X134874366Y-94841697D01*
X134933258Y-95061488D01*
X134933261Y-95061497D01*
X135029431Y-95267732D01*
X135029432Y-95267734D01*
X135159954Y-95454141D01*
X135320858Y-95615045D01*
X135320861Y-95615047D01*
X135507266Y-95745568D01*
X135713504Y-95841739D01*
X135713509Y-95841740D01*
X135713511Y-95841741D01*
X135857136Y-95880225D01*
X135916797Y-95916590D01*
X135947326Y-95979437D01*
X135939031Y-96048812D01*
X135894546Y-96102690D01*
X135857136Y-96119775D01*
X135713511Y-96158258D01*
X135713502Y-96158261D01*
X135507267Y-96254431D01*
X135507265Y-96254432D01*
X135320858Y-96384954D01*
X135159954Y-96545858D01*
X135029432Y-96732265D01*
X135029431Y-96732267D01*
X134933261Y-96938502D01*
X134933258Y-96938511D01*
X134874366Y-97158302D01*
X134874364Y-97158313D01*
X134854532Y-97384998D01*
X134854532Y-97385001D01*
X134874364Y-97611686D01*
X134874366Y-97611697D01*
X134933258Y-97831488D01*
X134933261Y-97831497D01*
X135029431Y-98037732D01*
X135029432Y-98037734D01*
X135159954Y-98224141D01*
X135320858Y-98385045D01*
X135320861Y-98385047D01*
X135507266Y-98515568D01*
X135713504Y-98611739D01*
X135713509Y-98611740D01*
X135713511Y-98611741D01*
X135857136Y-98650225D01*
X135916797Y-98686590D01*
X135947326Y-98749437D01*
X135939031Y-98818812D01*
X135894546Y-98872690D01*
X135857136Y-98889775D01*
X135713511Y-98928258D01*
X135713502Y-98928261D01*
X135507267Y-99024431D01*
X135507265Y-99024432D01*
X135320858Y-99154954D01*
X135159954Y-99315858D01*
X135029432Y-99502265D01*
X135029431Y-99502267D01*
X134933261Y-99708502D01*
X134933258Y-99708511D01*
X134874366Y-99928302D01*
X134874364Y-99928313D01*
X134854532Y-100154998D01*
X134854532Y-100155001D01*
X134874364Y-100381686D01*
X134874366Y-100381697D01*
X134933258Y-100601488D01*
X134933261Y-100601497D01*
X135029431Y-100807732D01*
X135029432Y-100807734D01*
X135159954Y-100994141D01*
X135320858Y-101155045D01*
X135320861Y-101155047D01*
X135507266Y-101285568D01*
X135713504Y-101381739D01*
X135713509Y-101381740D01*
X135713511Y-101381741D01*
X135857136Y-101420225D01*
X135916797Y-101456590D01*
X135947326Y-101519437D01*
X135939031Y-101588812D01*
X135894546Y-101642690D01*
X135857136Y-101659775D01*
X135713511Y-101698258D01*
X135713502Y-101698261D01*
X135507267Y-101794431D01*
X135507265Y-101794432D01*
X135320858Y-101924954D01*
X135159954Y-102085858D01*
X135029432Y-102272265D01*
X135029431Y-102272267D01*
X134933261Y-102478502D01*
X134933258Y-102478511D01*
X134874366Y-102698302D01*
X134874364Y-102698313D01*
X134854532Y-102924998D01*
X134854532Y-102925001D01*
X134874364Y-103151686D01*
X134874366Y-103151697D01*
X134927208Y-103348907D01*
X134925545Y-103418757D01*
X134886382Y-103476619D01*
X134822154Y-103504123D01*
X134807433Y-103505000D01*
X128894500Y-103505000D01*
X128827461Y-103485315D01*
X128781706Y-103432511D01*
X128770500Y-103381000D01*
X128770500Y-87121996D01*
X154134435Y-87121996D01*
X154134435Y-87122003D01*
X154154630Y-87301249D01*
X154154631Y-87301254D01*
X154214211Y-87471523D01*
X154263095Y-87549321D01*
X154310184Y-87624262D01*
X154437738Y-87751816D01*
X154590478Y-87847789D01*
X154760745Y-87907368D01*
X154760750Y-87907369D01*
X154939996Y-87927565D01*
X154940000Y-87927565D01*
X154940004Y-87927565D01*
X155119249Y-87907369D01*
X155119252Y-87907368D01*
X155119255Y-87907368D01*
X155289522Y-87847789D01*
X155442262Y-87751816D01*
X155569816Y-87624262D01*
X155665789Y-87471522D01*
X155725368Y-87301255D01*
X155726182Y-87294025D01*
X155753245Y-87229611D01*
X155761702Y-87220242D01*
X155935128Y-87046816D01*
X155996451Y-87013334D01*
X156022808Y-87010500D01*
X174054071Y-87010500D01*
X174154824Y-86990458D01*
X174179744Y-86985501D01*
X174298127Y-86936465D01*
X174304418Y-86932261D01*
X174304427Y-86932258D01*
X174304426Y-86932257D01*
X174379438Y-86882135D01*
X174404669Y-86865277D01*
X180573126Y-80696818D01*
X180634449Y-80663334D01*
X180660807Y-80660500D01*
X181731041Y-80660500D01*
X181798080Y-80680185D01*
X181843835Y-80732989D01*
X181853779Y-80802147D01*
X181848083Y-80825449D01*
X181844475Y-80835761D01*
X181840632Y-80846743D01*
X181840630Y-80846752D01*
X181839815Y-80853988D01*
X181812743Y-80918400D01*
X181804277Y-80927775D01*
X171724873Y-91007181D01*
X171663550Y-91040666D01*
X171637192Y-91043500D01*
X165543929Y-91043500D01*
X165418261Y-91068497D01*
X165418255Y-91068499D01*
X165299874Y-91117534D01*
X165193326Y-91188726D01*
X164245749Y-92136303D01*
X164184426Y-92169788D01*
X164114734Y-92164804D01*
X164058801Y-92122932D01*
X164034848Y-92062504D01*
X164030369Y-92022750D01*
X164030366Y-92022737D01*
X163970790Y-91852481D01*
X163970789Y-91852478D01*
X163923666Y-91777482D01*
X163914506Y-91762903D01*
X163895500Y-91696931D01*
X163895500Y-90327620D01*
X163913960Y-90262526D01*
X163999814Y-90123334D01*
X164054999Y-89956797D01*
X164065500Y-89854009D01*
X164065500Y-89853986D01*
X164865001Y-89853986D01*
X164875494Y-89956697D01*
X164930641Y-90123119D01*
X164930643Y-90123124D01*
X165022684Y-90272345D01*
X165146654Y-90396315D01*
X165295875Y-90488356D01*
X165295880Y-90488358D01*
X165462302Y-90543505D01*
X165462309Y-90543506D01*
X165565019Y-90553999D01*
X165689999Y-90553999D01*
X166190000Y-90553999D01*
X166314972Y-90553999D01*
X166314986Y-90553998D01*
X166417697Y-90543505D01*
X166584119Y-90488358D01*
X166584124Y-90488356D01*
X166733345Y-90396315D01*
X166857315Y-90272345D01*
X166949356Y-90123124D01*
X166949358Y-90123119D01*
X167004505Y-89956697D01*
X167004506Y-89956690D01*
X167014999Y-89853986D01*
X167015000Y-89853973D01*
X167015000Y-89404000D01*
X166190000Y-89404000D01*
X166190000Y-90553999D01*
X165689999Y-90553999D01*
X165690000Y-90553998D01*
X165690000Y-89404000D01*
X164865001Y-89404000D01*
X164865001Y-89853986D01*
X164065500Y-89853986D01*
X164065499Y-88454013D01*
X164865000Y-88454013D01*
X164865000Y-88904000D01*
X165690000Y-88904000D01*
X166190000Y-88904000D01*
X167014999Y-88904000D01*
X167014999Y-88454028D01*
X167014998Y-88454013D01*
X167004505Y-88351302D01*
X166949358Y-88184880D01*
X166949356Y-88184875D01*
X166857315Y-88035654D01*
X166733345Y-87911684D01*
X166584124Y-87819643D01*
X166584119Y-87819641D01*
X166417697Y-87764494D01*
X166417690Y-87764493D01*
X166314986Y-87754000D01*
X166190000Y-87754000D01*
X166190000Y-88904000D01*
X165690000Y-88904000D01*
X165690000Y-87754000D01*
X165565027Y-87754000D01*
X165565012Y-87754001D01*
X165462302Y-87764494D01*
X165295880Y-87819641D01*
X165295875Y-87819643D01*
X165146654Y-87911684D01*
X165022684Y-88035654D01*
X164930643Y-88184875D01*
X164930641Y-88184880D01*
X164875494Y-88351302D01*
X164875493Y-88351309D01*
X164865000Y-88454013D01*
X164065499Y-88454013D01*
X164065499Y-88453992D01*
X164059752Y-88397737D01*
X164054999Y-88351203D01*
X164054998Y-88351200D01*
X164028152Y-88270184D01*
X163999814Y-88184666D01*
X163907712Y-88035344D01*
X163783656Y-87911288D01*
X163680707Y-87847789D01*
X163634336Y-87819187D01*
X163634331Y-87819185D01*
X163632862Y-87818698D01*
X163467797Y-87764001D01*
X163467795Y-87764000D01*
X163365010Y-87753500D01*
X162614998Y-87753500D01*
X162614980Y-87753501D01*
X162512203Y-87764000D01*
X162512200Y-87764001D01*
X162345668Y-87819185D01*
X162345663Y-87819187D01*
X162196342Y-87911289D01*
X162072289Y-88035342D01*
X161976528Y-88190597D01*
X161924580Y-88237321D01*
X161870989Y-88249500D01*
X161541068Y-88249500D01*
X161475096Y-88230494D01*
X161385522Y-88174210D01*
X161385518Y-88174209D01*
X161215262Y-88114633D01*
X161215249Y-88114630D01*
X161036004Y-88094435D01*
X161035996Y-88094435D01*
X160856750Y-88114630D01*
X160856745Y-88114631D01*
X160686476Y-88174211D01*
X160533737Y-88270184D01*
X160406184Y-88397737D01*
X160310211Y-88550476D01*
X160250631Y-88720745D01*
X160250630Y-88720750D01*
X160230435Y-88899996D01*
X160230435Y-88900003D01*
X160250630Y-89079249D01*
X160250631Y-89079254D01*
X160310211Y-89249523D01*
X160392261Y-89380104D01*
X160406184Y-89402262D01*
X160533738Y-89529816D01*
X160596904Y-89569506D01*
X160682021Y-89622989D01*
X160686478Y-89625789D01*
X160825686Y-89674500D01*
X160856745Y-89685368D01*
X160856750Y-89685369D01*
X161035996Y-89705565D01*
X161036000Y-89705565D01*
X161036004Y-89705565D01*
X161215249Y-89685369D01*
X161215251Y-89685368D01*
X161215255Y-89685368D01*
X161215258Y-89685366D01*
X161215262Y-89685366D01*
X161305377Y-89653832D01*
X161385522Y-89625789D01*
X161475096Y-89569505D01*
X161541068Y-89550500D01*
X161790501Y-89550500D01*
X161857540Y-89570185D01*
X161903295Y-89622989D01*
X161914501Y-89674500D01*
X161914501Y-89854018D01*
X161925000Y-89956796D01*
X161925001Y-89956799D01*
X161939317Y-90000000D01*
X161980186Y-90123334D01*
X162072288Y-90272656D01*
X162196344Y-90396712D01*
X162345666Y-90488814D01*
X162509505Y-90543105D01*
X162566949Y-90582877D01*
X162593772Y-90647392D01*
X162594500Y-90660810D01*
X162594500Y-91696931D01*
X162575494Y-91762903D01*
X162519211Y-91852477D01*
X162519209Y-91852481D01*
X162459633Y-92022737D01*
X162459630Y-92022750D01*
X162439435Y-92201996D01*
X162439435Y-92202003D01*
X162459630Y-92381249D01*
X162459631Y-92381254D01*
X162519211Y-92551523D01*
X162615184Y-92704262D01*
X162742738Y-92831816D01*
X162895478Y-92927789D01*
X163065745Y-92987368D01*
X163065750Y-92987369D01*
X163105504Y-92991848D01*
X163169918Y-93018914D01*
X163209474Y-93076508D01*
X163211613Y-93146345D01*
X163179303Y-93202749D01*
X161310873Y-95071181D01*
X161249550Y-95104666D01*
X161223192Y-95107500D01*
X157477068Y-95107500D01*
X157411096Y-95088494D01*
X157321522Y-95032210D01*
X157321518Y-95032209D01*
X157151262Y-94972633D01*
X157151249Y-94972630D01*
X156972004Y-94952435D01*
X156971996Y-94952435D01*
X156792750Y-94972630D01*
X156792745Y-94972631D01*
X156622476Y-95032211D01*
X156469737Y-95128184D01*
X156342184Y-95255737D01*
X156246211Y-95408476D01*
X156186631Y-95578745D01*
X156186630Y-95578750D01*
X156166435Y-95757996D01*
X156166435Y-95758000D01*
X156186630Y-95937249D01*
X156186631Y-95937254D01*
X156246211Y-96107523D01*
X156321094Y-96226697D01*
X156342184Y-96260262D01*
X156469738Y-96387816D01*
X156622478Y-96483789D01*
X156792739Y-96543366D01*
X156792745Y-96543368D01*
X156792750Y-96543369D01*
X156971996Y-96563565D01*
X156972000Y-96563565D01*
X156972004Y-96563565D01*
X157151249Y-96543369D01*
X157151251Y-96543368D01*
X157151255Y-96543368D01*
X157151258Y-96543366D01*
X157151262Y-96543366D01*
X157241377Y-96511832D01*
X157321522Y-96483789D01*
X157411096Y-96427505D01*
X157477068Y-96408500D01*
X161608071Y-96408500D01*
X161692615Y-96391682D01*
X161733744Y-96383501D01*
X161852127Y-96334465D01*
X161958669Y-96263277D01*
X165841127Y-92380819D01*
X165902450Y-92347334D01*
X165928808Y-92344500D01*
X172022071Y-92344500D01*
X172106615Y-92327682D01*
X172147744Y-92319501D01*
X172266127Y-92270465D01*
X172372669Y-92199277D01*
X178977819Y-85594125D01*
X179039142Y-85560641D01*
X179108834Y-85565625D01*
X179164767Y-85607497D01*
X179189184Y-85672961D01*
X179189500Y-85681807D01*
X179189500Y-85832465D01*
X179223124Y-86044756D01*
X179223124Y-86044759D01*
X179289540Y-86249167D01*
X179289541Y-86249170D01*
X179364462Y-86396210D01*
X179387120Y-86440678D01*
X179513455Y-86614563D01*
X179665437Y-86766545D01*
X179801323Y-86865272D01*
X179841802Y-86894682D01*
X179884467Y-86950012D01*
X179890446Y-87019626D01*
X179857840Y-87081421D01*
X179841802Y-87095318D01*
X179799539Y-87126023D01*
X179665437Y-87223455D01*
X179665435Y-87223457D01*
X179665434Y-87223457D01*
X179513457Y-87375434D01*
X179513457Y-87375435D01*
X179513455Y-87375437D01*
X179459198Y-87450114D01*
X179387120Y-87549321D01*
X179289541Y-87740829D01*
X179289540Y-87740832D01*
X179223124Y-87945240D01*
X179223124Y-87945243D01*
X179223124Y-87945245D01*
X179189500Y-88157533D01*
X179189500Y-88372467D01*
X179193503Y-88397738D01*
X179223124Y-88584756D01*
X179223124Y-88584759D01*
X179289540Y-88789167D01*
X179289541Y-88789170D01*
X179353982Y-88915641D01*
X179387120Y-88980678D01*
X179513455Y-89154563D01*
X179513457Y-89154565D01*
X179607981Y-89249089D01*
X179641466Y-89310412D01*
X179636482Y-89380104D01*
X179594610Y-89436037D01*
X179563633Y-89452952D01*
X179447671Y-89496202D01*
X179447664Y-89496206D01*
X179332455Y-89582452D01*
X179332452Y-89582455D01*
X179246206Y-89697664D01*
X179246202Y-89697671D01*
X179195908Y-89832517D01*
X179193597Y-89854018D01*
X179189501Y-89892123D01*
X179189500Y-89892135D01*
X179189500Y-91349191D01*
X179169815Y-91416230D01*
X179153181Y-91436872D01*
X177040727Y-93549325D01*
X177040726Y-93549326D01*
X177040723Y-93549331D01*
X176979245Y-93641342D01*
X176979244Y-93641343D01*
X176979242Y-93641346D01*
X176969536Y-93655870D01*
X176969533Y-93655875D01*
X176920499Y-93774255D01*
X176920497Y-93774261D01*
X176895500Y-93899928D01*
X176895500Y-97077500D01*
X176875815Y-97144539D01*
X176823011Y-97190294D01*
X176771501Y-97201500D01*
X176648130Y-97201500D01*
X176648123Y-97201501D01*
X176588516Y-97207908D01*
X176453671Y-97258202D01*
X176453664Y-97258206D01*
X176338455Y-97344452D01*
X176338452Y-97344455D01*
X176252206Y-97459664D01*
X176252202Y-97459671D01*
X176202997Y-97591598D01*
X176161126Y-97647532D01*
X176095661Y-97671949D01*
X176027388Y-97657097D01*
X175999134Y-97635946D01*
X175877082Y-97513894D01*
X175683578Y-97378399D01*
X175469492Y-97278570D01*
X175469486Y-97278567D01*
X175256000Y-97221364D01*
X175256000Y-98118988D01*
X175198993Y-98086075D01*
X175071826Y-98052000D01*
X174940174Y-98052000D01*
X174813007Y-98086075D01*
X174756000Y-98118988D01*
X174756000Y-97221364D01*
X174755999Y-97221364D01*
X174542513Y-97278567D01*
X174542507Y-97278570D01*
X174328422Y-97378399D01*
X174328420Y-97378400D01*
X174134926Y-97513886D01*
X174134920Y-97513891D01*
X173967891Y-97680920D01*
X173967890Y-97680922D01*
X173837880Y-97866595D01*
X173783303Y-97910219D01*
X173713804Y-97917412D01*
X173651450Y-97885890D01*
X173634730Y-97866594D01*
X173504494Y-97680597D01*
X173337402Y-97513506D01*
X173337395Y-97513501D01*
X173143834Y-97377967D01*
X173143830Y-97377965D01*
X173085834Y-97350921D01*
X172929663Y-97278097D01*
X172929659Y-97278096D01*
X172929655Y-97278094D01*
X172701413Y-97216938D01*
X172701403Y-97216936D01*
X172466001Y-97196341D01*
X172465999Y-97196341D01*
X172230596Y-97216936D01*
X172230586Y-97216938D01*
X172002344Y-97278094D01*
X172002335Y-97278098D01*
X171788171Y-97377964D01*
X171788169Y-97377965D01*
X171594597Y-97513505D01*
X171427505Y-97680597D01*
X171291965Y-97874169D01*
X171291964Y-97874171D01*
X171192098Y-98088335D01*
X171192094Y-98088344D01*
X171130938Y-98316586D01*
X171130936Y-98316596D01*
X171110341Y-98551999D01*
X171110341Y-98552000D01*
X171130936Y-98787403D01*
X171130938Y-98787413D01*
X171192094Y-99015655D01*
X171192096Y-99015659D01*
X171192097Y-99015663D01*
X171291744Y-99229356D01*
X171291965Y-99229830D01*
X171291967Y-99229834D01*
X171380550Y-99356342D01*
X171427501Y-99423396D01*
X171427506Y-99423402D01*
X171594597Y-99590493D01*
X171594603Y-99590498D01*
X171780158Y-99720425D01*
X171823783Y-99775002D01*
X171830977Y-99844500D01*
X171799454Y-99906855D01*
X171780158Y-99923575D01*
X171594597Y-100053505D01*
X171427505Y-100220597D01*
X171291965Y-100414169D01*
X171291964Y-100414171D01*
X171192098Y-100628335D01*
X171192094Y-100628344D01*
X171130938Y-100856586D01*
X171130936Y-100856596D01*
X171110341Y-101091999D01*
X171110341Y-101092000D01*
X171130936Y-101327403D01*
X171130938Y-101327413D01*
X171192094Y-101555655D01*
X171192096Y-101555659D01*
X171192097Y-101555663D01*
X171258592Y-101698261D01*
X171291965Y-101769830D01*
X171291967Y-101769834D01*
X171400281Y-101924521D01*
X171427505Y-101963401D01*
X171594599Y-102130495D01*
X171632865Y-102157289D01*
X171788165Y-102266032D01*
X171788167Y-102266033D01*
X171788170Y-102266035D01*
X172002337Y-102365903D01*
X172230592Y-102427063D01*
X172418918Y-102443539D01*
X172465999Y-102447659D01*
X172466000Y-102447659D01*
X172466001Y-102447659D01*
X172505234Y-102444226D01*
X172701408Y-102427063D01*
X172929663Y-102365903D01*
X173143830Y-102266035D01*
X173337401Y-102130495D01*
X173504495Y-101963401D01*
X173634425Y-101777842D01*
X173689002Y-101734217D01*
X173758500Y-101727023D01*
X173820855Y-101758546D01*
X173837575Y-101777842D01*
X173967500Y-101963395D01*
X173967505Y-101963401D01*
X174134599Y-102130495D01*
X174172865Y-102157289D01*
X174328165Y-102266032D01*
X174328167Y-102266033D01*
X174328170Y-102266035D01*
X174542337Y-102365903D01*
X174770592Y-102427063D01*
X174958918Y-102443539D01*
X175005999Y-102447659D01*
X175006000Y-102447659D01*
X175006001Y-102447659D01*
X175045234Y-102444226D01*
X175241408Y-102427063D01*
X175469663Y-102365903D01*
X175683830Y-102266035D01*
X175877401Y-102130495D01*
X176044495Y-101963401D01*
X176174425Y-101777842D01*
X176229002Y-101734217D01*
X176298500Y-101727023D01*
X176360855Y-101758546D01*
X176377575Y-101777842D01*
X176507500Y-101963395D01*
X176507505Y-101963401D01*
X176674599Y-102130495D01*
X176712865Y-102157289D01*
X176868165Y-102266032D01*
X176868167Y-102266033D01*
X176868170Y-102266035D01*
X177082337Y-102365903D01*
X177310592Y-102427063D01*
X177498918Y-102443539D01*
X177545999Y-102447659D01*
X177546000Y-102447659D01*
X177546001Y-102447659D01*
X177585234Y-102444226D01*
X177781408Y-102427063D01*
X178009663Y-102365903D01*
X178223830Y-102266035D01*
X178417401Y-102130495D01*
X178584495Y-101963401D01*
X178720035Y-101769830D01*
X178819903Y-101555663D01*
X178881063Y-101327408D01*
X178901659Y-101092000D01*
X178881063Y-100856592D01*
X178819903Y-100628337D01*
X178720035Y-100414171D01*
X178714424Y-100406158D01*
X178584496Y-100220600D01*
X178524081Y-100160185D01*
X178462567Y-100098671D01*
X178429084Y-100037351D01*
X178434068Y-99967659D01*
X178475939Y-99911725D01*
X178506915Y-99894810D01*
X178638331Y-99845796D01*
X178753546Y-99759546D01*
X178839796Y-99644331D01*
X178890091Y-99509483D01*
X178896500Y-99449873D01*
X178896499Y-97654128D01*
X178890775Y-97600880D01*
X178890091Y-97594516D01*
X178839797Y-97459671D01*
X178839793Y-97459664D01*
X178753547Y-97344455D01*
X178753544Y-97344452D01*
X178638335Y-97258206D01*
X178638328Y-97258202D01*
X178503482Y-97207908D01*
X178503483Y-97207908D01*
X178443883Y-97201501D01*
X178443881Y-97201500D01*
X178443873Y-97201500D01*
X178443865Y-97201500D01*
X178320500Y-97201500D01*
X178253461Y-97181815D01*
X178207706Y-97129011D01*
X178196500Y-97077500D01*
X178196500Y-94284807D01*
X178216185Y-94217768D01*
X178232814Y-94197131D01*
X180223127Y-92206817D01*
X180284450Y-92173333D01*
X180310808Y-92170499D01*
X181767871Y-92170499D01*
X181767872Y-92170499D01*
X181827483Y-92164091D01*
X181962331Y-92113796D01*
X182077546Y-92027546D01*
X182163796Y-91912331D01*
X182214091Y-91777483D01*
X182220500Y-91717873D01*
X182220499Y-89892128D01*
X182214091Y-89832517D01*
X182163796Y-89697669D01*
X182163795Y-89697668D01*
X182163793Y-89697664D01*
X182077547Y-89582455D01*
X182077544Y-89582452D01*
X181962335Y-89496206D01*
X181962328Y-89496202D01*
X181846366Y-89452952D01*
X181790433Y-89411081D01*
X181766015Y-89345617D01*
X181780866Y-89277344D01*
X181802012Y-89249095D01*
X181896545Y-89154563D01*
X182022880Y-88980678D01*
X182120458Y-88789170D01*
X182142689Y-88720750D01*
X182186875Y-88584759D01*
X182186875Y-88584758D01*
X182186876Y-88584755D01*
X182220500Y-88372467D01*
X182220500Y-88157533D01*
X182186876Y-87945245D01*
X182186875Y-87945241D01*
X182186875Y-87945240D01*
X182120459Y-87740832D01*
X182120458Y-87740829D01*
X182022879Y-87549321D01*
X181896545Y-87375437D01*
X181744563Y-87223455D01*
X181740112Y-87220221D01*
X181568198Y-87095318D01*
X181525532Y-87039988D01*
X181519553Y-86970375D01*
X181552159Y-86908580D01*
X181568198Y-86894682D01*
X181608677Y-86865272D01*
X181744563Y-86766545D01*
X181896545Y-86614563D01*
X182022880Y-86440678D01*
X182120458Y-86249170D01*
X182186876Y-86044755D01*
X182220500Y-85832467D01*
X182220500Y-85617533D01*
X182186876Y-85405245D01*
X182186875Y-85405241D01*
X182186875Y-85405240D01*
X182120459Y-85200832D01*
X182120458Y-85200829D01*
X182022879Y-85009321D01*
X181896545Y-84835437D01*
X181744563Y-84683455D01*
X181570678Y-84557120D01*
X181379170Y-84459541D01*
X181379167Y-84459540D01*
X181174757Y-84393124D01*
X181033229Y-84370708D01*
X180962467Y-84359500D01*
X180511807Y-84359500D01*
X180444768Y-84339815D01*
X180399013Y-84287011D01*
X180389069Y-84217853D01*
X180418094Y-84154297D01*
X180424126Y-84147819D01*
X182724224Y-81847720D01*
X182785545Y-81814237D01*
X182798019Y-81812183D01*
X182805255Y-81811368D01*
X182975522Y-81751789D01*
X183128262Y-81655816D01*
X183255816Y-81528262D01*
X183351789Y-81375522D01*
X183411368Y-81205255D01*
X183418157Y-81145000D01*
X183431565Y-81026003D01*
X183431565Y-81025996D01*
X183411369Y-80846750D01*
X183411368Y-80846745D01*
X183351788Y-80676475D01*
X183293664Y-80583973D01*
X183274663Y-80516736D01*
X183293664Y-80452027D01*
X183351788Y-80359524D01*
X183359322Y-80337993D01*
X183411368Y-80189255D01*
X183411369Y-80189249D01*
X183431565Y-80010003D01*
X183431565Y-80009996D01*
X183411369Y-79830750D01*
X183411368Y-79830745D01*
X183383103Y-79749969D01*
X183351789Y-79660478D01*
X183317875Y-79606505D01*
X183255815Y-79507737D01*
X183128262Y-79380184D01*
X182975523Y-79284211D01*
X182805254Y-79224631D01*
X182805249Y-79224630D01*
X182626004Y-79204435D01*
X182625996Y-79204435D01*
X182446750Y-79224630D01*
X182446737Y-79224633D01*
X182276481Y-79284209D01*
X182276477Y-79284210D01*
X182186904Y-79340494D01*
X182120932Y-79359500D01*
X180275929Y-79359500D01*
X180150261Y-79384497D01*
X180150255Y-79384499D01*
X180031875Y-79433533D01*
X180031866Y-79433538D01*
X179925331Y-79504723D01*
X179925327Y-79504726D01*
X173756873Y-85673181D01*
X173695550Y-85706666D01*
X173669192Y-85709500D01*
X155637929Y-85709500D01*
X155512261Y-85734497D01*
X155512255Y-85734499D01*
X155393874Y-85783534D01*
X155287326Y-85854726D01*
X154841775Y-86300277D01*
X154780452Y-86333762D01*
X154767988Y-86335815D01*
X154760752Y-86336630D01*
X154760744Y-86336632D01*
X154590478Y-86396210D01*
X154437737Y-86492184D01*
X154310184Y-86619737D01*
X154214211Y-86772476D01*
X154154631Y-86942745D01*
X154154630Y-86942750D01*
X154134435Y-87121996D01*
X128770500Y-87121996D01*
X128770500Y-80644999D01*
X130724341Y-80644999D01*
X130724341Y-80645000D01*
X130744936Y-80880403D01*
X130744938Y-80880413D01*
X130806094Y-81108655D01*
X130806096Y-81108659D01*
X130806097Y-81108663D01*
X130851139Y-81205255D01*
X130905965Y-81322830D01*
X130905967Y-81322834D01*
X130942860Y-81375522D01*
X131041505Y-81516401D01*
X131208599Y-81683495D01*
X131285135Y-81737086D01*
X131402165Y-81819032D01*
X131402167Y-81819033D01*
X131402170Y-81819035D01*
X131616337Y-81918903D01*
X131844592Y-81980063D01*
X132015319Y-81995000D01*
X132079999Y-82000659D01*
X132080000Y-82000659D01*
X132080001Y-82000659D01*
X132144681Y-81995000D01*
X132315408Y-81980063D01*
X132543663Y-81918903D01*
X132757830Y-81819035D01*
X132951401Y-81683495D01*
X133118495Y-81516401D01*
X133248425Y-81330842D01*
X133303002Y-81287217D01*
X133372500Y-81280023D01*
X133434855Y-81311546D01*
X133451575Y-81330842D01*
X133581500Y-81516395D01*
X133581505Y-81516401D01*
X133748599Y-81683495D01*
X133825135Y-81737086D01*
X133942165Y-81819032D01*
X133942167Y-81819033D01*
X133942170Y-81819035D01*
X134156337Y-81918903D01*
X134384592Y-81980063D01*
X134555319Y-81995000D01*
X134619999Y-82000659D01*
X134620000Y-82000659D01*
X134620001Y-82000659D01*
X134684681Y-81995000D01*
X134855408Y-81980063D01*
X135083663Y-81918903D01*
X135297830Y-81819035D01*
X135491401Y-81683495D01*
X135658495Y-81516401D01*
X135788425Y-81330842D01*
X135843002Y-81287217D01*
X135912500Y-81280023D01*
X135974855Y-81311546D01*
X135991575Y-81330842D01*
X136121500Y-81516395D01*
X136121505Y-81516401D01*
X136288599Y-81683495D01*
X136365135Y-81737086D01*
X136482165Y-81819032D01*
X136482167Y-81819033D01*
X136482170Y-81819035D01*
X136696337Y-81918903D01*
X136924592Y-81980063D01*
X137095319Y-81995000D01*
X137159999Y-82000659D01*
X137160000Y-82000659D01*
X137160001Y-82000659D01*
X137224681Y-81995000D01*
X137395408Y-81980063D01*
X137623663Y-81918903D01*
X137837830Y-81819035D01*
X138031401Y-81683495D01*
X138198495Y-81516401D01*
X138328425Y-81330842D01*
X138383002Y-81287217D01*
X138452500Y-81280023D01*
X138514855Y-81311546D01*
X138531575Y-81330842D01*
X138661500Y-81516395D01*
X138661505Y-81516401D01*
X138828599Y-81683495D01*
X138905135Y-81737086D01*
X139022165Y-81819032D01*
X139022167Y-81819033D01*
X139022170Y-81819035D01*
X139236337Y-81918903D01*
X139464592Y-81980063D01*
X139635319Y-81995000D01*
X139699999Y-82000659D01*
X139700000Y-82000659D01*
X139700001Y-82000659D01*
X139764681Y-81995000D01*
X139935408Y-81980063D01*
X140163663Y-81918903D01*
X140377830Y-81819035D01*
X140571401Y-81683495D01*
X140738495Y-81516401D01*
X140868425Y-81330842D01*
X140923002Y-81287217D01*
X140992500Y-81280023D01*
X141054855Y-81311546D01*
X141071575Y-81330842D01*
X141201500Y-81516395D01*
X141201505Y-81516401D01*
X141368599Y-81683495D01*
X141445135Y-81737086D01*
X141562165Y-81819032D01*
X141562167Y-81819033D01*
X141562170Y-81819035D01*
X141776337Y-81918903D01*
X142004592Y-81980063D01*
X142175319Y-81995000D01*
X142239999Y-82000659D01*
X142240000Y-82000659D01*
X142240001Y-82000659D01*
X142304681Y-81995000D01*
X142475408Y-81980063D01*
X142703663Y-81918903D01*
X142917830Y-81819035D01*
X143111401Y-81683495D01*
X143233717Y-81561178D01*
X143295036Y-81527696D01*
X143364728Y-81532680D01*
X143420662Y-81574551D01*
X143437577Y-81605528D01*
X143486646Y-81737088D01*
X143486649Y-81737093D01*
X143572809Y-81852187D01*
X143572812Y-81852190D01*
X143687906Y-81938350D01*
X143687913Y-81938354D01*
X143822620Y-81988596D01*
X143822627Y-81988598D01*
X143882155Y-81994999D01*
X143882172Y-81995000D01*
X144530000Y-81995000D01*
X144530000Y-81078012D01*
X144587007Y-81110925D01*
X144714174Y-81145000D01*
X144845826Y-81145000D01*
X144972993Y-81110925D01*
X145030000Y-81078012D01*
X145030000Y-81995000D01*
X145677828Y-81995000D01*
X145677844Y-81994999D01*
X145737372Y-81988598D01*
X145737379Y-81988596D01*
X145872086Y-81938354D01*
X145872093Y-81938350D01*
X145987187Y-81852190D01*
X145987190Y-81852187D01*
X146073350Y-81737093D01*
X146073354Y-81737086D01*
X146123596Y-81602379D01*
X146123598Y-81602372D01*
X146129999Y-81542844D01*
X146130000Y-81542827D01*
X146130000Y-80895000D01*
X145213012Y-80895000D01*
X145245925Y-80837993D01*
X145280000Y-80710826D01*
X145280000Y-80579174D01*
X145245925Y-80452007D01*
X145213012Y-80395000D01*
X146130000Y-80395000D01*
X146130000Y-79747172D01*
X146129999Y-79747155D01*
X146123598Y-79687627D01*
X146123596Y-79687620D01*
X146073354Y-79552913D01*
X146073350Y-79552906D01*
X145987190Y-79437812D01*
X145987187Y-79437809D01*
X145872093Y-79351649D01*
X145872086Y-79351645D01*
X145737379Y-79301403D01*
X145737372Y-79301401D01*
X145677844Y-79295000D01*
X145030000Y-79295000D01*
X145030000Y-80211988D01*
X144972993Y-80179075D01*
X144845826Y-80145000D01*
X144714174Y-80145000D01*
X144587007Y-80179075D01*
X144530000Y-80211988D01*
X144530000Y-79295000D01*
X143882155Y-79295000D01*
X143822627Y-79301401D01*
X143822620Y-79301403D01*
X143687913Y-79351645D01*
X143687906Y-79351649D01*
X143572812Y-79437809D01*
X143572809Y-79437812D01*
X143486649Y-79552906D01*
X143486645Y-79552913D01*
X143437578Y-79684470D01*
X143395707Y-79740404D01*
X143330242Y-79764821D01*
X143261969Y-79749969D01*
X143233715Y-79728819D01*
X143189366Y-79684470D01*
X143111401Y-79606505D01*
X143111397Y-79606502D01*
X143111396Y-79606501D01*
X142917834Y-79470967D01*
X142917830Y-79470965D01*
X142846727Y-79437809D01*
X142703663Y-79371097D01*
X142703659Y-79371096D01*
X142703655Y-79371094D01*
X142475413Y-79309938D01*
X142475403Y-79309936D01*
X142240001Y-79289341D01*
X142239999Y-79289341D01*
X142004596Y-79309936D01*
X142004586Y-79309938D01*
X141776344Y-79371094D01*
X141776335Y-79371098D01*
X141562171Y-79470964D01*
X141562169Y-79470965D01*
X141368597Y-79606505D01*
X141201505Y-79773597D01*
X141071575Y-79959158D01*
X141016998Y-80002783D01*
X140947500Y-80009977D01*
X140885145Y-79978454D01*
X140868425Y-79959158D01*
X140738494Y-79773597D01*
X140571402Y-79606506D01*
X140571395Y-79606501D01*
X140377834Y-79470967D01*
X140377830Y-79470965D01*
X140306727Y-79437809D01*
X140163663Y-79371097D01*
X140163659Y-79371096D01*
X140163655Y-79371094D01*
X139935413Y-79309938D01*
X139935403Y-79309936D01*
X139700001Y-79289341D01*
X139699999Y-79289341D01*
X139464596Y-79309936D01*
X139464586Y-79309938D01*
X139236344Y-79371094D01*
X139236335Y-79371098D01*
X139022171Y-79470964D01*
X139022169Y-79470965D01*
X138828597Y-79606505D01*
X138661505Y-79773597D01*
X138531575Y-79959158D01*
X138476998Y-80002783D01*
X138407500Y-80009977D01*
X138345145Y-79978454D01*
X138328425Y-79959158D01*
X138198494Y-79773597D01*
X138031402Y-79606506D01*
X138031395Y-79606501D01*
X137837834Y-79470967D01*
X137837830Y-79470965D01*
X137766727Y-79437809D01*
X137623663Y-79371097D01*
X137623659Y-79371096D01*
X137623655Y-79371094D01*
X137395413Y-79309938D01*
X137395403Y-79309936D01*
X137160001Y-79289341D01*
X137159999Y-79289341D01*
X136924596Y-79309936D01*
X136924586Y-79309938D01*
X136696344Y-79371094D01*
X136696335Y-79371098D01*
X136482171Y-79470964D01*
X136482169Y-79470965D01*
X136288597Y-79606505D01*
X136121505Y-79773597D01*
X135991575Y-79959158D01*
X135936998Y-80002783D01*
X135867500Y-80009977D01*
X135805145Y-79978454D01*
X135788425Y-79959158D01*
X135658494Y-79773597D01*
X135491402Y-79606506D01*
X135491395Y-79606501D01*
X135297834Y-79470967D01*
X135297830Y-79470965D01*
X135226727Y-79437809D01*
X135083663Y-79371097D01*
X135083659Y-79371096D01*
X135083655Y-79371094D01*
X134855413Y-79309938D01*
X134855403Y-79309936D01*
X134620001Y-79289341D01*
X134619999Y-79289341D01*
X134384596Y-79309936D01*
X134384586Y-79309938D01*
X134156344Y-79371094D01*
X134156335Y-79371098D01*
X133942171Y-79470964D01*
X133942169Y-79470965D01*
X133748597Y-79606505D01*
X133581505Y-79773597D01*
X133451575Y-79959158D01*
X133396998Y-80002783D01*
X133327500Y-80009977D01*
X133265145Y-79978454D01*
X133248425Y-79959158D01*
X133118494Y-79773597D01*
X132951402Y-79606506D01*
X132951395Y-79606501D01*
X132757834Y-79470967D01*
X132757830Y-79470965D01*
X132686727Y-79437809D01*
X132543663Y-79371097D01*
X132543659Y-79371096D01*
X132543655Y-79371094D01*
X132315413Y-79309938D01*
X132315403Y-79309936D01*
X132080001Y-79289341D01*
X132079999Y-79289341D01*
X131844596Y-79309936D01*
X131844586Y-79309938D01*
X131616344Y-79371094D01*
X131616335Y-79371098D01*
X131402171Y-79470964D01*
X131402169Y-79470965D01*
X131208597Y-79606505D01*
X131041505Y-79773597D01*
X130905965Y-79967169D01*
X130905964Y-79967171D01*
X130806098Y-80181335D01*
X130806094Y-80181344D01*
X130744938Y-80409586D01*
X130744936Y-80409596D01*
X130724341Y-80644999D01*
X128770500Y-80644999D01*
X128770500Y-77585986D01*
X139124001Y-77585986D01*
X139134494Y-77688697D01*
X139189641Y-77855119D01*
X139189643Y-77855124D01*
X139281684Y-78004345D01*
X139405654Y-78128315D01*
X139554875Y-78220356D01*
X139554880Y-78220358D01*
X139721302Y-78275505D01*
X139721309Y-78275506D01*
X139824019Y-78285999D01*
X139936499Y-78285999D01*
X140436500Y-78285999D01*
X140548972Y-78285999D01*
X140548986Y-78285998D01*
X140651697Y-78275505D01*
X140818119Y-78220358D01*
X140818124Y-78220356D01*
X140967345Y-78128315D01*
X141091315Y-78004345D01*
X141183356Y-77855124D01*
X141183358Y-77855119D01*
X141238505Y-77688697D01*
X141238506Y-77688690D01*
X141248999Y-77585986D01*
X141249000Y-77585973D01*
X141249000Y-77161000D01*
X140436500Y-77161000D01*
X140436500Y-78285999D01*
X139936499Y-78285999D01*
X139936500Y-78285998D01*
X139936500Y-77161000D01*
X139124001Y-77161000D01*
X139124001Y-77585986D01*
X128770500Y-77585986D01*
X128770500Y-74935711D01*
X130229500Y-74935711D01*
X130229500Y-75178288D01*
X130261161Y-75418785D01*
X130323947Y-75653104D01*
X130416773Y-75877205D01*
X130416777Y-75877214D01*
X130438974Y-75915661D01*
X130538064Y-76087289D01*
X130538066Y-76087292D01*
X130538067Y-76087293D01*
X130685733Y-76279736D01*
X130685739Y-76279743D01*
X130857256Y-76451260D01*
X130857262Y-76451265D01*
X131049711Y-76598936D01*
X131259788Y-76720224D01*
X131483900Y-76813054D01*
X131718211Y-76875838D01*
X131898586Y-76899584D01*
X131958711Y-76907500D01*
X131958712Y-76907500D01*
X132201289Y-76907500D01*
X132249388Y-76901167D01*
X132441789Y-76875838D01*
X132676100Y-76813054D01*
X132900212Y-76720224D01*
X133110289Y-76598936D01*
X133302738Y-76451265D01*
X133474265Y-76279738D01*
X133507816Y-76236013D01*
X139124000Y-76236013D01*
X139124000Y-76661000D01*
X139936500Y-76661000D01*
X140436500Y-76661000D01*
X141248999Y-76661000D01*
X141248999Y-76236028D01*
X141248998Y-76236013D01*
X141248995Y-76235983D01*
X142048500Y-76235983D01*
X142048500Y-77586001D01*
X142048501Y-77586018D01*
X142059000Y-77688796D01*
X142059001Y-77688799D01*
X142088231Y-77777007D01*
X142114186Y-77855334D01*
X142206288Y-78004656D01*
X142330344Y-78128712D01*
X142479666Y-78220814D01*
X142646203Y-78275999D01*
X142748991Y-78286500D01*
X143474008Y-78286499D01*
X143474016Y-78286498D01*
X143474019Y-78286498D01*
X143530302Y-78280748D01*
X143576797Y-78275999D01*
X143743334Y-78220814D01*
X143892656Y-78128712D01*
X144016712Y-78004656D01*
X144108814Y-77855334D01*
X144163999Y-77688797D01*
X144174500Y-77586009D01*
X144174500Y-77482500D01*
X144194185Y-77415461D01*
X144246989Y-77369706D01*
X144298500Y-77358500D01*
X146494932Y-77358500D01*
X146560904Y-77377506D01*
X146650477Y-77433789D01*
X146650481Y-77433790D01*
X146820737Y-77493366D01*
X146820743Y-77493367D01*
X146820745Y-77493368D01*
X146820746Y-77493368D01*
X146820750Y-77493369D01*
X146999996Y-77513565D01*
X147000000Y-77513565D01*
X147000004Y-77513565D01*
X147179249Y-77493369D01*
X147179252Y-77493368D01*
X147179255Y-77493368D01*
X147349522Y-77433789D01*
X147502262Y-77337816D01*
X147629816Y-77210262D01*
X147725789Y-77057522D01*
X147785368Y-76887255D01*
X147785369Y-76887249D01*
X147805565Y-76708003D01*
X147805565Y-76707996D01*
X147790257Y-76572135D01*
X185334500Y-76572135D01*
X185334500Y-78367870D01*
X185334501Y-78367876D01*
X185340908Y-78427483D01*
X185391202Y-78562328D01*
X185391206Y-78562335D01*
X185477452Y-78677544D01*
X185477455Y-78677547D01*
X185592664Y-78763793D01*
X185592671Y-78763797D01*
X185727517Y-78814091D01*
X185727516Y-78814091D01*
X185734444Y-78814835D01*
X185787127Y-78820500D01*
X187582872Y-78820499D01*
X187642483Y-78814091D01*
X187777331Y-78763796D01*
X187892546Y-78677546D01*
X187978796Y-78562331D01*
X188028002Y-78430401D01*
X188069872Y-78374468D01*
X188135337Y-78350050D01*
X188203610Y-78364901D01*
X188231865Y-78386053D01*
X188353917Y-78508105D01*
X188547421Y-78643600D01*
X188761507Y-78743429D01*
X188761516Y-78743433D01*
X188975000Y-78800634D01*
X188975000Y-77903012D01*
X189032007Y-77935925D01*
X189159174Y-77970000D01*
X189290826Y-77970000D01*
X189417993Y-77935925D01*
X189475000Y-77903012D01*
X189475000Y-78800633D01*
X189688483Y-78743433D01*
X189688492Y-78743429D01*
X189902578Y-78643600D01*
X190096082Y-78508105D01*
X190263105Y-78341082D01*
X190398600Y-78147578D01*
X190498429Y-77933492D01*
X190498432Y-77933486D01*
X190555636Y-77720000D01*
X189658012Y-77720000D01*
X189690925Y-77662993D01*
X189725000Y-77535826D01*
X189725000Y-77404174D01*
X189690925Y-77277007D01*
X189658012Y-77220000D01*
X190555636Y-77220000D01*
X190555635Y-77219999D01*
X190498432Y-77006513D01*
X190498429Y-77006507D01*
X190398600Y-76792422D01*
X190398599Y-76792420D01*
X190263113Y-76598926D01*
X190263108Y-76598920D01*
X190096082Y-76431894D01*
X189902578Y-76296399D01*
X189688492Y-76196570D01*
X189688486Y-76196567D01*
X189475000Y-76139364D01*
X189475000Y-77036988D01*
X189417993Y-77004075D01*
X189290826Y-76970000D01*
X189159174Y-76970000D01*
X189032007Y-77004075D01*
X188975000Y-77036988D01*
X188975000Y-76139364D01*
X188974999Y-76139364D01*
X188761513Y-76196567D01*
X188761507Y-76196570D01*
X188547422Y-76296399D01*
X188547420Y-76296400D01*
X188353926Y-76431886D01*
X188231865Y-76553947D01*
X188170542Y-76587431D01*
X188100850Y-76582447D01*
X188044917Y-76540575D01*
X188028002Y-76509598D01*
X188006245Y-76451265D01*
X187978796Y-76377669D01*
X187978795Y-76377668D01*
X187978793Y-76377664D01*
X187892547Y-76262455D01*
X187892544Y-76262452D01*
X187777335Y-76176206D01*
X187777328Y-76176202D01*
X187642482Y-76125908D01*
X187642483Y-76125908D01*
X187582883Y-76119501D01*
X187582881Y-76119500D01*
X187582873Y-76119500D01*
X187582864Y-76119500D01*
X185787129Y-76119500D01*
X185787123Y-76119501D01*
X185727516Y-76125908D01*
X185592671Y-76176202D01*
X185592664Y-76176206D01*
X185477455Y-76262452D01*
X185477452Y-76262455D01*
X185391206Y-76377664D01*
X185391202Y-76377671D01*
X185340908Y-76512517D01*
X185334501Y-76572116D01*
X185334500Y-76572135D01*
X147790257Y-76572135D01*
X147785369Y-76528750D01*
X147785368Y-76528745D01*
X147758257Y-76451266D01*
X147725789Y-76358478D01*
X147629816Y-76205738D01*
X147502262Y-76078184D01*
X147439096Y-76038494D01*
X147349523Y-75982211D01*
X147179254Y-75922631D01*
X147179249Y-75922630D01*
X147000004Y-75902435D01*
X146999996Y-75902435D01*
X146820750Y-75922630D01*
X146820737Y-75922633D01*
X146650481Y-75982209D01*
X146650477Y-75982210D01*
X146560904Y-76038494D01*
X146494932Y-76057500D01*
X144228454Y-76057500D01*
X144161415Y-76037815D01*
X144115660Y-75985011D01*
X144110748Y-75972504D01*
X144108814Y-75966666D01*
X144016712Y-75817344D01*
X143892656Y-75693288D01*
X143743334Y-75601186D01*
X143576797Y-75546001D01*
X143576795Y-75546000D01*
X143474010Y-75535500D01*
X142748998Y-75535500D01*
X142748980Y-75535501D01*
X142646203Y-75546000D01*
X142646200Y-75546001D01*
X142479668Y-75601185D01*
X142479663Y-75601187D01*
X142330342Y-75693289D01*
X142206289Y-75817342D01*
X142114187Y-75966663D01*
X142114185Y-75966668D01*
X142086349Y-76050670D01*
X142059001Y-76133203D01*
X142059001Y-76133204D01*
X142059000Y-76133204D01*
X142048500Y-76235983D01*
X141248995Y-76235983D01*
X141238505Y-76133302D01*
X141183358Y-75966880D01*
X141183356Y-75966875D01*
X141091315Y-75817654D01*
X140967345Y-75693684D01*
X140818124Y-75601643D01*
X140818119Y-75601641D01*
X140651697Y-75546494D01*
X140651690Y-75546493D01*
X140548986Y-75536000D01*
X140436500Y-75536000D01*
X140436500Y-76661000D01*
X139936500Y-76661000D01*
X139936500Y-75536000D01*
X139824027Y-75536000D01*
X139824012Y-75536001D01*
X139721302Y-75546494D01*
X139554880Y-75601641D01*
X139554875Y-75601643D01*
X139405654Y-75693684D01*
X139281684Y-75817654D01*
X139189643Y-75966875D01*
X139189641Y-75966880D01*
X139134494Y-76133302D01*
X139134493Y-76133309D01*
X139124000Y-76236013D01*
X133507816Y-76236013D01*
X133621936Y-76087289D01*
X133743224Y-75877212D01*
X133836054Y-75653100D01*
X133898838Y-75418789D01*
X133930500Y-75178288D01*
X133930500Y-74935712D01*
X133898838Y-74695211D01*
X133836054Y-74460900D01*
X133743224Y-74236788D01*
X133621936Y-74026711D01*
X133601439Y-73999999D01*
X143104341Y-73999999D01*
X143104341Y-74000000D01*
X143124936Y-74235403D01*
X143124938Y-74235413D01*
X143186094Y-74463655D01*
X143186096Y-74463659D01*
X143186097Y-74463663D01*
X143285965Y-74677830D01*
X143285967Y-74677834D01*
X143298135Y-74695211D01*
X143421505Y-74871401D01*
X143588599Y-75038495D01*
X143665135Y-75092086D01*
X143782165Y-75174032D01*
X143782167Y-75174033D01*
X143782170Y-75174035D01*
X143996337Y-75273903D01*
X144224592Y-75335063D01*
X144395319Y-75350000D01*
X144459999Y-75355659D01*
X144460000Y-75355659D01*
X144460001Y-75355659D01*
X144524681Y-75350000D01*
X144695408Y-75335063D01*
X144923663Y-75273903D01*
X145137830Y-75174035D01*
X145331401Y-75038495D01*
X145453717Y-74916178D01*
X145515036Y-74882696D01*
X145584728Y-74887680D01*
X145640662Y-74929551D01*
X145657577Y-74960528D01*
X145706646Y-75092088D01*
X145706649Y-75092093D01*
X145792809Y-75207187D01*
X145792812Y-75207190D01*
X145907906Y-75293350D01*
X145907913Y-75293354D01*
X146042620Y-75343596D01*
X146042627Y-75343598D01*
X146102155Y-75349999D01*
X146102172Y-75350000D01*
X146750000Y-75350000D01*
X146750000Y-74433012D01*
X146807007Y-74465925D01*
X146934174Y-74500000D01*
X147065826Y-74500000D01*
X147192993Y-74465925D01*
X147250000Y-74433012D01*
X147250000Y-75350000D01*
X147897828Y-75350000D01*
X147897844Y-75349999D01*
X147957372Y-75343598D01*
X147957379Y-75343596D01*
X148092086Y-75293354D01*
X148092093Y-75293350D01*
X148207187Y-75207190D01*
X148207190Y-75207187D01*
X148293350Y-75092093D01*
X148293354Y-75092086D01*
X148343596Y-74957379D01*
X148343598Y-74957372D01*
X148349999Y-74897844D01*
X148350000Y-74897827D01*
X148350000Y-74250000D01*
X147433012Y-74250000D01*
X147465925Y-74192993D01*
X147500000Y-74065826D01*
X147500000Y-73934174D01*
X147465925Y-73807007D01*
X147433012Y-73750000D01*
X148350000Y-73750000D01*
X148350000Y-73102172D01*
X148349999Y-73102155D01*
X148343598Y-73042627D01*
X148343596Y-73042620D01*
X148293354Y-72907913D01*
X148293350Y-72907906D01*
X148207190Y-72792812D01*
X148207187Y-72792809D01*
X148092093Y-72706649D01*
X148092086Y-72706645D01*
X147957379Y-72656403D01*
X147957372Y-72656401D01*
X147897844Y-72650000D01*
X147250000Y-72650000D01*
X147250000Y-73566988D01*
X147192993Y-73534075D01*
X147065826Y-73500000D01*
X146934174Y-73500000D01*
X146807007Y-73534075D01*
X146750000Y-73566988D01*
X146750000Y-72650000D01*
X146102155Y-72650000D01*
X146042627Y-72656401D01*
X146042620Y-72656403D01*
X145907913Y-72706645D01*
X145907906Y-72706649D01*
X145792812Y-72792809D01*
X145792809Y-72792812D01*
X145706649Y-72907906D01*
X145706645Y-72907913D01*
X145657578Y-73039470D01*
X145615707Y-73095404D01*
X145550242Y-73119821D01*
X145481969Y-73104969D01*
X145453715Y-73083819D01*
X145409366Y-73039470D01*
X145331401Y-72961505D01*
X145331397Y-72961502D01*
X145331396Y-72961501D01*
X145137834Y-72825967D01*
X145137830Y-72825965D01*
X145066727Y-72792809D01*
X144923663Y-72726097D01*
X144923659Y-72726096D01*
X144923655Y-72726094D01*
X144695413Y-72664938D01*
X144695403Y-72664936D01*
X144460001Y-72644341D01*
X144459999Y-72644341D01*
X144224596Y-72664936D01*
X144224586Y-72664938D01*
X143996344Y-72726094D01*
X143996335Y-72726098D01*
X143782171Y-72825964D01*
X143782169Y-72825965D01*
X143588597Y-72961505D01*
X143421505Y-73128597D01*
X143285965Y-73322169D01*
X143285964Y-73322171D01*
X143186098Y-73536335D01*
X143186094Y-73536344D01*
X143124938Y-73764586D01*
X143124936Y-73764596D01*
X143104341Y-73999999D01*
X133601439Y-73999999D01*
X133474265Y-73834262D01*
X133474260Y-73834256D01*
X133302743Y-73662739D01*
X133302736Y-73662733D01*
X133110293Y-73515067D01*
X133110292Y-73515066D01*
X133110289Y-73515064D01*
X132900212Y-73393776D01*
X132900205Y-73393773D01*
X132676104Y-73300947D01*
X132441785Y-73238161D01*
X132201289Y-73206500D01*
X132201288Y-73206500D01*
X131958712Y-73206500D01*
X131958711Y-73206500D01*
X131718214Y-73238161D01*
X131483895Y-73300947D01*
X131259794Y-73393773D01*
X131259785Y-73393777D01*
X131049706Y-73515067D01*
X130857263Y-73662733D01*
X130857256Y-73662739D01*
X130685739Y-73834256D01*
X130685733Y-73834263D01*
X130538067Y-74026706D01*
X130416777Y-74236785D01*
X130416773Y-74236794D01*
X130323947Y-74460895D01*
X130261161Y-74695214D01*
X130229500Y-74935711D01*
X128770500Y-74935711D01*
X128770500Y-71744500D01*
X128790185Y-71677461D01*
X128842989Y-71631706D01*
X128894500Y-71620500D01*
X191011000Y-71620500D01*
X191078039Y-71640185D01*
G37*
%TD.AperFunction*%
%TD*%
%TA.AperFunction,Conductor*%
%TO.N,GNDPWR*%
G36*
X208342539Y-71640185D02*
G01*
X208388294Y-71692989D01*
X208399500Y-71744500D01*
X208399500Y-137885500D01*
X208379815Y-137952539D01*
X208327011Y-137998294D01*
X208275500Y-138009500D01*
X128894500Y-138009500D01*
X128827461Y-137989815D01*
X128781706Y-137937011D01*
X128770500Y-137885500D01*
X128770500Y-133878711D01*
X132149500Y-133878711D01*
X132149500Y-134121288D01*
X132181161Y-134361785D01*
X132243947Y-134596104D01*
X132307303Y-134749058D01*
X132336776Y-134820212D01*
X132458064Y-135030289D01*
X132458066Y-135030292D01*
X132458067Y-135030293D01*
X132605733Y-135222736D01*
X132605739Y-135222743D01*
X132777256Y-135394260D01*
X132777262Y-135394265D01*
X132969711Y-135541936D01*
X133179788Y-135663224D01*
X133403900Y-135756054D01*
X133638211Y-135818838D01*
X133818586Y-135842584D01*
X133878711Y-135850500D01*
X133878712Y-135850500D01*
X134121289Y-135850500D01*
X134169388Y-135844167D01*
X134361789Y-135818838D01*
X134596100Y-135756054D01*
X134820212Y-135663224D01*
X135030289Y-135541936D01*
X135222738Y-135394265D01*
X135394265Y-135222738D01*
X135541936Y-135030289D01*
X135629861Y-134877999D01*
X163520192Y-134877999D01*
X163520193Y-134878000D01*
X164845639Y-134878000D01*
X164838743Y-134894649D01*
X164808000Y-135049207D01*
X164808000Y-135206793D01*
X164838743Y-135361351D01*
X164845639Y-135378000D01*
X163520193Y-135378000D01*
X163522697Y-135414619D01*
X163581146Y-135695888D01*
X163581150Y-135695902D01*
X163677355Y-135966595D01*
X163809527Y-136221676D01*
X163975204Y-136456385D01*
X163975204Y-136456386D01*
X164171288Y-136666341D01*
X164394135Y-136847641D01*
X164394146Y-136847648D01*
X164639607Y-136996917D01*
X164903108Y-137111371D01*
X165179737Y-137188879D01*
X165179746Y-137188881D01*
X165357999Y-137213380D01*
X165358000Y-137213380D01*
X165358000Y-135890360D01*
X165374649Y-135897257D01*
X165529207Y-135928000D01*
X165686793Y-135928000D01*
X165841351Y-135897257D01*
X165858000Y-135890360D01*
X165858000Y-137213380D01*
X166036253Y-137188881D01*
X166036262Y-137188879D01*
X166312891Y-137111371D01*
X166576392Y-136996917D01*
X166821853Y-136847648D01*
X166821864Y-136847641D01*
X167044711Y-136666341D01*
X167240795Y-136456386D01*
X167240795Y-136456385D01*
X167406472Y-136221676D01*
X167538644Y-135966595D01*
X167634849Y-135695902D01*
X167634853Y-135695888D01*
X167693302Y-135414619D01*
X167695807Y-135378000D01*
X166370361Y-135378000D01*
X166377257Y-135361351D01*
X166408000Y-135206793D01*
X166408000Y-135049207D01*
X166377257Y-134894649D01*
X166370361Y-134878000D01*
X167695807Y-134878000D01*
X167695807Y-134877999D01*
X167693302Y-134841380D01*
X167634853Y-134560111D01*
X167634849Y-134560097D01*
X167538644Y-134289404D01*
X167406472Y-134034323D01*
X167296628Y-133878711D01*
X202149500Y-133878711D01*
X202149500Y-134121288D01*
X202181161Y-134361785D01*
X202243947Y-134596104D01*
X202307303Y-134749058D01*
X202336776Y-134820212D01*
X202458064Y-135030289D01*
X202458066Y-135030292D01*
X202458067Y-135030293D01*
X202605733Y-135222736D01*
X202605739Y-135222743D01*
X202777256Y-135394260D01*
X202777262Y-135394265D01*
X202969711Y-135541936D01*
X203179788Y-135663224D01*
X203403900Y-135756054D01*
X203638211Y-135818838D01*
X203818586Y-135842584D01*
X203878711Y-135850500D01*
X203878712Y-135850500D01*
X204121289Y-135850500D01*
X204169388Y-135844167D01*
X204361789Y-135818838D01*
X204596100Y-135756054D01*
X204820212Y-135663224D01*
X205030289Y-135541936D01*
X205222738Y-135394265D01*
X205394265Y-135222738D01*
X205541936Y-135030289D01*
X205663224Y-134820212D01*
X205756054Y-134596100D01*
X205818838Y-134361789D01*
X205850500Y-134121288D01*
X205850500Y-133878712D01*
X205818838Y-133638211D01*
X205756054Y-133403900D01*
X205663224Y-133179788D01*
X205541936Y-132969711D01*
X205394265Y-132777262D01*
X205394260Y-132777256D01*
X205222743Y-132605739D01*
X205222736Y-132605733D01*
X205030293Y-132458067D01*
X205030292Y-132458066D01*
X205030289Y-132458064D01*
X204820212Y-132336776D01*
X204820205Y-132336773D01*
X204596104Y-132243947D01*
X204361785Y-132181161D01*
X204121289Y-132149500D01*
X204121288Y-132149500D01*
X203878712Y-132149500D01*
X203878711Y-132149500D01*
X203638214Y-132181161D01*
X203403895Y-132243947D01*
X203179794Y-132336773D01*
X203179785Y-132336777D01*
X202969706Y-132458067D01*
X202777263Y-132605733D01*
X202777256Y-132605739D01*
X202605739Y-132777256D01*
X202605733Y-132777263D01*
X202458067Y-132969706D01*
X202336777Y-133179785D01*
X202336773Y-133179794D01*
X202243947Y-133403895D01*
X202181161Y-133638214D01*
X202149500Y-133878711D01*
X167296628Y-133878711D01*
X167240795Y-133799614D01*
X167240795Y-133799613D01*
X167044711Y-133589658D01*
X166821864Y-133408358D01*
X166821853Y-133408351D01*
X166576392Y-133259082D01*
X166312891Y-133144628D01*
X166036262Y-133067120D01*
X166036255Y-133067119D01*
X165858000Y-133042618D01*
X165858000Y-134365639D01*
X165841351Y-134358743D01*
X165686793Y-134328000D01*
X165529207Y-134328000D01*
X165374649Y-134358743D01*
X165358000Y-134365639D01*
X165358000Y-133042618D01*
X165179744Y-133067119D01*
X165179737Y-133067120D01*
X164903108Y-133144628D01*
X164639607Y-133259082D01*
X164394146Y-133408351D01*
X164394135Y-133408358D01*
X164171288Y-133589658D01*
X163975204Y-133799613D01*
X163975204Y-133799614D01*
X163809527Y-134034323D01*
X163677355Y-134289404D01*
X163581150Y-134560097D01*
X163581146Y-134560111D01*
X163522697Y-134841380D01*
X163520192Y-134877999D01*
X135629861Y-134877999D01*
X135663224Y-134820212D01*
X135756054Y-134596100D01*
X135818838Y-134361789D01*
X135850500Y-134121288D01*
X135850500Y-133878712D01*
X135818838Y-133638211D01*
X135756054Y-133403900D01*
X135663224Y-133179788D01*
X135541936Y-132969711D01*
X135394265Y-132777262D01*
X135394260Y-132777256D01*
X135222743Y-132605739D01*
X135222736Y-132605733D01*
X135030293Y-132458067D01*
X135030292Y-132458066D01*
X135030289Y-132458064D01*
X134820212Y-132336776D01*
X134820205Y-132336773D01*
X134596104Y-132243947D01*
X134361785Y-132181161D01*
X134121289Y-132149500D01*
X134121288Y-132149500D01*
X133878712Y-132149500D01*
X133878711Y-132149500D01*
X133638214Y-132181161D01*
X133403895Y-132243947D01*
X133179794Y-132336773D01*
X133179785Y-132336777D01*
X132969706Y-132458067D01*
X132777263Y-132605733D01*
X132777256Y-132605739D01*
X132605739Y-132777256D01*
X132605733Y-132777263D01*
X132458067Y-132969706D01*
X132336777Y-133179785D01*
X132336773Y-133179794D01*
X132243947Y-133403895D01*
X132181161Y-133638214D01*
X132149500Y-133878711D01*
X128770500Y-133878711D01*
X128770500Y-130893995D01*
X194890732Y-130893995D01*
X194890732Y-130894004D01*
X194909777Y-131148154D01*
X194909778Y-131148157D01*
X194966492Y-131396637D01*
X195059607Y-131633888D01*
X195187041Y-131854612D01*
X195345950Y-132053877D01*
X195532783Y-132227232D01*
X195743366Y-132370805D01*
X195743371Y-132370807D01*
X195743372Y-132370808D01*
X195743373Y-132370809D01*
X195865328Y-132429538D01*
X195972992Y-132481387D01*
X195972993Y-132481387D01*
X195972996Y-132481389D01*
X196216542Y-132556513D01*
X196468565Y-132594500D01*
X196723435Y-132594500D01*
X196975458Y-132556513D01*
X197219004Y-132481389D01*
X197448634Y-132370805D01*
X197659217Y-132227232D01*
X197846050Y-132053877D01*
X198004959Y-131854612D01*
X198132393Y-131633888D01*
X198225508Y-131396637D01*
X198282222Y-131148157D01*
X198301268Y-130894000D01*
X198282222Y-130639843D01*
X198225508Y-130391363D01*
X198132393Y-130154112D01*
X198004959Y-129933388D01*
X197846050Y-129734123D01*
X197659217Y-129560768D01*
X197448634Y-129417195D01*
X197448630Y-129417193D01*
X197448627Y-129417191D01*
X197448626Y-129417190D01*
X197219006Y-129306612D01*
X197219008Y-129306612D01*
X196975466Y-129231489D01*
X196975462Y-129231488D01*
X196975458Y-129231487D01*
X196854231Y-129213214D01*
X196723440Y-129193500D01*
X196723435Y-129193500D01*
X196468565Y-129193500D01*
X196468559Y-129193500D01*
X196311609Y-129217157D01*
X196216542Y-129231487D01*
X196216539Y-129231488D01*
X196216533Y-129231489D01*
X195972992Y-129306612D01*
X195743373Y-129417190D01*
X195743372Y-129417191D01*
X195532782Y-129560768D01*
X195345952Y-129734121D01*
X195345950Y-129734123D01*
X195187041Y-129933388D01*
X195059608Y-130154109D01*
X194966492Y-130391362D01*
X194966490Y-130391369D01*
X194909777Y-130639845D01*
X194890732Y-130893995D01*
X128770500Y-130893995D01*
X128770500Y-125933155D01*
X138744000Y-125933155D01*
X138744000Y-126721000D01*
X140613175Y-126721000D01*
X140589364Y-126778485D01*
X140564000Y-126905996D01*
X140564000Y-127036004D01*
X140589364Y-127163515D01*
X140613175Y-127221000D01*
X138744000Y-127221000D01*
X138744000Y-128008844D01*
X138750401Y-128068372D01*
X138750403Y-128068379D01*
X138800645Y-128203086D01*
X138800649Y-128203093D01*
X138886809Y-128318187D01*
X138886812Y-128318190D01*
X139001906Y-128404350D01*
X139001913Y-128404354D01*
X139136620Y-128454596D01*
X139136627Y-128454598D01*
X139196155Y-128460999D01*
X139196172Y-128461000D01*
X140974000Y-128461000D01*
X140974000Y-127581824D01*
X141031485Y-127605636D01*
X141158996Y-127631000D01*
X141289004Y-127631000D01*
X141416515Y-127605636D01*
X141474000Y-127581824D01*
X141474000Y-128461000D01*
X143251828Y-128461000D01*
X143251844Y-128460999D01*
X143311372Y-128454598D01*
X143311379Y-128454596D01*
X143446086Y-128404354D01*
X143446093Y-128404350D01*
X143561187Y-128318190D01*
X143561190Y-128318187D01*
X143647350Y-128203093D01*
X143647354Y-128203086D01*
X143697596Y-128068379D01*
X143697598Y-128068372D01*
X143703999Y-128008844D01*
X143704000Y-128008827D01*
X143704000Y-127221000D01*
X141834825Y-127221000D01*
X141858636Y-127163515D01*
X141884000Y-127036004D01*
X141884000Y-126905996D01*
X141858636Y-126778485D01*
X141834825Y-126721000D01*
X143704000Y-126721000D01*
X143704000Y-125933172D01*
X143703999Y-125933155D01*
X143697598Y-125873627D01*
X143697596Y-125873620D01*
X143690276Y-125853995D01*
X194890732Y-125853995D01*
X194890732Y-125854004D01*
X194909777Y-126108154D01*
X194961864Y-126336364D01*
X194966492Y-126356637D01*
X195059607Y-126593888D01*
X195187041Y-126814612D01*
X195345950Y-127013877D01*
X195532783Y-127187232D01*
X195743366Y-127330805D01*
X195743371Y-127330807D01*
X195743372Y-127330808D01*
X195743373Y-127330809D01*
X195865328Y-127389538D01*
X195972992Y-127441387D01*
X195972993Y-127441387D01*
X195972996Y-127441389D01*
X196216542Y-127516513D01*
X196468565Y-127554500D01*
X196723435Y-127554500D01*
X196975458Y-127516513D01*
X197219004Y-127441389D01*
X197448634Y-127330805D01*
X197659217Y-127187232D01*
X197846050Y-127013877D01*
X198004959Y-126814612D01*
X198132393Y-126593888D01*
X198225508Y-126356637D01*
X198282222Y-126108157D01*
X198301268Y-125854000D01*
X198282222Y-125599843D01*
X198225508Y-125351363D01*
X198132393Y-125114112D01*
X198004959Y-124893388D01*
X197846050Y-124694123D01*
X197659217Y-124520768D01*
X197448634Y-124377195D01*
X197448630Y-124377193D01*
X197448627Y-124377191D01*
X197448626Y-124377190D01*
X197219006Y-124266612D01*
X197219008Y-124266612D01*
X196975466Y-124191489D01*
X196975462Y-124191488D01*
X196975458Y-124191487D01*
X196854231Y-124173214D01*
X196723440Y-124153500D01*
X196723435Y-124153500D01*
X196468565Y-124153500D01*
X196468559Y-124153500D01*
X196311609Y-124177157D01*
X196216542Y-124191487D01*
X196216539Y-124191488D01*
X196216533Y-124191489D01*
X195972992Y-124266612D01*
X195743373Y-124377190D01*
X195743372Y-124377191D01*
X195532782Y-124520768D01*
X195345952Y-124694121D01*
X195345950Y-124694123D01*
X195187041Y-124893388D01*
X195059608Y-125114109D01*
X194966492Y-125351362D01*
X194966490Y-125351369D01*
X194909777Y-125599845D01*
X194890732Y-125853995D01*
X143690276Y-125853995D01*
X143647354Y-125738913D01*
X143647350Y-125738906D01*
X143561190Y-125623812D01*
X143561187Y-125623809D01*
X143446093Y-125537649D01*
X143446086Y-125537645D01*
X143311379Y-125487403D01*
X143311372Y-125487401D01*
X143251844Y-125481000D01*
X141474000Y-125481000D01*
X141474000Y-126360175D01*
X141416515Y-126336364D01*
X141289004Y-126311000D01*
X141158996Y-126311000D01*
X141031485Y-126336364D01*
X140974000Y-126360175D01*
X140974000Y-125481000D01*
X139196155Y-125481000D01*
X139136627Y-125487401D01*
X139136620Y-125487403D01*
X139001913Y-125537645D01*
X139001906Y-125537649D01*
X138886812Y-125623809D01*
X138886809Y-125623812D01*
X138800649Y-125738906D01*
X138800645Y-125738913D01*
X138750403Y-125873620D01*
X138750401Y-125873627D01*
X138744000Y-125933155D01*
X128770500Y-125933155D01*
X128770500Y-121853695D01*
X138743500Y-121853695D01*
X138743500Y-122088304D01*
X138780201Y-122320027D01*
X138852697Y-122543150D01*
X138959212Y-122752195D01*
X139097104Y-122941989D01*
X139097108Y-122941994D01*
X139263005Y-123107891D01*
X139263010Y-123107895D01*
X139320252Y-123149483D01*
X139452808Y-123245790D01*
X139661847Y-123352301D01*
X139661849Y-123352302D01*
X139773410Y-123388550D01*
X139884974Y-123424799D01*
X140116695Y-123461500D01*
X140116696Y-123461500D01*
X142331304Y-123461500D01*
X142331305Y-123461500D01*
X142563026Y-123424799D01*
X142786153Y-123352301D01*
X142995192Y-123245790D01*
X143184996Y-123107890D01*
X143350890Y-122941996D01*
X143488790Y-122752192D01*
X143595301Y-122543153D01*
X143667799Y-122320026D01*
X143704500Y-122088305D01*
X143704500Y-121853695D01*
X143667799Y-121621974D01*
X143595301Y-121398847D01*
X143488790Y-121189808D01*
X143423297Y-121099664D01*
X143350895Y-121000010D01*
X143350891Y-121000005D01*
X143184994Y-120834108D01*
X143184989Y-120834104D01*
X142995195Y-120696212D01*
X142995194Y-120696211D01*
X142995192Y-120696210D01*
X142890672Y-120642954D01*
X142786150Y-120589697D01*
X142563027Y-120517201D01*
X142447165Y-120498850D01*
X142331305Y-120480500D01*
X140116695Y-120480500D01*
X140039454Y-120492733D01*
X139884972Y-120517201D01*
X139661849Y-120589697D01*
X139452804Y-120696212D01*
X139263010Y-120834104D01*
X139263005Y-120834108D01*
X139097108Y-121000005D01*
X139097104Y-121000010D01*
X138959212Y-121189804D01*
X138852697Y-121398849D01*
X138780201Y-121621972D01*
X138743500Y-121853695D01*
X128770500Y-121853695D01*
X128770500Y-118174986D01*
X158475001Y-118174986D01*
X158485494Y-118277697D01*
X158540641Y-118444119D01*
X158540643Y-118444124D01*
X158632684Y-118593345D01*
X158756654Y-118717315D01*
X158905875Y-118809356D01*
X158905880Y-118809358D01*
X159072302Y-118864505D01*
X159072309Y-118864506D01*
X159175019Y-118874999D01*
X159287499Y-118874999D01*
X159787500Y-118874999D01*
X159899972Y-118874999D01*
X159899986Y-118874998D01*
X160002697Y-118864505D01*
X160169119Y-118809358D01*
X160169124Y-118809356D01*
X160318345Y-118717315D01*
X160442315Y-118593345D01*
X160534356Y-118444124D01*
X160534358Y-118444119D01*
X160589505Y-118277697D01*
X160589506Y-118277690D01*
X160599999Y-118174986D01*
X160600000Y-118174973D01*
X160600000Y-117750000D01*
X159787500Y-117750000D01*
X159787500Y-118874999D01*
X159287499Y-118874999D01*
X159287500Y-118874998D01*
X159287500Y-117750000D01*
X158475001Y-117750000D01*
X158475001Y-118174986D01*
X128770500Y-118174986D01*
X128770500Y-116825013D01*
X158475000Y-116825013D01*
X158475000Y-117250000D01*
X159287500Y-117250000D01*
X159787500Y-117250000D01*
X160599999Y-117250000D01*
X160599999Y-116825028D01*
X160599998Y-116825013D01*
X160589505Y-116722302D01*
X160534358Y-116555880D01*
X160534356Y-116555875D01*
X160442315Y-116406654D01*
X160318345Y-116282684D01*
X160169124Y-116190643D01*
X160169119Y-116190641D01*
X160002697Y-116135494D01*
X160002690Y-116135493D01*
X159899986Y-116125000D01*
X159787500Y-116125000D01*
X159787500Y-117250000D01*
X159287500Y-117250000D01*
X159287500Y-116125000D01*
X159175027Y-116125000D01*
X159175012Y-116125001D01*
X159072302Y-116135494D01*
X158905880Y-116190641D01*
X158905875Y-116190643D01*
X158756654Y-116282684D01*
X158632684Y-116406654D01*
X158540643Y-116555875D01*
X158540641Y-116555880D01*
X158485494Y-116722302D01*
X158485493Y-116722309D01*
X158475000Y-116825013D01*
X128770500Y-116825013D01*
X128770500Y-104264000D01*
X128790185Y-104196961D01*
X128842989Y-104151206D01*
X128894500Y-104140000D01*
X135660840Y-104140000D01*
X135708200Y-104150499D01*
X135708423Y-104149889D01*
X135713058Y-104151576D01*
X135713243Y-104151617D01*
X135713504Y-104151739D01*
X135933308Y-104210635D01*
X136095230Y-104224801D01*
X136159998Y-104230468D01*
X136160000Y-104230468D01*
X136160002Y-104230468D01*
X136216673Y-104225509D01*
X136386692Y-104210635D01*
X136606496Y-104151739D01*
X136606756Y-104151617D01*
X136606941Y-104151576D01*
X136611577Y-104149889D01*
X136611799Y-104150499D01*
X136659160Y-104140000D01*
X137574083Y-104140000D01*
X137641122Y-104159685D01*
X137686877Y-104212489D01*
X137697611Y-104274808D01*
X137694532Y-104309999D01*
X137694532Y-104310001D01*
X137714364Y-104536686D01*
X137714366Y-104536697D01*
X137773258Y-104756488D01*
X137773261Y-104756497D01*
X137869431Y-104962732D01*
X137869432Y-104962734D01*
X137999954Y-105149141D01*
X138160858Y-105310045D01*
X138160861Y-105310047D01*
X138347266Y-105440568D01*
X138553504Y-105536739D01*
X138773308Y-105595635D01*
X138935230Y-105609801D01*
X138999998Y-105615468D01*
X139000000Y-105615468D01*
X139000002Y-105615468D01*
X139056673Y-105610509D01*
X139226692Y-105595635D01*
X139446496Y-105536739D01*
X139652734Y-105440568D01*
X139839139Y-105310047D01*
X140000047Y-105149139D01*
X140130568Y-104962734D01*
X140226739Y-104756496D01*
X140285635Y-104536692D01*
X140302634Y-104342384D01*
X140305468Y-104310001D01*
X140305468Y-104309999D01*
X140302389Y-104274808D01*
X140316155Y-104206308D01*
X140364770Y-104156125D01*
X140425917Y-104140000D01*
X163071000Y-104140000D01*
X163138039Y-104159685D01*
X163183794Y-104212489D01*
X163195000Y-104264000D01*
X163195000Y-111333691D01*
X163175315Y-111400730D01*
X163158681Y-111421372D01*
X161957227Y-112622825D01*
X161957221Y-112622832D01*
X161888642Y-112725469D01*
X161888643Y-112725470D01*
X161886034Y-112729374D01*
X161836999Y-112847755D01*
X161836997Y-112847761D01*
X161812000Y-112973428D01*
X161812000Y-116132491D01*
X161792315Y-116199530D01*
X161753098Y-116238029D01*
X161681344Y-116282287D01*
X161557289Y-116406342D01*
X161465187Y-116555663D01*
X161465185Y-116555668D01*
X161465115Y-116555880D01*
X161410001Y-116722203D01*
X161410001Y-116722204D01*
X161410000Y-116722204D01*
X161399500Y-116824983D01*
X161399500Y-118175001D01*
X161399501Y-118175018D01*
X161410000Y-118277796D01*
X161410001Y-118277799D01*
X161465115Y-118444119D01*
X161465186Y-118444334D01*
X161557288Y-118593656D01*
X161681344Y-118717712D01*
X161830666Y-118809814D01*
X161997203Y-118864999D01*
X162099991Y-118875500D01*
X162825008Y-118875499D01*
X162825016Y-118875498D01*
X162825019Y-118875498D01*
X162881302Y-118869748D01*
X162927797Y-118864999D01*
X163094334Y-118809814D01*
X163243656Y-118717712D01*
X163295820Y-118665547D01*
X163357141Y-118632063D01*
X163426833Y-118637047D01*
X163482766Y-118678918D01*
X163507184Y-118744382D01*
X163507500Y-118753229D01*
X163507500Y-121535870D01*
X163507501Y-121535876D01*
X163513908Y-121595483D01*
X163564202Y-121730328D01*
X163564206Y-121730335D01*
X163650452Y-121845544D01*
X163650455Y-121845547D01*
X163765664Y-121931793D01*
X163765671Y-121931797D01*
X163900517Y-121982091D01*
X163900516Y-121982091D01*
X163907444Y-121982835D01*
X163960127Y-121988500D01*
X167255872Y-121988499D01*
X167315483Y-121982091D01*
X167450331Y-121931796D01*
X167565546Y-121845546D01*
X167651796Y-121730331D01*
X167702091Y-121595483D01*
X167708500Y-121535873D01*
X167708500Y-121294135D01*
X201849500Y-121294135D01*
X201849500Y-123089870D01*
X201849501Y-123089876D01*
X201855908Y-123149483D01*
X201906202Y-123284328D01*
X201906206Y-123284335D01*
X201992452Y-123399544D01*
X201992455Y-123399547D01*
X202107664Y-123485793D01*
X202107671Y-123485797D01*
X202107674Y-123485798D01*
X202239598Y-123535002D01*
X202295531Y-123576873D01*
X202319949Y-123642337D01*
X202305098Y-123710610D01*
X202283947Y-123738865D01*
X202161886Y-123860926D01*
X202026400Y-124054420D01*
X202026399Y-124054422D01*
X201926570Y-124268507D01*
X201926567Y-124268513D01*
X201869364Y-124481999D01*
X201869364Y-124482000D01*
X202766988Y-124482000D01*
X202734075Y-124539007D01*
X202700000Y-124666174D01*
X202700000Y-124797826D01*
X202734075Y-124924993D01*
X202766988Y-124982000D01*
X201869364Y-124982000D01*
X201926567Y-125195486D01*
X201926570Y-125195492D01*
X202026399Y-125409578D01*
X202161894Y-125603082D01*
X202328917Y-125770105D01*
X202522421Y-125905600D01*
X202736507Y-126005429D01*
X202736516Y-126005433D01*
X202950000Y-126062634D01*
X202950000Y-125165012D01*
X203007007Y-125197925D01*
X203134174Y-125232000D01*
X203265826Y-125232000D01*
X203392993Y-125197925D01*
X203450000Y-125165012D01*
X203450000Y-126062633D01*
X203663483Y-126005433D01*
X203663492Y-126005429D01*
X203877578Y-125905600D01*
X204071082Y-125770105D01*
X204238105Y-125603082D01*
X204373600Y-125409578D01*
X204473429Y-125195492D01*
X204473432Y-125195486D01*
X204530636Y-124982000D01*
X203633012Y-124982000D01*
X203665925Y-124924993D01*
X203700000Y-124797826D01*
X203700000Y-124666174D01*
X203665925Y-124539007D01*
X203633012Y-124482000D01*
X204530636Y-124482000D01*
X204530635Y-124481999D01*
X204473432Y-124268513D01*
X204473429Y-124268507D01*
X204373600Y-124054422D01*
X204373599Y-124054420D01*
X204238113Y-123860926D01*
X204238108Y-123860920D01*
X204116053Y-123738865D01*
X204082568Y-123677542D01*
X204087552Y-123607850D01*
X204129424Y-123551917D01*
X204160400Y-123535002D01*
X204292331Y-123485796D01*
X204407546Y-123399546D01*
X204493796Y-123284331D01*
X204544091Y-123149483D01*
X204550500Y-123089873D01*
X204550499Y-121294128D01*
X204544091Y-121234517D01*
X204493796Y-121099669D01*
X204493795Y-121099668D01*
X204493793Y-121099664D01*
X204407547Y-120984455D01*
X204407544Y-120984452D01*
X204292335Y-120898206D01*
X204292328Y-120898202D01*
X204157482Y-120847908D01*
X204157483Y-120847908D01*
X204097883Y-120841501D01*
X204097881Y-120841500D01*
X204097873Y-120841500D01*
X204097864Y-120841500D01*
X202302129Y-120841500D01*
X202302123Y-120841501D01*
X202242516Y-120847908D01*
X202107671Y-120898202D01*
X202107664Y-120898206D01*
X201992455Y-120984452D01*
X201992452Y-120984455D01*
X201906206Y-121099664D01*
X201906202Y-121099671D01*
X201855908Y-121234517D01*
X201849501Y-121294116D01*
X201849501Y-121294123D01*
X201849500Y-121294135D01*
X167708500Y-121294135D01*
X167708499Y-118240128D01*
X167702091Y-118180517D01*
X167700036Y-118175008D01*
X167651797Y-118045671D01*
X167651793Y-118045664D01*
X167565547Y-117930455D01*
X167565544Y-117930452D01*
X167450335Y-117844206D01*
X167450328Y-117844202D01*
X167315482Y-117793908D01*
X167315483Y-117793908D01*
X167255883Y-117787501D01*
X167255881Y-117787500D01*
X167255873Y-117787500D01*
X167255864Y-117787500D01*
X163960129Y-117787500D01*
X163960123Y-117787501D01*
X163900516Y-117793908D01*
X163765671Y-117844202D01*
X163765664Y-117844206D01*
X163723809Y-117875539D01*
X163658345Y-117899956D01*
X163590072Y-117885104D01*
X163540667Y-117835699D01*
X163525499Y-117776272D01*
X163525499Y-116824998D01*
X163525498Y-116824981D01*
X163514999Y-116722203D01*
X163514998Y-116722200D01*
X163459814Y-116555666D01*
X163367712Y-116406344D01*
X163243656Y-116282288D01*
X163243655Y-116282287D01*
X163171902Y-116238029D01*
X163125178Y-116186081D01*
X163113000Y-116132491D01*
X163113000Y-115694000D01*
X163132685Y-115626961D01*
X163185489Y-115581206D01*
X163237000Y-115570000D01*
X188595000Y-115570000D01*
X188595000Y-111900713D01*
X188614685Y-111833674D01*
X188667489Y-111787919D01*
X188736647Y-111777975D01*
X188784102Y-111795178D01*
X188790872Y-111799354D01*
X188790880Y-111799358D01*
X188957302Y-111854505D01*
X188957309Y-111854506D01*
X189060019Y-111864999D01*
X189172499Y-111864999D01*
X189672500Y-111864999D01*
X189784972Y-111864999D01*
X189784986Y-111864998D01*
X189887697Y-111854505D01*
X190054119Y-111799358D01*
X190054124Y-111799356D01*
X190203345Y-111707315D01*
X190327315Y-111583345D01*
X190419356Y-111434124D01*
X190419358Y-111434119D01*
X190474505Y-111267697D01*
X190474506Y-111267690D01*
X190484999Y-111164986D01*
X190485000Y-111164973D01*
X190485000Y-110740000D01*
X189672500Y-110740000D01*
X189672500Y-111864999D01*
X189172499Y-111864999D01*
X189172500Y-111864998D01*
X189172500Y-110240000D01*
X189672500Y-110240000D01*
X190484999Y-110240000D01*
X190484999Y-109815028D01*
X190484998Y-109815013D01*
X190474505Y-109712302D01*
X190419358Y-109545880D01*
X190419356Y-109545875D01*
X190375019Y-109473994D01*
X195090357Y-109473994D01*
X195090357Y-109474005D01*
X195110890Y-109721812D01*
X195110892Y-109721824D01*
X195171936Y-109962881D01*
X195271826Y-110190606D01*
X195407833Y-110398782D01*
X195407836Y-110398785D01*
X195576256Y-110581738D01*
X195772491Y-110734474D01*
X195991190Y-110852828D01*
X196226386Y-110933571D01*
X196471665Y-110974500D01*
X196720335Y-110974500D01*
X196965614Y-110933571D01*
X197200810Y-110852828D01*
X197419509Y-110734474D01*
X197615744Y-110581738D01*
X197784164Y-110398785D01*
X197920173Y-110190607D01*
X198020063Y-109962881D01*
X198081108Y-109721821D01*
X198095687Y-109545880D01*
X198101643Y-109474005D01*
X198101643Y-109473994D01*
X198081109Y-109226187D01*
X198081107Y-109226175D01*
X198020063Y-108985118D01*
X197920173Y-108757393D01*
X197784166Y-108549217D01*
X197762557Y-108525744D01*
X197615744Y-108366262D01*
X197419509Y-108213526D01*
X197419507Y-108213525D01*
X197419506Y-108213524D01*
X197200811Y-108095172D01*
X197200802Y-108095169D01*
X196965616Y-108014429D01*
X196720335Y-107973500D01*
X196471665Y-107973500D01*
X196226383Y-108014429D01*
X195991197Y-108095169D01*
X195991188Y-108095172D01*
X195772493Y-108213524D01*
X195576257Y-108366261D01*
X195407833Y-108549217D01*
X195271826Y-108757393D01*
X195171936Y-108985118D01*
X195110892Y-109226175D01*
X195110890Y-109226187D01*
X195090357Y-109473994D01*
X190375019Y-109473994D01*
X190327315Y-109396654D01*
X190203345Y-109272684D01*
X190054124Y-109180643D01*
X190054119Y-109180641D01*
X189887697Y-109125494D01*
X189887690Y-109125493D01*
X189784986Y-109115000D01*
X189672500Y-109115000D01*
X189672500Y-110240000D01*
X189172500Y-110240000D01*
X189172500Y-109115000D01*
X189060027Y-109115000D01*
X189060012Y-109115001D01*
X188957302Y-109125494D01*
X188790880Y-109180641D01*
X188790871Y-109180645D01*
X188784096Y-109184825D01*
X188716704Y-109203265D01*
X188650041Y-109182342D01*
X188605271Y-109128700D01*
X188595000Y-109079286D01*
X188595000Y-104646135D01*
X195095500Y-104646135D01*
X195095500Y-106741870D01*
X195095501Y-106741876D01*
X195101908Y-106801483D01*
X195152202Y-106936328D01*
X195152206Y-106936335D01*
X195238452Y-107051544D01*
X195238455Y-107051547D01*
X195353664Y-107137793D01*
X195353671Y-107137797D01*
X195488517Y-107188091D01*
X195488516Y-107188091D01*
X195495444Y-107188835D01*
X195548127Y-107194500D01*
X197643872Y-107194499D01*
X197703483Y-107188091D01*
X197838331Y-107137796D01*
X197953546Y-107051546D01*
X198039796Y-106936331D01*
X198090091Y-106801483D01*
X198096500Y-106741873D01*
X198096499Y-104646128D01*
X198090091Y-104586517D01*
X198071509Y-104536697D01*
X198039797Y-104451671D01*
X198039793Y-104451664D01*
X197953547Y-104336455D01*
X197953544Y-104336452D01*
X197838335Y-104250206D01*
X197838328Y-104250202D01*
X197703482Y-104199908D01*
X197703483Y-104199908D01*
X197643883Y-104193501D01*
X197643881Y-104193500D01*
X197643873Y-104193500D01*
X197643864Y-104193500D01*
X195548129Y-104193500D01*
X195548123Y-104193501D01*
X195488516Y-104199908D01*
X195353671Y-104250202D01*
X195353664Y-104250206D01*
X195238455Y-104336452D01*
X195238452Y-104336455D01*
X195152206Y-104451664D01*
X195152202Y-104451671D01*
X195101908Y-104586517D01*
X195095501Y-104646116D01*
X195095501Y-104646123D01*
X195095500Y-104646135D01*
X188595000Y-104646135D01*
X188595000Y-100138135D01*
X193317500Y-100138135D01*
X193317500Y-102233870D01*
X193317501Y-102233876D01*
X193323908Y-102293483D01*
X193374202Y-102428328D01*
X193374206Y-102428335D01*
X193460452Y-102543544D01*
X193460455Y-102543547D01*
X193575664Y-102629793D01*
X193575671Y-102629797D01*
X193710517Y-102680091D01*
X193710516Y-102680091D01*
X193717444Y-102680835D01*
X193770127Y-102686500D01*
X195865872Y-102686499D01*
X195925483Y-102680091D01*
X196060331Y-102629796D01*
X196175546Y-102543546D01*
X196261796Y-102428331D01*
X196312091Y-102293483D01*
X196318500Y-102233873D01*
X196318499Y-100138128D01*
X196312091Y-100078517D01*
X196311152Y-100076000D01*
X196261797Y-99943671D01*
X196261793Y-99943664D01*
X196175547Y-99828455D01*
X196175544Y-99828452D01*
X196060335Y-99742206D01*
X196060328Y-99742202D01*
X195925482Y-99691908D01*
X195925483Y-99691908D01*
X195865883Y-99685501D01*
X195865881Y-99685500D01*
X195865873Y-99685500D01*
X195865864Y-99685500D01*
X193770129Y-99685500D01*
X193770123Y-99685501D01*
X193710516Y-99691908D01*
X193575671Y-99742202D01*
X193575664Y-99742206D01*
X193460455Y-99828452D01*
X193460452Y-99828455D01*
X193374206Y-99943664D01*
X193374202Y-99943671D01*
X193323908Y-100078517D01*
X193317501Y-100138116D01*
X193317501Y-100138123D01*
X193317500Y-100138135D01*
X188595000Y-100138135D01*
X188595000Y-97405994D01*
X193312357Y-97405994D01*
X193312357Y-97406005D01*
X193332890Y-97653812D01*
X193332892Y-97653824D01*
X193393936Y-97894881D01*
X193493826Y-98122606D01*
X193629833Y-98330782D01*
X193662245Y-98365991D01*
X193798256Y-98513738D01*
X193994491Y-98666474D01*
X194213190Y-98784828D01*
X194448386Y-98865571D01*
X194693665Y-98906500D01*
X194942335Y-98906500D01*
X195187614Y-98865571D01*
X195422810Y-98784828D01*
X195641509Y-98666474D01*
X195837744Y-98513738D01*
X196006164Y-98330785D01*
X196142173Y-98122607D01*
X196242063Y-97894881D01*
X196303108Y-97653821D01*
X196303109Y-97653812D01*
X196323643Y-97406005D01*
X196323643Y-97405994D01*
X196303109Y-97158187D01*
X196303107Y-97158175D01*
X196242063Y-96917118D01*
X196142173Y-96689393D01*
X196006166Y-96481217D01*
X195920184Y-96387816D01*
X195837744Y-96298262D01*
X195641509Y-96145526D01*
X195641507Y-96145525D01*
X195641506Y-96145524D01*
X195422811Y-96027172D01*
X195422802Y-96027169D01*
X195187616Y-95946429D01*
X194942335Y-95905500D01*
X194693665Y-95905500D01*
X194448383Y-95946429D01*
X194213197Y-96027169D01*
X194213188Y-96027172D01*
X193994493Y-96145524D01*
X193798257Y-96298261D01*
X193629833Y-96481217D01*
X193493826Y-96689393D01*
X193393936Y-96917118D01*
X193332892Y-97158175D01*
X193332890Y-97158187D01*
X193312357Y-97405994D01*
X188595000Y-97405994D01*
X188595000Y-94739000D01*
X188614685Y-94671961D01*
X188667489Y-94626206D01*
X188719000Y-94615000D01*
X191770000Y-94615000D01*
X191770000Y-82922135D01*
X201595500Y-82922135D01*
X201595500Y-84717870D01*
X201595501Y-84717876D01*
X201601908Y-84777483D01*
X201652202Y-84912328D01*
X201652206Y-84912335D01*
X201738452Y-85027544D01*
X201738455Y-85027547D01*
X201853664Y-85113793D01*
X201853671Y-85113797D01*
X201988517Y-85164091D01*
X201988516Y-85164091D01*
X201995444Y-85164835D01*
X202048127Y-85170500D01*
X203843872Y-85170499D01*
X203903483Y-85164091D01*
X204038331Y-85113796D01*
X204153546Y-85027546D01*
X204239796Y-84912331D01*
X204290091Y-84777483D01*
X204296500Y-84717873D01*
X204296499Y-82922128D01*
X204290091Y-82862517D01*
X204239796Y-82727669D01*
X204239795Y-82727668D01*
X204239793Y-82727664D01*
X204153547Y-82612455D01*
X204153544Y-82612452D01*
X204038335Y-82526206D01*
X204038328Y-82526202D01*
X203906401Y-82476997D01*
X203850467Y-82435126D01*
X203826050Y-82369662D01*
X203840902Y-82301389D01*
X203862053Y-82273133D01*
X203984108Y-82151078D01*
X204119600Y-81957578D01*
X204219429Y-81743492D01*
X204219432Y-81743486D01*
X204276636Y-81530000D01*
X203379012Y-81530000D01*
X203411925Y-81472993D01*
X203446000Y-81345826D01*
X203446000Y-81214174D01*
X203411925Y-81087007D01*
X203379012Y-81030000D01*
X204276636Y-81030000D01*
X204276635Y-81029999D01*
X204219432Y-80816513D01*
X204219429Y-80816507D01*
X204119600Y-80602422D01*
X204119599Y-80602420D01*
X203984113Y-80408926D01*
X203984108Y-80408920D01*
X203817082Y-80241894D01*
X203623578Y-80106399D01*
X203409492Y-80006570D01*
X203409486Y-80006567D01*
X203196000Y-79949364D01*
X203196000Y-80846988D01*
X203138993Y-80814075D01*
X203011826Y-80780000D01*
X202880174Y-80780000D01*
X202753007Y-80814075D01*
X202696000Y-80846988D01*
X202696000Y-79949364D01*
X202695999Y-79949364D01*
X202482513Y-80006567D01*
X202482507Y-80006570D01*
X202268422Y-80106399D01*
X202268420Y-80106400D01*
X202074926Y-80241886D01*
X202074920Y-80241891D01*
X201907891Y-80408920D01*
X201907886Y-80408926D01*
X201772400Y-80602420D01*
X201772399Y-80602422D01*
X201672570Y-80816507D01*
X201672567Y-80816513D01*
X201615364Y-81029999D01*
X201615364Y-81030000D01*
X202512988Y-81030000D01*
X202480075Y-81087007D01*
X202446000Y-81214174D01*
X202446000Y-81345826D01*
X202480075Y-81472993D01*
X202512988Y-81530000D01*
X201615364Y-81530000D01*
X201672567Y-81743486D01*
X201672570Y-81743492D01*
X201772399Y-81957578D01*
X201907894Y-82151082D01*
X202029946Y-82273134D01*
X202063431Y-82334457D01*
X202058447Y-82404149D01*
X202016575Y-82460082D01*
X201985598Y-82476997D01*
X201853671Y-82526202D01*
X201853664Y-82526206D01*
X201738455Y-82612452D01*
X201738452Y-82612455D01*
X201652206Y-82727664D01*
X201652202Y-82727671D01*
X201601908Y-82862517D01*
X201595501Y-82922116D01*
X201595501Y-82922123D01*
X201595500Y-82922135D01*
X191770000Y-82922135D01*
X191770000Y-81025995D01*
X193112732Y-81025995D01*
X193112732Y-81026004D01*
X193131777Y-81280154D01*
X193175791Y-81472993D01*
X193188492Y-81528637D01*
X193281607Y-81765888D01*
X193409041Y-81986612D01*
X193567950Y-82185877D01*
X193754783Y-82359232D01*
X193965366Y-82502805D01*
X193965371Y-82502807D01*
X193965372Y-82502808D01*
X193965373Y-82502809D01*
X194075282Y-82555738D01*
X194194992Y-82613387D01*
X194194993Y-82613387D01*
X194194996Y-82613389D01*
X194438542Y-82688513D01*
X194690565Y-82726500D01*
X194945435Y-82726500D01*
X195197458Y-82688513D01*
X195441004Y-82613389D01*
X195670634Y-82502805D01*
X195881217Y-82359232D01*
X196068050Y-82185877D01*
X196226959Y-81986612D01*
X196354393Y-81765888D01*
X196447508Y-81528637D01*
X196504222Y-81280157D01*
X196516446Y-81117032D01*
X196523268Y-81026004D01*
X196523268Y-81025995D01*
X196504222Y-80771845D01*
X196495992Y-80735789D01*
X196447508Y-80523363D01*
X196354393Y-80286112D01*
X196226959Y-80065388D01*
X196068050Y-79866123D01*
X195881217Y-79692768D01*
X195670634Y-79549195D01*
X195670630Y-79549193D01*
X195670627Y-79549191D01*
X195670626Y-79549190D01*
X195441006Y-79438612D01*
X195441008Y-79438612D01*
X195197466Y-79363489D01*
X195197462Y-79363488D01*
X195197458Y-79363487D01*
X195076231Y-79345214D01*
X194945440Y-79325500D01*
X194945435Y-79325500D01*
X194690565Y-79325500D01*
X194690559Y-79325500D01*
X194533609Y-79349157D01*
X194438542Y-79363487D01*
X194438539Y-79363488D01*
X194438533Y-79363489D01*
X194194992Y-79438612D01*
X193965373Y-79549190D01*
X193965372Y-79549191D01*
X193754782Y-79692768D01*
X193567952Y-79866121D01*
X193567950Y-79866123D01*
X193409041Y-80065388D01*
X193281608Y-80286109D01*
X193188492Y-80523362D01*
X193188490Y-80523369D01*
X193131777Y-80771845D01*
X193112732Y-81025995D01*
X191770000Y-81025995D01*
X191770000Y-75985995D01*
X193112732Y-75985995D01*
X193112732Y-75986004D01*
X193131777Y-76240154D01*
X193179276Y-76448262D01*
X193188492Y-76488637D01*
X193277630Y-76715756D01*
X193281608Y-76725890D01*
X193296431Y-76751565D01*
X193409041Y-76946612D01*
X193567950Y-77145877D01*
X193754783Y-77319232D01*
X193965366Y-77462805D01*
X193965371Y-77462807D01*
X193965372Y-77462808D01*
X193965373Y-77462809D01*
X194070770Y-77513565D01*
X194194992Y-77573387D01*
X194194993Y-77573387D01*
X194194996Y-77573389D01*
X194438542Y-77648513D01*
X194690565Y-77686500D01*
X194945435Y-77686500D01*
X195197458Y-77648513D01*
X195441004Y-77573389D01*
X195644929Y-77475184D01*
X195670626Y-77462809D01*
X195670626Y-77462808D01*
X195670634Y-77462805D01*
X195881217Y-77319232D01*
X196068050Y-77145877D01*
X196226959Y-76946612D01*
X196354393Y-76725888D01*
X196447508Y-76488637D01*
X196504222Y-76240157D01*
X196518500Y-76049632D01*
X196523268Y-75986004D01*
X196523268Y-75985995D01*
X196504222Y-75731845D01*
X196496945Y-75699963D01*
X196447508Y-75483363D01*
X196354393Y-75246112D01*
X196226959Y-75025388D01*
X196109988Y-74878711D01*
X202149500Y-74878711D01*
X202149500Y-75121288D01*
X202181161Y-75361785D01*
X202243947Y-75596104D01*
X202284202Y-75693288D01*
X202336776Y-75820212D01*
X202458064Y-76030289D01*
X202458066Y-76030292D01*
X202458067Y-76030293D01*
X202605733Y-76222736D01*
X202605739Y-76222743D01*
X202777256Y-76394260D01*
X202777262Y-76394265D01*
X202969711Y-76541936D01*
X203179788Y-76663224D01*
X203344303Y-76731368D01*
X203393062Y-76751565D01*
X203403900Y-76756054D01*
X203638211Y-76818838D01*
X203818586Y-76842584D01*
X203878711Y-76850500D01*
X203878712Y-76850500D01*
X204121289Y-76850500D01*
X204169388Y-76844167D01*
X204361789Y-76818838D01*
X204596100Y-76756054D01*
X204820212Y-76663224D01*
X205030289Y-76541936D01*
X205222738Y-76394265D01*
X205394265Y-76222738D01*
X205541936Y-76030289D01*
X205663224Y-75820212D01*
X205756054Y-75596100D01*
X205818838Y-75361789D01*
X205850500Y-75121288D01*
X205850500Y-74878712D01*
X205818838Y-74638211D01*
X205756054Y-74403900D01*
X205663224Y-74179788D01*
X205541936Y-73969711D01*
X205394265Y-73777262D01*
X205394260Y-73777256D01*
X205222743Y-73605739D01*
X205222736Y-73605733D01*
X205030293Y-73458067D01*
X205030292Y-73458066D01*
X205030289Y-73458064D01*
X204820212Y-73336776D01*
X204820205Y-73336773D01*
X204596104Y-73243947D01*
X204361785Y-73181161D01*
X204121289Y-73149500D01*
X204121288Y-73149500D01*
X203878712Y-73149500D01*
X203878711Y-73149500D01*
X203638214Y-73181161D01*
X203403895Y-73243947D01*
X203179794Y-73336773D01*
X203179785Y-73336777D01*
X202969706Y-73458067D01*
X202777263Y-73605733D01*
X202777256Y-73605739D01*
X202605739Y-73777256D01*
X202605733Y-73777263D01*
X202458067Y-73969706D01*
X202336777Y-74179785D01*
X202336773Y-74179794D01*
X202243947Y-74403895D01*
X202181161Y-74638214D01*
X202149500Y-74878711D01*
X196109988Y-74878711D01*
X196068050Y-74826123D01*
X195881217Y-74652768D01*
X195670634Y-74509195D01*
X195670630Y-74509193D01*
X195670627Y-74509191D01*
X195670626Y-74509190D01*
X195441006Y-74398612D01*
X195441008Y-74398612D01*
X195197466Y-74323489D01*
X195197462Y-74323488D01*
X195197458Y-74323487D01*
X195076231Y-74305214D01*
X194945440Y-74285500D01*
X194945435Y-74285500D01*
X194690565Y-74285500D01*
X194690559Y-74285500D01*
X194533609Y-74309157D01*
X194438542Y-74323487D01*
X194438539Y-74323488D01*
X194438533Y-74323489D01*
X194194992Y-74398612D01*
X193965373Y-74509190D01*
X193965372Y-74509191D01*
X193754782Y-74652768D01*
X193567952Y-74826121D01*
X193567950Y-74826123D01*
X193409041Y-75025388D01*
X193281608Y-75246109D01*
X193188492Y-75483362D01*
X193188490Y-75483369D01*
X193131777Y-75731845D01*
X193112732Y-75985995D01*
X191770000Y-75985995D01*
X191770000Y-71744500D01*
X191789685Y-71677461D01*
X191842489Y-71631706D01*
X191894000Y-71620500D01*
X208275500Y-71620500D01*
X208342539Y-71640185D01*
G37*
%TD.AperFunction*%
%TD*%
M02*
